<?xml version="1.0" encoding="utf-8"?>
<!-- Generator: Adobe Illustrator 17.1.0, SVG Export Plug-In . SVG Version: 6.00 Build 0)  -->
<!DOCTYPE svg PUBLIC "-//W3C//DTD SVG 1.1//EN" "http://www.w3.org/Graphics/SVG/1.1/DTD/svg11.dtd">
<svg version="1.1" id="Layer_1" xmlns="http://www.w3.org/2000/svg" xmlns:xlink="http://www.w3.org/1999/xlink" x="0px" y="0px"
	 viewBox="0 0 52 90" enable-background="new 0 0 52 90" xml:space="preserve">
<g>
	<defs>
		<rect id="SVGID_1_" x="0" width="52" height="90"/>
	</defs>
	<clipPath id="SVGID_2_">
		<use xlink:href="#SVGID_1_"  overflow="visible"/>
	</clipPath>
	<path clip-path="url(#SVGID_2_)" fill="#E8E8EF" d="M52,48.2V11.6l-4.7-1.1L31.8,1.1L30.2,0h-8.4l-1.7,1.2L4.2,10.8L0,11.5l0,37
		l4.3,0.8L20.5,59l2.7,3l1.4,3.8v19L21.9,90h8.3l-2.5-5.2V65.9l1.2-3.6l2.4-3l15.9-9.6L52,48.2z M26,56.4c-1.9,0-3.7-0.5-5.4-1.5
		L7,46.8C3.9,44.9,2,41.5,2,37.8V22.7C2,19,3.9,15.7,7,13.8l13.6-8.2c1.7-1,3.5-1.5,5.4-1.5c1.9,0,3.7,0.5,5.4,1.5L45,13.8
		c3.1,1.9,5.1,5.3,5.1,8.9v15.1c0,3.7-1.9,7.1-5.1,8.9l-13.6,8.2C29.7,55.9,27.9,56.4,26,56.4z"/>
	<g clip-path="url(#SVGID_2_)">
		<linearGradient id="SVGID_3_" gradientUnits="userSpaceOnUse" x1="13.8528" y1="9.6887" x2="38.1028" y2="50.772">
			<stop  offset="0" style="stop-color:#FFFFFF"/>
			<stop  offset="1" style="stop-color:#C9CBCC"/>
		</linearGradient>
		<path fill="url(#SVGID_3_)" d="M26,4.1c1.9,0,3.7,0.5,5.4,1.5L45,13.8c3.1,1.9,5.1,5.3,5.1,8.9v15.1c0,3.7-1.9,7.1-5.1,8.9
			l-13.6,8.2c-1.7,1-3.5,1.5-5.4,1.5c-1.9,0-3.7-0.5-5.4-1.5L7,46.8C3.9,44.9,2,41.5,2,37.8V22.7C2,19,3.9,15.7,7,13.8l13.6-8.2
			C22.3,4.6,24.1,4.1,26,4.1 M26,3.1L26,3.1c-2.1,0-4.1,0.6-5.9,1.6L6.5,12.9C3.1,15,1,18.7,1,22.7v15.1c0,4,2.1,7.7,5.5,9.8
			l13.6,8.2c1.8,1.1,3.8,1.6,5.9,1.6c2.1,0,4.1-0.6,5.9-1.6l13.6-8.2c3.4-2.1,5.5-5.8,5.5-9.8V22.7c0-4-2.1-7.7-5.5-9.8L31.9,4.7
			C30.1,3.7,28.1,3.1,26,3.1L26,3.1z"/>
	</g>
	<g clip-path="url(#SVGID_2_)">
		<linearGradient id="SVGID_4_" gradientUnits="userSpaceOnUse" x1="39.8478" y1="54.5329" x2="64.0978" y2="95.6163">
			<stop  offset="0" style="stop-color:#FFFFFF"/>
			<stop  offset="1" style="stop-color:#C9CBCC"/>
		</linearGradient>
		<path fill="url(#SVGID_4_)" d="M52,49c1.9,0,3.7,0.5,5.4,1.5L71,58.6c3.1,1.9,5.1,5.3,5.1,8.9v15.1c0,3.7-1.9,7.1-5.1,8.9
			l-13.6,8.2c-1.7,1-3.5,1.5-5.4,1.5s-3.7-0.5-5.4-1.5L33,91.6c-3.1-1.9-5.1-5.3-5.1-8.9V67.6c0-3.7,1.9-7.1,5.1-8.9l13.6-8.2
			C48.3,49.5,50.1,49,52,49 M52,48L52,48c-2.1,0-4.1,0.6-5.9,1.6l-13.6,8.2c-3.4,2.1-5.5,5.8-5.5,9.8v15.1c0,4,2.1,7.7,5.5,9.8
			l13.6,8.2c1.8,1.1,3.8,1.6,5.9,1.6c2.1,0,4.1-0.6,5.9-1.6l13.6-8.2c3.4-2.1,5.5-5.8,5.5-9.8V67.6c0-4-2.1-7.7-5.5-9.8l-13.6-8.2
			C56.1,48.5,54.1,48,52,48L52,48z"/>
	</g>
	<g clip-path="url(#SVGID_2_)">
		<linearGradient id="SVGID_5_" gradientUnits="userSpaceOnUse" x1="-12.1382" y1="54.5329" x2="12.1118" y2="95.6163">
			<stop  offset="0" style="stop-color:#FFFFFF"/>
			<stop  offset="1" style="stop-color:#C9CBCC"/>
		</linearGradient>
		<path fill="url(#SVGID_5_)" d="M0,49c1.9,0,3.7,0.5,5.4,1.5L19,58.6c3.1,1.9,5.1,5.3,5.1,8.9v15.1c0,3.7-1.9,7.1-5.1,8.9L5.4,99.8
			c-1.7,1-3.5,1.5-5.4,1.5c-1.9,0-3.7-0.5-5.4-1.5L-19,91.6c-3.1-1.9-5.1-5.3-5.1-8.9V67.6c0-3.7,1.9-7.1,5.1-8.9l13.6-8.2
			C-3.7,49.5-1.8,49,0,49 M0,48L0,48c-2.1,0-4.1,0.6-5.9,1.6l-13.6,8.2c-3.4,2.1-5.5,5.8-5.5,9.8v15.1c0,4,2.1,7.7,5.5,9.8l13.6,8.2
			c1.8,1.1,3.8,1.6,5.9,1.6c2.1,0,4.1-0.6,5.9-1.6l13.6-8.2c3.4-2.1,5.5-5.8,5.5-9.8V67.6c0-4-2.1-7.7-5.5-9.8L5.9,49.6
			C4.1,48.5,2.1,48,0,48L0,48z"/>
	</g>
	<g clip-path="url(#SVGID_2_)">
		<linearGradient id="SVGID_6_" gradientUnits="userSpaceOnUse" x1="39.8478" y1="-35.7287" x2="64.0978" y2="5.3546">
			<stop  offset="0" style="stop-color:#FFFFFF"/>
			<stop  offset="1" style="stop-color:#C9CBCC"/>
		</linearGradient>
		<path fill="url(#SVGID_6_)" d="M52-41.3c1.9,0,3.7,0.5,5.4,1.5L71-31.6c3.1,1.9,5.1,5.3,5.1,8.9v15.1c0,3.7-1.9,7.1-5.1,8.9
			L57.4,9.5c-1.7,1-3.5,1.5-5.4,1.5s-3.7-0.5-5.4-1.5L33,1.3C29.9-0.5,28-3.9,28-7.6v-15.1c0-3.7,1.9-7.1,5.1-8.9l13.6-8.2
			C48.3-40.8,50.1-41.3,52-41.3 M52-42.3L52-42.3c-2.1,0-4.1,0.6-5.9,1.6l-13.6,8.2c-3.4,2.1-5.5,5.8-5.5,9.8v15.1
			c0,4,2.1,7.7,5.5,9.8l13.6,8.2c1.8,1.1,3.8,1.6,5.9,1.6c2.1,0,4.1-0.6,5.9-1.6l13.6-8.2C74.9,0.2,77-3.6,77-7.6v-15.1
			c0-4-2.1-7.7-5.5-9.8l-13.6-8.2C56.1-41.7,54.1-42.3,52-42.3L52-42.3z"/>
	</g>
	<g clip-path="url(#SVGID_2_)">
		<linearGradient id="SVGID_7_" gradientUnits="userSpaceOnUse" x1="-12.1382" y1="-35.7287" x2="12.1118" y2="5.3546">
			<stop  offset="0" style="stop-color:#FFFFFF"/>
			<stop  offset="1" style="stop-color:#C9CBCC"/>
		</linearGradient>
		<path fill="url(#SVGID_7_)" d="M0-41.3c1.9,0,3.7,0.5,5.4,1.5L19-31.6c3.1,1.9,5.1,5.3,5.1,8.9v15.1c0,3.7-1.9,7.1-5.1,8.9
			L5.4,9.5C3.7,10.5,1.9,11,0,11c-1.9,0-3.7-0.5-5.4-1.5L-19,1.3C-22.1-0.5-24-3.9-24-7.6v-15.1c0-3.7,1.9-7.1,5.1-8.9l13.6-8.2
			C-3.7-40.8-1.8-41.3,0-41.3 M0-42.3L0-42.3c-2.1,0-4.1,0.6-5.9,1.6l-13.6,8.2c-3.4,2.1-5.5,5.8-5.5,9.8v15.1c0,4,2.1,7.7,5.5,9.8
			l13.6,8.2C-4.1,11.4-2.1,12,0,12c2.1,0,4.1-0.6,5.9-1.6l13.6-8.2C22.9,0.2,25-3.6,25-7.6v-15.1c0-4-2.1-7.7-5.5-9.8L5.9-40.7
			C4.1-41.7,2.1-42.3,0-42.3L0-42.3z"/>
	</g>
</g>
</svg>
