<?xml version="1.0" encoding="utf-8"?>
<!-- Generator: Adobe Illustrator 17.1.0, SVG Export Plug-In . SVG Version: 6.00 Build 0)  -->
<!DOCTYPE svg PUBLIC "-//W3C//DTD SVG 1.1//EN" "http://www.w3.org/Graphics/SVG/1.1/DTD/svg11.dtd">
<svg version="1.1" id="Laag_1" xmlns="http://www.w3.org/2000/svg" xmlns:xlink="http://www.w3.org/1999/xlink" x="0px" y="0px"
	 viewBox="2.4 0 46.1 50" enable-background="new 2.4 0 46.1 50" xml:space="preserve">
<g>
	
		<linearGradient id="SVGID_1_" gradientUnits="userSpaceOnUse" x1="13.9735" y1="7.3437" x2="37.2523" y2="46.7816" gradientTransform="matrix(0.9208 0 0 0.9208 1.9339 -2.301634e-02)">
		<stop  offset="0" style="stop-color:#FFFFFF"/>
		<stop  offset="1" style="stop-color:#C9CBCC;stop-opacity:0.5"/>
	</linearGradient>
	<path fill="url(#SVGID_1_)" d="M25.5,0.9c1.7,0,3.4,0.5,5,1.4L43,9.8c2.9,1.7,4.7,4.9,4.7,8.2v13.9c0,3.4-1.7,6.5-4.7,8.2
		l-12.5,7.6c-1.6,0.9-3.2,1.4-5,1.4c-1.7,0-3.4-0.5-5-1.4L8.1,40.1c-2.9-1.7-4.7-4.9-4.7-8.2V18c0-3.4,1.7-6.5,4.7-8.2l12.5-7.6
		C22,1.3,23.8,0.9,25.5,0.9"/>
</g>
<g>
	
		<linearGradient id="SVGID_2_" gradientUnits="userSpaceOnUse" x1="13.4303" y1="6.5531" x2="37.6803" y2="47.6364" gradientTransform="matrix(0.9208 0 0 0.9208 1.9339 -2.301634e-02)">
		<stop  offset="0" style="stop-color:#FFFFFF"/>
		<stop  offset="1" style="stop-color:#9A9EA0"/>
	</linearGradient>
	<path fill="url(#SVGID_2_)" d="M25.5,0.9c1.7,0,3.4,0.5,5,1.4L43,9.8c2.9,1.7,4.7,4.9,4.7,8.2v13.9c0,3.4-1.7,6.5-4.7,8.2
		l-12.5,7.6c-1.6,0.9-3.2,1.4-5,1.4c-1.7,0-3.4-0.5-5-1.4L8.1,40.1c-2.9-1.7-4.7-4.9-4.7-8.2V18c0-3.4,1.7-6.5,4.7-8.2l12.5-7.6
		C22,1.3,23.8,0.9,25.5,0.9 M25.5,0L25.5,0c-1.9,0-3.8,0.6-5.4,1.5L7.5,8.9c-3.1,1.9-5.1,5.4-5.1,9v13.9c0,3.7,1.9,7.1,5.1,9
		L20,48.4c1.7,1,3.6,1.6,5.4,1.6c1.9,0,3.8-0.6,5.4-1.5L43.4,41c3.1-2,5.1-5.4,5.1-9V18c0-3.7-1.9-7.1-5.1-9L30.9,1.5
		C29.2,0.5,27.4,0,25.5,0L25.5,0z"/>
</g>
<path opacity="0.5" fill="#D8D8D8" d="M35.8,18H27v-2h-5v2h-7.8l3.6,6.1l-1.7,1l2.8,4.6l1.7-1l4.4,7.4l4.5-7.5l1.8,1.1l2.8-4.6
	L32.3,24L35.8,18z M25,29.1L20.1,21h9.7L25,29.1z"/>
<g>
	
		<linearGradient id="SVGID_3_" gradientUnits="userSpaceOnUse" x1="13.9735" y1="7.3437" x2="37.2523" y2="46.7816" gradientTransform="matrix(0.9208 0 0 0.9208 1.9339 -2.301634e-02)">
		<stop  offset="0" style="stop-color:#FFFFFF;stop-opacity:0.5"/>
		<stop  offset="0.6767" style="stop-color:#FFFFFF;stop-opacity:0"/>
		<stop  offset="1" style="stop-color:#C9CBCC;stop-opacity:0.5"/>
	</linearGradient>
	<path fill="url(#SVGID_3_)" d="M25.5,0.9c1.7,0,3.4,0.5,5,1.4L43,9.8c2.9,1.7,4.7,4.9,4.7,8.2v13.9c0,3.4-1.7,6.5-4.7,8.2
		l-12.5,7.6c-1.6,0.9-3.2,1.4-5,1.4c-1.7,0-3.4-0.5-5-1.4L8.1,40.1c-2.9-1.7-4.7-4.9-4.7-8.2V18c0-3.4,1.7-6.5,4.7-8.2l12.5-7.6
		C22,1.3,23.8,0.9,25.5,0.9"/>
</g>
</svg>
