<?xml version="1.0" encoding="utf-8"?>
<!-- Generator: Adobe Illustrator 17.1.0, SVG Export Plug-In . SVG Version: 6.00 Build 0)  -->
<!DOCTYPE svg PUBLIC "-//W3C//DTD SVG 1.1//EN" "http://www.w3.org/Graphics/SVG/1.1/DTD/svg11.dtd">
<svg version="1.1" id="Laag_1" xmlns="http://www.w3.org/2000/svg" xmlns:xlink="http://www.w3.org/1999/xlink" x="0px" y="0px"
	 viewBox="0 0 46.1 50" enable-background="new 0 0 46.1 50" xml:space="preserve">
<g>
	
		<linearGradient id="SVGID_1_" gradientUnits="userSpaceOnUse" x1="11.3671" y1="7.3437" x2="34.6459" y2="46.7816" gradientTransform="matrix(0.9208 0 0 0.9208 1.9339 -2.301634e-02)">
		<stop  offset="0" style="stop-color:#FFFFFF"/>
		<stop  offset="1" style="stop-color:#C9CBCC;stop-opacity:0.5"/>
	</linearGradient>
	<path fill="url(#SVGID_1_)" d="M23.1,0.9c1.7,0,3.4,0.5,5,1.4l12.5,7.5c2.9,1.7,4.7,4.9,4.7,8.2v13.9c0,3.4-1.7,6.5-4.7,8.2
		l-12.5,7.6c-1.6,0.9-3.2,1.4-5,1.4c-1.7,0-3.4-0.5-5-1.4L5.7,40.1C2.8,38.4,1,35.2,1,31.9V18c0-3.4,1.7-6.5,4.7-8.2l12.5-7.6
		C19.6,1.3,21.4,0.9,23.1,0.9"/>
</g>
<g>
	
		<linearGradient id="SVGID_2_" gradientUnits="userSpaceOnUse" x1="10.8239" y1="6.5531" x2="35.0739" y2="47.6364" gradientTransform="matrix(0.9208 0 0 0.9208 1.9339 -2.301634e-02)">
		<stop  offset="0" style="stop-color:#FFFFFF"/>
		<stop  offset="1" style="stop-color:#9A9EA0"/>
	</linearGradient>
	<path fill="url(#SVGID_2_)" d="M23.1,0.9c1.7,0,3.4,0.5,5,1.4l12.5,7.5c2.9,1.7,4.7,4.9,4.7,8.2v13.9c0,3.4-1.7,6.5-4.7,8.2
		l-12.5,7.6c-1.6,0.9-3.2,1.4-5,1.4c-1.7,0-3.4-0.5-5-1.4L5.7,40.1C2.8,38.4,1,35.2,1,31.9V18c0-3.4,1.7-6.5,4.7-8.2l12.5-7.6
		C19.6,1.3,21.4,0.9,23.1,0.9 M23.1,0L23.1,0c-1.9,0-3.8,0.6-5.4,1.5L5.1,8.9C2,10.8,0,14.3,0,17.9v13.9c0,3.7,1.9,7.1,5.1,9
		l12.5,7.6c1.7,1,3.6,1.6,5.4,1.6c1.9,0,3.8-0.6,5.4-1.5L41,41c3.1-2,5.1-5.4,5.1-9V18c0-3.7-1.9-7.1-5.1-9L28.5,1.5
		C26.8,0.5,25,0,23.1,0L23.1,0z"/>
</g>
<path opacity="0.2" fill="#6B6B78" d="M13.3,16.3l8,10.4l4.8,0l8-10.4H13.3z M23.6,23.2l-2.7-3.8h5.6L23.6,23.2z"/>
<polygon opacity="0.2" fill="#6B6B78" points="30.1,25.6 30.1,28.9 17.3,28.9 17.3,25.6 13.3,20.5 13.3,32.9 34.1,32.9 34.1,20.5 
	"/>
<g>
	
		<linearGradient id="SVGID_3_" gradientUnits="userSpaceOnUse" x1="11.3671" y1="7.3437" x2="34.6459" y2="46.7816" gradientTransform="matrix(0.9208 0 0 0.9208 1.9339 -2.301634e-02)">
		<stop  offset="0" style="stop-color:#FFFFFF;stop-opacity:0.5"/>
		<stop  offset="0.6767" style="stop-color:#FFFFFF;stop-opacity:0"/>
		<stop  offset="1" style="stop-color:#C9CBCC;stop-opacity:0.5"/>
	</linearGradient>
	<path fill="url(#SVGID_3_)" d="M23.1,0.9c1.7,0,3.4,0.5,5,1.4l12.5,7.5c2.9,1.7,4.7,4.9,4.7,8.2v13.9c0,3.4-1.7,6.5-4.7,8.2
		l-12.5,7.6c-1.6,0.9-3.2,1.4-5,1.4c-1.7,0-3.4-0.5-5-1.4L5.7,40.1C2.8,38.4,1,35.2,1,31.9V18c0-3.4,1.7-6.5,4.7-8.2l12.5-7.6
		C19.6,1.3,21.4,0.9,23.1,0.9"/>
</g>
</svg>
