<?xml version="1.0" encoding="utf-8"?>
<!-- Generator: Adobe Illustrator 17.1.0, SVG Export Plug-In . SVG Version: 6.00 Build 0)  -->
<!DOCTYPE svg PUBLIC "-//W3C//DTD SVG 1.1//EN" "http://www.w3.org/Graphics/SVG/1.1/DTD/svg11.dtd">
<svg version="1.1" id="Layer_1" xmlns="http://www.w3.org/2000/svg" xmlns:xlink="http://www.w3.org/1999/xlink" x="0px" y="0px"
	 viewBox="-2.1 -2 47.9 49.9" enable-background="new -2.1 -2 47.9 49.9" xml:space="preserve">
<g>
	<g opacity="0">
		<path fill="#D5D8E2" d="M21.9-2c-3.2,0-6.3,0.8-8.8,2.3l0,0l0,0L6.7,4c-5.2,3.1-8.7,9.2-8.7,15.3v7.4c0,6.1,3.5,12.2,8.7,15.3
			l6.3,3.7c2.6,1.5,5.7,2.3,8.8,2.3c3.2,0,6.2-0.8,8.8-2.3l6.4-3.7c5.3-3.1,8.8-9.2,8.8-15.3v-7.4c0-6.1-3.5-12.2-8.8-15.3l-6.4-3.7
			C28.1-1.2,25-2,21.9-2L21.9-2z"/>
	</g>
	<g opacity="2.272727e-03">
		<path fill="#D5D8E2" d="M21.9-1.7L21.9-1.7c1.9,0,3.7,0.3,5.4,0.8c1.2,0.4,2.4,0.9,3.4,1.5L37,4.2c5.1,3,8.6,9,8.6,14.9
			c0,0.1,0,7.2,0,7.2c0,3-0.9,6.4-2.4,9c-1.5,2.6-3.7,4.9-6.2,6.4l-6.4,3.7c-0.9,0.5-1.9,1-3,1.3c-1.8,0.6-3.8,1-5.8,1
			c-1.9,0-3.7-0.3-5.3-0.8c-1.2-0.4-2.4-0.9-3.4-1.5l-6.3-3.7c-3.5-2.1-6.3-5.6-7.6-9.6c-0.6-1.8-1-3.8-1-5.7v-7.3
			c0-6,3.4-12,8.5-14.9L13,0.6l0,0l0,0c0.9-0.5,1.9-1,3-1.3C17.9-1.4,19.9-1.7,21.9-1.7"/>
	</g>
	<g opacity="4.545454e-03">
		<path fill="#D5D8E2" d="M21.9-1.5L21.9-1.5c1.9,0,3.7,0.3,5.3,0.8c1.1,0.4,2.5,1,3.4,1.6L37,4.5c5,2.8,8.4,8.7,8.4,14.4
			c0,0.1,0.1,6.9,0.1,6.9c0,2.8-0.8,6.6-2.3,9.1c-1.4,2.6-3.6,5-6.1,6.5l-6.4,3.7c-0.8,0.5-2,1-2.9,1.3c-1.8,0.7-3.7,1-5.7,1
			c-1.9,0-3.7-0.3-5.3-0.8c-1.1-0.4-2.4-0.9-3.4-1.5L7,41.5c-3.5-2-6.2-5.5-7.5-9.5c-0.6-1.6-0.9-3.8-0.9-5.6v-7.3
			C-1.4,13.3,2,7.4,7,4.5l6.3-3.7l0,0l0,0c0.7-0.4,1.9-1,2.8-1.3C17.9-1.2,19.9-1.5,21.9-1.5"/>
	</g>
	<g opacity="6.818182e-03">
		<path fill="#D5D8E2" d="M21.9-1.3L21.9-1.3c1.9,0,3.7,0.3,5.3,0.8c1,0.3,2.5,1,3.4,1.6L37,4.8c4.9,2.8,8.1,8.4,8.2,14
			c0.1,0.1,0.1,6.6,0.1,6.8c0,2.7-0.8,6.8-2.2,9.2c-1.3,2.7-3.5,5.1-6,6.6L30.6,45c-0.8,0.4-2,1-2.9,1.3c-1.8,0.7-3.7,1-5.7,1
			c-1.9,0-3.6-0.3-5.3-0.8c-1-0.3-2.4-1-3.4-1.5L7,41.3c-3.4-2-6.1-5.5-7.3-9.4c-0.7-1.6-1-3.9-1-5.5v-7.2c0-5.7,3.3-11.5,8.1-14.3
			L13.2,1l0,0l0,0c0.8-0.4,2-1,2.9-1.3C17.9-1,19.9-1.3,21.9-1.3"/>
	</g>
	<g opacity="9.090909e-03">
		<path fill="#D5D8E2" d="M21.9-1.1L21.9-1.1c1.9,0,3.7,0.3,5.3,0.9c1,0.3,2.5,1,3.4,1.6L36.8,5c4.6,2.7,7.8,8.1,8,13.5
			c0.1,0.1,0.1,6.4,0.1,6.6c0,2.5-0.7,7-2.1,9.3c-1.3,2.7-3.4,5.1-6,6.6l-6.4,3.7c-0.7,0.4-2,1-2.9,1.3c-1.7,0.7-3.7,1-5.7,1
			c-1.9,0-3.6-0.3-5.2-0.8c-1-0.3-2.4-1-3.3-1.5L7,41c-3.4-1.9-6-5.5-7.2-9.3C-0.7,30.1-1,27.8-1,26.2V19c0-5.6,3.2-11.3,8-14
			l6.3-3.7l0,0l0,0c0.7-0.4,2-1,2.9-1.3C17.9-0.7,19.9-1.1,21.9-1.1"/>
	</g>
	<g opacity="1.136364e-02">
		<path fill="#D5D8E2" d="M21.9-0.8L21.9-0.8c1.9,0,3.7,0.3,5.2,0.9c1,0.3,2.5,1.1,3.4,1.6l6.3,3.6c4.5,2.6,7.6,7.8,7.8,13.1
			c0.1,0.2,0.1,6.1,0.1,6.3c0,2.4-0.7,7.2-1.9,9.3c-1.2,2.7-3.4,5.2-5.9,6.8l-6.4,3.7c-0.7,0.4-2,1.1-2.8,1.3c-1.7,0.7-3.7,1-5.6,1
			c-1.9,0-3.6-0.3-5.2-0.9c-1-0.3-2.4-1-3.2-1.5l-6.4-3.7c-3.4-1.9-6-5.5-7.1-9.3c-0.5-1.4-0.7-3.9-0.7-5.4v-7.1
			c0-5.4,3.1-11,7.8-13.7l6.3-3.7l0,0l0,0c0.7-0.4,2.1-1.1,2.8-1.3C18-0.5,19.9-0.8,21.9-0.8"/>
	</g>
	<g opacity="1.363636e-02">
		<path fill="#D5D8E2" d="M21.9-0.6L21.9-0.6c1.9,0,3.6,0.3,5.2,0.9c0.9,0.3,2.6,1.1,3.4,1.6l6.2,3.6c4.4,2.6,7.4,7.6,7.6,12.7
			c0.1,0.2,0.1,5.9,0.1,6.1c0,2.2-0.7,7.4-1.9,9.3c-1.1,2.8-3.3,5.4-5.8,6.9l-6.4,3.7c-0.7,0.4-2.1,1.1-2.8,1.3
			c-1.7,0.7-3.6,1-5.5,1c-1.8,0-3.6-0.3-5.1-0.9c-0.9-0.3-2.4-1-3.2-1.5l-6.4-3.7c-3.4-1.9-5.9-5.4-6.9-9.3
			c-0.4-1.3-0.7-3.9-0.7-5.3v-6.9c0-5.3,3.1-10.7,7.6-13.4l6.3-3.7l0,0l0,0c0.7-0.4,2.1-1.1,2.8-1.3C18-0.2,19.9-0.6,21.9-0.6"/>
	</g>
	<g opacity="1.590909e-02">
		<path fill="#D5D8E2" d="M21.9-0.3L21.9-0.3c1.9,0,3.6,0.3,5.1,0.9c0.8,0.2,2.6,1.2,3.4,1.6l6.2,3.6c4.2,2.5,7.2,7.3,7.4,12.2
			c0.1,0.3,0.1,5.6,0.1,5.9c0,2.2-0.6,7.5-1.7,9.4c-1,2.8-3.2,5.4-5.8,6.9l-6.4,3.7c-0.7,0.4-2.1,1.1-2.8,1.3c-1.6,0.7-3.6,1-5.5,1
			c-1.8,0-3.6-0.3-5.1-0.9c-0.8-0.2-2.4-1-3.1-1.5l-6.4-3.7c-3.3-1.9-5.8-5.4-6.8-9.2c-0.4-1.3-0.7-4-0.7-5.2v-7
			c0-5.1,3-10.4,7.5-13.1L13.5,2l0,0l0,0c0.7-0.4,2.1-1.1,2.8-1.3C18,0,20-0.3,21.9-0.3"/>
	</g>
	<g opacity="1.818182e-02">
		<path fill="#D5D8E2" d="M21.9-0.1L21.9-0.1c1.8,0,3.6,0.3,5.1,0.9C27.8,1,29.7,2,30.4,2.5L36.6,6c4,2.3,6.9,7,7.2,11.7
			c0.1,0.3,0.1,5.4,0.1,5.7c0,2-0.6,7.8-1.6,9.5c-1,2.8-3.1,5.5-5.7,7l-6.4,3.7C29.5,44,28,44.8,27.3,45c-1.6,0.7-3.5,1-5.4,1
			c-1.8,0-3.6-0.3-5.1-0.9c-0.7-0.2-2.4-1-3.1-1.5l-6.4-3.7c-3.2-1.8-5.7-5.4-6.6-9c-0.4-1.2-0.7-4-0.7-5.2v-6.9
			c0-5,3-10.2,7.2-12.7l6.3-3.7l0,0l0,0c0.6-0.4,2.2-1.1,2.8-1.3C18.1,0.2,20-0.1,21.9-0.1"/>
	</g>
	<g opacity="2.045454e-02">
		<path fill="#D5D8E2" d="M21.9,0.1L21.9,0.1c1.8,0,3.6,0.3,5.1,1c0.7,0.2,2.7,1.3,3.4,1.6l6.1,3.6c3.9,2.2,6.6,6.8,6.9,11.3
			c0.1,0.4,0.2,5.1,0.2,5.5c0,1.9-0.5,7.9-1.5,9.6c-0.9,2.8-3.1,5.6-5.7,7.1l-6.4,3.7c-0.5,0.3-2.2,1.2-2.8,1.3
			c-1.6,0.7-3.5,1-5.4,1c-1.8,0-3.6-0.3-5.1-1c-0.7-0.2-2.4-1.1-3.1-1.5l-6.4-3.7c-3.2-1.9-5.7-5.4-6.5-9c-0.4-1-0.7-4-0.7-5.1v-6.9
			c0-4.9,2.9-10,7.1-12.4l6.3-3.7l0,0l0,0c0.5-0.3,2.2-1.2,2.8-1.4C18.1,0.5,20,0.1,21.9,0.1"/>
	</g>
	<g opacity="2.272727e-02">
		<path fill="#D5D8E2" d="M21.9,0.4L21.9,0.4c1.8,0,3.6,0.3,5.1,1c0.7,0.2,2.8,1.3,3.4,1.6l6.1,3.5c3.7,2.2,6.4,6.5,6.8,10.9
			c0.1,0.4,0.2,4.9,0.2,5.3c0,1.7-0.5,8.1-1.4,9.6c-0.8,2.8-3,5.7-5.6,7.2L30,43.3c-0.5,0.3-2.2,1.2-2.8,1.3c-1.6,0.7-3.4,1-5.4,1
			c-1.8,0-3.6-0.3-5.1-1c-0.7-0.2-2.4-1.1-3-1.5l-6.4-3.7c-3.1-1.9-5.6-5.4-6.3-9c-0.4-1-0.5-4-0.5-5.1v-6.8c0-4.7,2.8-9.7,6.9-12.1
			l6.3-3.7l0,0l0,0c0.5-0.3,2.2-1.2,2.8-1.4C18.1,0.7,20,0.4,21.9,0.4"/>
	</g>
	<g opacity="2.500000e-02">
		<path fill="#D5D8E2" d="M21.9,0.6L21.9,0.6c1.8,0,3.6,0.4,5.1,1c0.6,0.1,2.8,1.3,3.4,1.6l6.1,3.5c3.6,2.1,6.2,6.2,6.6,10.4
			c0.1,0.4,0.2,4.6,0.2,5.1c0,1.6-0.4,8.3-1.3,9.7c-0.7,2.8-2.9,5.7-5.5,7.3L30,43c-0.4,0.3-2.2,1.2-2.7,1.3c-1.6,0.7-3.5,1-5.4,1
			c-1.8,0-3.5-0.4-5.1-1c-0.6-0.2-2.4-1.1-3-1.5l-6.4-3.7c-3.1-1.8-5.5-5.4-6.2-9c-0.3-0.9-0.5-4-0.5-5v-6.7c0-4.6,2.8-9.5,6.7-11.8
			L13.8,3l0,0l0,0c0.4-0.3,2.2-1.2,2.7-1.4C18.2,1,20,0.6,21.9,0.6"/>
	</g>
	<g opacity="2.727273e-02">
		<path fill="#D5D8E2" d="M21.9,0.8L21.9,0.8c1.8,0,3.6,0.4,5.1,1c0.5,0.1,2.8,1.4,3.3,1.7l6,3.5c3.4,2,5.9,6,6.3,10
			c0.1,0.5,0.2,4.4,0.2,4.9c0,1.4-0.4,8.5-1.1,9.7c-0.7,2.8-2.8,5.9-5.4,7.4l-6.5,3.7c-0.4,0.2-2.2,1.2-2.7,1.3
			c-1.6,0.7-3.4,1-5.2,1c-1.8,0-3.5-0.4-5-1c-0.5-0.1-2.4-1.2-2.9-1.4l-6.4-3.7c-3.1-1.8-5.4-5.4-6.1-8.9C1.2,29.2,1,26,1,25.1v-6.7
			C1,13.9,3.7,9.2,7.5,7l6.3-3.7l0,0l0,0C14.3,3,16.1,2,16.5,1.9C18.2,1.2,20,0.8,21.9,0.8"/>
	</g>
	<g opacity="2.954545e-02">
		<path fill="#D5D8E2" d="M21.9,1L21.9,1c1.8,0,3.6,0.4,5,1c0.5,0.1,2.8,1.4,3.3,1.7l6,3.5c3.3,1.9,5.7,5.7,6.1,9.6
			c0.1,0.5,0.3,4.1,0.3,4.6c0,1.3-0.4,8.7-1,9.8c-0.6,2.9-2.8,6-5.4,7.5l-6.5,3.7c-0.4,0.2-2.2,1.3-2.7,1.3c-1.5,0.7-3.4,1-5.2,1
			c-1.8,0-3.5-0.4-5-1c-0.5-0.1-2.4-1.2-2.8-1.4l-6.4-3.7c-3.1-1.8-5.4-5.4-5.9-8.8c-0.3-0.7-0.4-4-0.4-4.9v-6.6
			c0-4.3,2.6-9,6.3-11.1l6.4-3.7l0,0l0,0c0.4-0.2,2.2-1.3,2.7-1.4C18.2,1.5,20,1,21.9,1"/>
	</g>
	<g opacity="3.181818e-02">
		<path fill="#D5D8E2" d="M21.9,1.3L21.9,1.3c1.8,0,3.5,0.4,5,1c0.4,0.1,2.9,1.5,3.3,1.7l6,3.4c3.1,1.8,5.4,5.4,5.9,9.1
			c0.2,0.6,0.3,3.9,0.3,4.4c0,1.1-0.4,8.9-0.9,9.9c-0.5,2.9-2.7,6-5.3,7.5l-6.5,3.7c-0.4,0.2-2.2,1.3-2.6,1.4
			c-1.5,0.7-3.3,1.1-5.1,1.1c-1.8,0-3.5-0.4-5-1c-0.4-0.1-2.4-1.2-2.8-1.4l-6.4-3.7c-3-1.7-5.3-5.3-5.8-8.7
			c-0.2-0.7-0.4-4.1-0.4-4.8v-6.6c0-4.2,2.5-8.7,6.1-10.8L14,3.9l0,0l0,0c0.4-0.2,2.2-1.3,2.6-1.4C18.2,1.7,20,1.3,21.9,1.3"/>
	</g>
	<g opacity="3.409091e-02">
		<path fill="#D5D8E2" d="M21.9,1.6L21.9,1.6c1.8,0,3.5,0.4,4.9,1c0.4,0.1,2.9,1.6,3.3,1.7l6,3.4c3,1.7,5.2,5.1,5.7,8.7
			c0.2,0.6,0.3,3.6,0.3,4.2c0,1-0.3,9-0.8,9.9c-0.5,2.9-2.6,6.1-5.2,7.6l-6.5,3.7c-0.3,0.1-2.2,1.3-2.6,1.4
			c-1.5,0.7-3.3,1.1-5.1,1.1s-3.5-0.4-4.9-1c-0.4-0.1-2.4-1.3-2.8-1.4l-6.5-3.7c-3-1.7-5.2-5.3-5.7-8.7c-0.1-0.6-0.3-4.1-0.3-4.8
			v-6.5c0-4,2.5-8.5,6-10.5L14.1,4l0,0l0,0c0.3-0.1,2.3-1.3,2.6-1.4C18.2,1.9,20,1.6,21.9,1.6"/>
	</g>
	<g opacity="3.636364e-02">
		<path fill="#D5D8E2" d="M21.8,1.8L21.8,1.8c1.8,0,3.5,0.4,4.9,1c0.3,0.1,3,1.6,3.3,1.8L36,8c2.8,1.6,4.9,4.9,5.5,8.2
			c0.2,0.7,0.4,3.4,0.4,4c0,0.8-0.2,9.3-0.7,10c-0.4,3-2.5,6.2-5.1,7.8l-6.5,3.7c-0.2,0.1-2.3,1.3-2.6,1.4c-1.4,0.7-3.2,1.1-5.1,1.1
			c-1.8,0-3.5-0.4-4.9-1c-0.3-0.1-2.4-1.3-2.7-1.4l-6.5-3.7c-2.9-1.9-5.1-5.4-5.5-8.8C2.1,28.8,2,25.2,2,24.7v-6.5
			C2,14.3,4.4,10,7.7,8l6.4-3.7l0,0l0,0c0.2-0.1,2.3-1.3,2.6-1.4C18.2,2.2,20,1.8,21.8,1.8"/>
	</g>
	<g opacity="3.863636e-02">
		<path fill="#D5D8E2" d="M21.8,2L21.8,2c1.8,0,3.5,0.4,4.9,1.1c0.3,0.1,3,1.6,3.3,1.8l5.9,3.4c2.7,1.6,4.7,4.6,5.3,7.8
			c0.2,0.7,0.4,3.1,0.4,3.8c0,0.7-0.2,9.4-0.6,10.1c-0.4,3-2.5,6.3-5.1,7.8l-6.5,3.7c-0.2,0.1-2.3,1.3-2.5,1.4
			c-1.4,0.7-3.2,1.1-5,1.1c-1.8,0-3.5-0.4-4.9-1.1c-0.3-0.1-2.4-1.3-2.7-1.4l-6.5-3.7C5,36,2.8,32.5,2.5,29.2
			c-0.1-0.4-0.2-4.2-0.2-4.6v-6.4c0-3.8,2.3-8,5.6-9.9l6.4-3.7l0,0l0,0c0.2-0.1,2.3-1.3,2.5-1.4C18.2,2.4,20,2,21.8,2"/>
	</g>
	<g opacity="4.090909e-02">
		<path fill="#D5D8E2" d="M21.8,2.2L21.8,2.2c1.8,0,3.5,0.4,4.9,1.1C26.9,3.4,29.7,5,30,5.1l5.9,3.4c2.5,1.5,4.5,4.3,5.1,7.3
			c0.2,0.7,0.4,2.8,0.4,3.6c0,0.6-0.1,9.6-0.4,10.1c-0.3,3-2.4,6.3-5,7.9l-6.5,3.7c-0.1,0.1-2.3,1.3-2.5,1.4
			c-1.4,0.7-3.1,1.1-4.9,1.1s-3.5-0.4-4.9-1.1c-0.2-0.1-2.4-1.3-2.6-1.4l-6.5-3.7c-2.8-1.6-5-5.2-5.2-8.5c-0.1-0.4-0.2-4.3-0.2-4.6
			V18c0-3.7,2.2-7.8,5.4-9.6l6.4-3.7l0,0l0,0c0.2-0.1,2.4-1.3,2.6-1.4C18.3,2.7,20,2.2,21.8,2.2"/>
	</g>
	<g opacity="4.318182e-02">
		<path fill="#D5D8E2" d="M21.8,2.5L21.8,2.5c1.8,0,3.5,0.4,4.9,1.1c0.1,0.1,3.1,1.7,3.2,1.8l5.8,3.4c2.4,1.3,4.3,4.1,4.9,6.9
			c0.3,0.8,0.4,2.6,0.4,3.4c0,0.4-0.1,9.8-0.4,10.1c-0.2,3.1-2.3,6.5-4.9,8l-6.5,3.8c-0.1,0.1-2.4,1.3-2.5,1.4
			c-1.3,0.7-3.1,1.1-4.9,1.1S18.4,43,17,42.3c-0.1-0.1-2.4-1.3-2.5-1.4l-6.5-3.7c-2.8-1.6-4.9-5.2-5.1-8.4c-0.1-0.2-0.1-4.2-0.1-4.5
			V18c0-3.5,2.2-7.5,5.2-9.3L14.4,5l0,0l0,0c0.1-0.1,2.4-1.3,2.5-1.4C18.3,2.9,20,2.5,21.8,2.5"/>
	</g>
	<g opacity="4.545455e-02">
		<path fill="#D5D8E2" d="M21.8,2.8L21.8,2.8c1.8,0,3.5,0.4,4.9,1.1c0.1,0,3.1,1.8,3.2,1.8L35.7,9c2.2,1.3,4,3.8,4.7,6.4
			c0.3,0.8,0.4,2.3,0.4,3.1c0,0.3-0.1,10-0.2,10.2c-0.1,3.1-2.2,6.6-4.9,8.1l-6.5,3.8c-0.1,0.1-2.4,1.3-2.5,1.4
			c-1.3,0.7-3.1,1.1-4.9,1.1s-3.4-0.4-4.8-1.1c-0.1,0-2.4-1.3-2.5-1.4l-6.5-3.8c-2.8-1.5-4.9-5.1-5-8.3C3,28.4,3,24.3,3,24.2V18
			c0-3.4,2.2-7.2,5-8.9l6.4-3.7l0,0l0,0c0.1-0.1,2.4-1.4,2.5-1.4C18.3,3.1,20,2.8,21.8,2.8"/>
	</g>
	<g opacity="4.772727e-02">
		<path fill="#D5D8E2" d="M21.8,3L21.8,3c1.8,0,3.5,0.4,4.8,1.1c0.1,0,3.1,1.8,3.2,1.9l5.8,3.4c2.1,1.2,3.7,3.5,4.5,6
			c0.3,0.9,0.4,2.1,0.4,2.9c0,0.1-0.1,10.1-0.1,10.3c-0.1,3.1-2.2,6.6-4.9,8.2l-6.5,3.8c-0.1,0-2.4,1.4-2.5,1.4
			c-1.3,0.7-3.1,1.2-4.8,1.2c-1.8,0-3.4-0.4-4.8-1.1c-0.1,0-2.4-1.3-2.5-1.4l-6.5-3.8c-2.7-1.6-4.8-5.2-4.8-8.4
			c0-0.1-0.1-4.3-0.1-4.3v-6.2c0-3.2,2.1-6.9,4.9-8.6l6.4-3.7l0,0l0,0c0.1,0,2.5-1.4,2.5-1.4C18.4,3.3,20.1,3,21.8,3"/>
	</g>
	<g opacity="5.000000e-02">
		<path fill="#D5D8E2" d="M21.8,3.2c1.8,0,3.4,0.4,4.8,1.2l9,5.1c2.7,1.6,4.8,5.1,4.8,8.3v10.4c0,3.1-2.1,6.7-4.8,8.3l-9,5.1
			c-1.3,0.7-3,1.2-4.8,1.2s-3.4-0.4-4.8-1.2l-9-5.1c-2.7-1.6-4.7-5.1-4.7-8.3V17.8c0-3.1,2-6.7,4.7-8.3L17,4.4
			C18.4,3.6,20.1,3.2,21.8,3.2"/>
	</g>
</g>
<path fill="#FFFFFF" d="M34.8,6.3l-9.6-5.6c-1.4-0.8-3.2-1.3-5.1-1.3S16.4-0.1,15,0.7L5.3,6.3C2.5,8,0.3,11.9,0.3,15.2v11.2
	c0,3.4,2.2,7.2,5.1,9l9.7,5.6c1.4,0.8,3.2,1.3,5.1,1.3s3.7-0.4,5.1-1.3l9.5-5.6c2.9-1.6,5-5.6,5-9V15.2C39.8,11.9,37.7,8,34.8,6.3z"
	/>
<polygon fill="#00259A" points="20.3,31.2 10.1,14.2 30.5,14.2 "/>
<polygon fill="#FFFFFF" points="20.3,24.8 15.8,17.2 24.9,17.2 "/>
</svg>
