<?xml version="1.0" encoding="utf-8"?>
<!-- Generator: Adobe Illustrator 16.0.0, SVG Export Plug-In . SVG Version: 6.00 Build 0)  -->
<!DOCTYPE svg PUBLIC "-//W3C//DTD SVG 1.1//EN" "http://www.w3.org/Graphics/SVG/1.1/DTD/svg11.dtd">
<svg version="1.1" id="Layer_1" xmlns="http://www.w3.org/2000/svg" xmlns:xlink="http://www.w3.org/1999/xlink" x="0px" y="0px"
	 width="53px" height="57.274px" viewBox="0 0 53 57.274" enable-background="new 0 0 53 57.274" xml:space="preserve">
<path fill="#00259A" d="M46.389,9.188L33.549,1.69C31.662,0.6,29.283,0,26.721,0c-2.563,0-4.978,0.6-6.865,1.69L6.886,9.188
	C3.017,11.422,0,16.672,0,21.14v14.995c0,4.468,3.034,9.719,6.903,11.953l12.987,7.496c1.887,1.091,4.34,1.69,6.903,1.69
	c2.562,0,5.013-0.6,6.899-1.69l12.696-7.496C50.26,45.854,53,40.603,53,36.135V21.14C53,16.672,50.258,11.422,46.389,9.188z"/>
<polygon fill="#FFFFFF" points="26.887,42.448 13.259,19.737 40.513,19.737 "/>
<polygon fill="#00259A" points="26.886,33.927 20.771,23.737 33,23.737 "/>
</svg>
