<?xml version="1.0" encoding="utf-8"?>
<!-- Generator: Adobe Illustrator 16.0.0, SVG Export Plug-In . SVG Version: 6.00 Build 0)  -->
<!DOCTYPE svg PUBLIC "-//W3C//DTD SVG 1.1//EN" "http://www.w3.org/Graphics/SVG/1.1/DTD/svg11.dtd">
<svg version="1.1" id="Layer_1" xmlns="http://www.w3.org/2000/svg" xmlns:xlink="http://www.w3.org/1999/xlink" x="0px" y="0px"
	 width="53px" height="57.274px" viewBox="0 0 53 57.274" enable-background="new 0 0 53 57.274" xml:space="preserve">
<path fill="#439E46" d="M46.266,9.188L33.364,1.69C31.477,0.6,29.068,0,26.506,0c-2.564,0-4.993,0.6-6.88,1.69L6.77,9.188
	C2.9,11.422,0,16.672,0,21.14v14.995c0,4.468,2.911,9.719,6.78,11.953l12.926,7.496c1.887,1.091,4.308,1.69,6.871,1.69
	c2.563,0,4.998-0.6,6.886-1.69l12.812-7.496C50.144,45.854,53,40.603,53,36.135V21.14C53,16.672,50.137,11.422,46.266,9.188z"/>
<g>
	<polygon fill="#FFFFFF" points="39.693,36.166 31.001,36.166 26.658,43.688 22.315,36.166 13.622,36.166 17.969,28.638
		13.622,21.109 22.315,21.109 26.658,13.587 31.001,21.109 39.693,21.109 35.348,28.638 	"/>
</g>
</svg>
