<?xml version="1.0" encoding="utf-8"?>
<!-- Generator: Adobe Illustrator 17.1.0, SVG Export Plug-In . SVG Version: 6.00 Build 0)  -->
<!DOCTYPE svg PUBLIC "-//W3C//DTD SVG 1.1//EN" "http://www.w3.org/Graphics/SVG/1.1/DTD/svg11.dtd">
<svg version="1.1" id="Layer_1" xmlns="http://www.w3.org/2000/svg" xmlns:xlink="http://www.w3.org/1999/xlink" x="0px" y="0px"
	 viewBox="0 0 48 50" enable-background="new 0 0 48 50" xml:space="preserve">
<g>
	<g opacity="0">
		<path fill="#D5D8E2" d="M23.9,0c-3.2,0-6.2,0.8-8.8,2.3l0,0l0,0L8.7,6C3.5,9.1,0,15.2,0,21.3v7.4C0,34.8,3.5,41,8.8,44l6.4,3.7
			c2.6,1.5,5.7,2.3,8.8,2.3c3.2,0,6.2-0.8,8.8-2.3l6.4-3.7c5.3-3,8.8-9.2,8.8-15.3v-7.4c0-6.1-3.5-12.3-8.8-15.3l-6.4-3.7
			C30.2,0.8,27.1,0,23.9,0L23.9,0z"/>
	</g>
	<g opacity="2.272727e-03">
		<path fill="#D5D8E2" d="M23.9,0.2L23.9,0.2c1.9,0,3.7,0.3,5.4,0.8c1.2,0.4,2.4,0.9,3.4,1.5l6.4,3.7c5.1,3,8.6,8.9,8.6,14.9
			c0,0,0,7.2,0,7.2c0,3-0.9,6.4-2.4,9c-1.5,2.6-3.6,4.9-6.2,6.4l-6.4,3.7c-1,0.6-2.3,1.2-3.4,1.5c-1.7,0.5-3.5,0.8-5.3,0.8
			c-1.8,0-3.6-0.3-5.3-0.8c-1.2-0.4-2.4-0.9-3.5-1.5l-6.3-3.7c-3.5-2-6.3-5.6-7.6-9.5c-0.6-1.8-1-3.8-1-5.7v-7.3c0-6,3.4-12,8.5-15
			l6.3-3.7l0,0l0,0c1-0.6,2.3-1.2,3.4-1.5C20.3,0.5,22.1,0.2,23.9,0.2"/>
	</g>
	<g opacity="4.545454e-03">
		<path fill="#D5D8E2" d="M23.9,0.5L23.9,0.5c1.9,0,3.7,0.3,5.3,0.8c1.1,0.3,2.4,0.9,3.4,1.5L39,6.5c5,2.9,8.3,8.7,8.4,14.4
			c0,0.1,0,6.9,0,7c0,2.8-0.8,6.6-2.3,9.1c-1.4,2.6-3.6,5-6.1,6.5l-6.4,3.7c-1,0.6-2.3,1.2-3.4,1.5c-1.7,0.5-3.5,0.8-5.3,0.8
			c-1.8,0-3.6-0.3-5.3-0.8c-1.1-0.3-2.5-1-3.4-1.5l-6.3-3.7c-3.5-2-6.2-5.6-7.5-9.5c-0.6-1.7-0.9-3.9-0.9-5.6v-7.3
			c0-5.8,3.4-11.7,8.3-14.6l6.3-3.7l0,0l0,0c1-0.6,2.3-1.2,3.4-1.5C20.3,0.7,22.1,0.5,23.9,0.5"/>
	</g>
	<g opacity="6.818182e-03">
		<path fill="#D5D8E2" d="M23.9,0.7L23.9,0.7c1.9,0,3.6,0.3,5.3,0.8c1.1,0.3,2.5,1,3.4,1.5L39,6.7c4.8,2.8,8.1,8.4,8.2,14
			c0,0.1,0.1,6.6,0.1,6.8c0,2.7-0.8,6.8-2.2,9.2c-1.3,2.7-3.5,5.1-6.1,6.6l-6.3,3.7c-0.9,0.5-2.4,1.2-3.4,1.5
			c-1.7,0.6-3.4,0.8-5.3,0.8c-1.8,0-3.6-0.3-5.3-0.8c-1.1-0.3-2.5-1-3.4-1.6l-6.3-3.6c-3.5-2-6.1-5.5-7.3-9.4
			C1,32.3,0.7,30,0.7,28.3v-7.2C0.7,15.4,4,9.6,8.9,6.8l6.3-3.7l0,0l0,0c0.9-0.5,2.4-1.2,3.4-1.5C20.3,1,22.1,0.7,23.9,0.7"/>
	</g>
	<g opacity="9.090909e-03">
		<path fill="#D5D8E2" d="M23.9,0.9L23.9,0.9c1.8,0,3.6,0.3,5.3,0.9c1,0.3,2.5,1,3.4,1.5L38.9,7c4.7,2.7,7.9,8.1,8,13.5
			c0.1,0.2,0.1,6.4,0.1,6.6c0,2.6-0.8,7-2.1,9.2c-1.3,2.7-3.4,5.2-6,6.7l-6.3,3.7c-0.9,0.5-2.4,1.2-3.4,1.6
			c-1.6,0.6-3.4,0.9-5.3,0.9c-1.8,0-3.6-0.3-5.2-0.9c-1-0.3-2.5-1-3.4-1.6L9,43c-3.4-2-6.1-5.5-7.2-9.3C1.3,32.1,1,29.7,1,28.1V21
			C1,15.5,4.2,9.8,9,7l6.2-3.6l0,0l0,0c0.9-0.5,2.4-1.3,3.4-1.6C20.3,1.2,22.1,0.9,23.9,0.9"/>
	</g>
	<g opacity="1.136364e-02">
		<path fill="#D5D8E2" d="M23.9,1.2L23.9,1.2c1.8,0,3.6,0.3,5.2,0.9c0.9,0.3,2.5,1.1,3.4,1.6l6.3,3.6c4.5,2.6,7.6,7.8,7.8,13.1
			c0.1,0.2,0.1,6.1,0.1,6.3c0,2.4-0.7,7.2-2,9.3c-1.2,2.7-3.3,5.3-5.9,6.8l-6.3,3.6c-0.8,0.5-2.4,1.3-3.4,1.6
			c-1.6,0.6-3.4,0.9-5.2,0.9c-1.8,0-3.6-0.3-5.2-0.9c-0.9-0.3-2.5-1.1-3.4-1.6l-6.2-3.6c-3.4-2-6-5.5-7.1-9.3
			c-0.5-1.4-0.8-4-0.8-5.5v-7c0-5.4,3.2-11,7.8-13.7l6.2-3.6l0,0l0,0c0.8-0.5,2.4-1.3,3.4-1.6C20.3,1.5,22.1,1.2,23.9,1.2"/>
	</g>
	<g opacity="1.363636e-02">
		<path fill="#D5D8E2" d="M23.9,1.4L23.9,1.4c1.8,0,3.6,0.3,5.2,0.9c0.9,0.3,2.6,1.1,3.3,1.6l6.3,3.6c4.4,2.5,7.4,7.6,7.6,12.6
			c0.1,0.2,0.1,5.9,0.1,6.1c0,2.3-0.7,7.4-1.8,9.4c-1.1,2.7-3.3,5.4-5.9,6.9l-6.3,3.6c-0.8,0.5-2.5,1.3-3.3,1.6
			c-1.6,0.6-3.4,0.9-5.2,0.9c-1.8,0-3.6-0.3-5.2-0.9c-0.9-0.3-2.6-1.1-3.4-1.6l-6.2-3.6c-3.3-1.9-5.9-5.5-6.9-9.2
			c-0.5-1.3-0.7-4-0.7-5.4v-7c0-5.3,3.1-10.7,7.6-13.4l6.2-3.6l0,0l0,0c0.8-0.5,2.5-1.3,3.4-1.6C20.3,1.7,22.1,1.4,23.9,1.4"/>
	</g>
	<g opacity="1.590909e-02">
		<path fill="#D5D8E2" d="M23.9,1.6L23.9,1.6c1.8,0,3.6,0.3,5.2,0.9c0.8,0.3,2.6,1.2,3.3,1.6l6.3,3.6c4.2,2.4,7.1,7.3,7.4,12.2
			c0.1,0.3,0.2,5.6,0.2,5.9c0,2.1-0.6,7.6-1.7,9.4c-1.1,2.8-3.2,5.4-5.8,6.9l-6.2,3.6c-0.7,0.4-2.5,1.3-3.3,1.6
			c-1.6,0.6-3.3,0.9-5.2,0.9c-1.8,0-3.6-0.3-5.2-0.9c-0.8-0.3-2.6-1.2-3.3-1.6l-6.2-3.6c-3.3-1.9-5.8-5.5-6.8-9.2
			c-0.4-1.3-0.7-4-0.7-5.4v-6.9c0-5.2,3-10.5,7.4-13l6.2-3.6l0,0l0,0c0.7-0.4,2.5-1.3,3.3-1.6C20.3,2,22.1,1.6,23.9,1.6"/>
	</g>
	<g opacity="1.818182e-02">
		<path fill="#D5D8E2" d="M23.9,1.9L23.9,1.9c1.8,0,3.6,0.3,5.2,0.9C29.9,3,31.7,4,32.4,4.4L38.6,8c4.1,2.3,6.9,7,7.2,11.8
			c0.1,0.3,0.2,5.4,0.2,5.7c0,2-0.6,7.8-1.6,9.5c-1,2.8-3.1,5.5-5.7,7l-6.2,3.6c-0.7,0.4-2.5,1.4-3.3,1.6c-1.6,0.6-3.3,0.9-5.2,0.9
			c-1.8,0-3.6-0.3-5.1-0.9c-0.8-0.2-2.6-1.2-3.3-1.6L9.3,42c-3.3-1.9-5.7-5.4-6.6-9.1C2.3,31.7,2,28.8,2,27.6v-6.8
			C2,15.7,5,10.5,9.3,8l6.1-3.6l0,0l0,0C16.1,4,18,3.1,18.8,2.8C20.3,2.2,22.1,1.9,23.9,1.9"/>
	</g>
	<g opacity="2.045454e-02">
		<path fill="#D5D8E2" d="M23.9,2.1L23.9,2.1c1.8,0,3.6,0.3,5.1,0.9c0.7,0.2,2.6,1.2,3.3,1.6l6.2,3.6c3.9,2.3,6.7,6.8,7,11.3
			c0.1,0.4,0.2,5.1,0.2,5.5c0,1.8-0.5,7.9-1.5,9.6c-0.9,2.8-3,5.6-5.7,7.1l-6.2,3.6c-0.6,0.4-2.6,1.4-3.3,1.6
			c-1.5,0.6-3.3,0.9-5.1,0.9s-3.6-0.3-5.1-0.9c-0.7-0.2-2.7-1.2-3.3-1.6l-6.2-3.6c-3.2-1.9-5.7-5.4-6.5-9c-0.4-1.1-0.6-4.1-0.6-5.3
			v-6.7c0-4.9,2.9-10,7.1-12.4l6.1-3.6l0,0l0,0c0.6-0.4,2.6-1.4,3.3-1.6C20.3,2.4,22.1,2.1,23.9,2.1"/>
	</g>
	<g opacity="2.272727e-02">
		<path fill="#D5D8E2" d="M23.9,2.4L23.9,2.4c1.8,0,3.6,0.3,5.1,1c0.7,0.2,2.7,1.3,3.3,1.6l6.2,3.6c3.7,2.2,6.4,6.5,6.8,10.9
			c0.1,0.4,0.2,4.9,0.2,5.3c0,1.7-0.5,8.1-1.4,9.6c-0.8,2.8-3,5.7-5.6,7.2L32.3,45c-0.6,0.3-2.6,1.4-3.3,1.6c-1.5,0.6-3.3,1-5.1,1
			c-1.8,0-3.6-0.3-5.1-1c-0.7-0.2-2.7-1.3-3.3-1.6l-6.1-3.6c-3.2-1.8-5.6-5.4-6.4-9c-0.4-1-0.5-4.1-0.5-5.2v-6.7
			c0-4.7,2.8-9.7,6.9-12.1L15.5,5l0,0l0,0c0.6-0.3,2.6-1.4,3.3-1.6C20.3,2.7,22.1,2.4,23.9,2.4"/>
	</g>
	<g opacity="2.500000e-02">
		<path fill="#D5D8E2" d="M23.9,2.6L23.9,2.6c1.8,0,3.6,0.3,5.1,1c0.6,0.2,2.7,1.3,3.2,1.6l6.2,3.6C42,10.8,44.6,15,45,19.2
			c0.2,0.5,0.2,4.6,0.2,5.1c0,1.6-0.5,8.3-1.3,9.7c-0.8,2.8-2.9,5.8-5.5,7.3l-6.2,3.6c-0.5,0.3-2.6,1.5-3.3,1.6
			c-1.5,0.6-3.3,1-5.1,1c-1.8,0-3.5-0.3-5.1-1c-0.6-0.2-2.7-1.3-3.3-1.6l-6.1-3.6c-3.1-1.8-5.5-5.4-6.2-8.9
			c-0.3-0.9-0.5-4.2-0.5-5.2v-6.6c0-4.6,2.7-9.5,6.7-11.8l6.1-3.5l0,0l0,0c0.5-0.3,2.7-1.5,3.3-1.6C20.3,2.9,22.1,2.6,23.9,2.6"/>
	</g>
	<g opacity="2.727273e-02">
		<path fill="#D5D8E2" d="M23.9,2.8L23.9,2.8c1.8,0,3.6,0.3,5,1c0.6,0.2,2.7,1.4,3.2,1.6L38.3,9c3.4,2,5.9,6,6.3,10
			c0.2,0.5,0.3,4.4,0.3,4.9c0,1.4-0.4,8.5-1.2,9.7c-0.7,2.9-2.8,5.9-5.4,7.4l-6.1,3.5c-0.5,0.3-2.7,1.5-3.2,1.7c-1.5,0.7-3.2,1-5,1
			c-1.8,0-3.5-0.3-5-1c-0.6-0.2-2.8-1.4-3.2-1.7L9.6,41c-3.1-1.8-5.4-5.4-6.1-8.9C3.2,31.3,3,27.9,3,27v-6.5C3,16,5.7,11.3,9.6,9
			l6-3.5l0,0l0,0c0.5-0.3,2.7-1.5,3.2-1.7C20.4,3.2,22.1,2.8,23.9,2.8"/>
	</g>
	<g opacity="2.954545e-02">
		<path fill="#D5D8E2" d="M23.9,3.1L23.9,3.1c1.8,0,3.5,0.4,5,1c0.5,0.2,2.8,1.4,3.2,1.7l6.1,3.5c3.3,1.9,5.7,5.7,6.1,9.5
			c0.2,0.5,0.3,4.1,0.3,4.6c0,1.3-0.4,8.7-1,9.8c-0.6,2.9-2.7,6-5.4,7.5l-6.1,3.5c-0.4,0.3-2.7,1.5-3.2,1.7c-1.5,0.7-3.2,1-5,1
			c-1.8,0-3.5-0.4-5-1c-0.5-0.2-2.8-1.4-3.2-1.7l-6.1-3.5c-3-1.8-5.4-5.4-5.9-8.8c-0.3-0.8-0.4-4.3-0.4-5.1v-6.5
			c0-4.3,2.6-9,6.3-11.1l6-3.5l0,0l0,0c0.4-0.3,2.7-1.5,3.2-1.7C20.4,3.4,22.1,3.1,23.9,3.1"/>
	</g>
	<g opacity="3.181818e-02">
		<path fill="#D5D8E2" d="M23.9,3.3L23.9,3.3c1.8,0,3.5,0.4,5,1c0.4,0.1,2.8,1.4,3.2,1.7l6.1,3.5c3.1,1.8,5.4,5.4,5.9,9.1
			c0.2,0.6,0.3,3.9,0.3,4.4c0,1.1-0.3,8.9-0.9,9.9c-0.6,2.9-2.7,6-5.3,7.6L32.1,44c-0.4,0.2-2.8,1.5-3.2,1.7c-1.5,0.7-3.2,1-5,1
			c-1.8,0-3.5-0.4-5-1c-0.4-0.1-2.8-1.5-3.2-1.7l-6.1-3.5c-3-1.7-5.3-5.3-5.8-8.7c-0.2-0.7-0.4-4.3-0.4-5v-6.4
			c0-4.2,2.5-8.7,6.1-10.8l6-3.5l0,0l0,0c0.4-0.2,2.8-1.6,3.2-1.7C20.4,3.7,22.1,3.3,23.9,3.3"/>
	</g>
	<g opacity="3.409091e-02">
		<path fill="#D5D8E2" d="M23.9,3.5L23.9,3.5c1.8,0,3.5,0.4,5,1.1c0.4,0.1,2.8,1.5,3.2,1.7l6.1,3.5c3,1.7,5.2,5.2,5.7,8.6
			c0.2,0.6,0.3,3.6,0.3,4.2c0,1-0.3,9.1-0.8,9.9c-0.5,2.9-2.6,6.1-5.2,7.6l-6.1,3.5c-0.3,0.2-2.8,1.6-3.2,1.7
			c-1.4,0.7-3.2,1.1-5,1.1c-1.8,0-3.5-0.4-4.9-1.1c-0.4-0.1-2.8-1.5-3.2-1.7l-6-3.5c-3-1.7-5.2-5.3-5.7-8.7c-0.2-0.6-0.3-4.3-0.3-5
			v-6.3c0-4.1,2.5-8.5,6-10.5l6-3.5l0,0l0,0c0.3-0.2,2.8-1.6,3.2-1.7C20.4,3.9,22.1,3.5,23.9,3.5"/>
	</g>
	<g opacity="3.636364e-02">
		<path fill="#D5D8E2" d="M23.9,3.8L23.9,3.8c1.8,0,3.5,0.4,4.9,1.1c0.3,0.1,2.9,1.5,3.1,1.7l6.1,3.5c2.8,1.6,5,4.9,5.5,8.2
			c0.2,0.7,0.3,3.4,0.3,4c0,0.9-0.3,9.3-0.7,10c-0.4,3-2.5,6.2-5.2,7.7l-6,3.5c-0.3,0.2-2.8,1.6-3.2,1.7c-1.4,0.7-3.1,1.1-4.9,1.1
			c-1.8,0-3.5-0.4-4.9-1.1c-0.3-0.1-2.9-1.5-3.2-1.7l-6-3.5c-2.9-1.7-5.1-5.3-5.5-8.6c-0.2-0.5-0.3-4.4-0.3-4.9v-6.2
			c0-3.9,2.4-8.2,5.8-10.2l6-3.5l0,0h0c0.3-0.2,2.8-1.6,3.2-1.7C20.4,4.1,22.1,3.8,23.9,3.8"/>
	</g>
	<g opacity="3.863636e-02">
		<path fill="#D5D8E2" d="M23.9,4L23.9,4c1.8,0,3.5,0.4,4.9,1.1c0.3,0.1,2.9,1.6,3.1,1.7l6.1,3.5c2.7,1.5,4.7,4.6,5.3,7.8
			c0.2,0.7,0.4,3.1,0.4,3.8c0,0.7-0.2,9.4-0.6,10.1c-0.4,3-2.4,6.3-5.1,7.8l-6,3.5c-0.2,0.1-2.9,1.6-3.1,1.7
			c-1.4,0.7-3.1,1.1-4.9,1.1s-3.5-0.4-4.9-1.1c-0.3-0.1-2.9-1.6-3.1-1.7l-6-3.5c-2.9-1.7-5.1-5.3-5.4-8.6c-0.1-0.4-0.2-4.4-0.2-4.8
			v-6.2c0-3.8,2.3-8,5.6-9.9l5.9-3.5h0h0c0.2-0.1,2.9-1.6,3.2-1.7C20.4,4.4,22.1,4,23.9,4"/>
	</g>
	<g opacity="4.090909e-02">
		<path fill="#D5D8E2" d="M23.9,4.2L23.9,4.2c1.8,0,3.5,0.4,4.9,1.1C29,5.4,31.7,6.9,31.9,7l6,3.5c2.5,1.5,4.5,4.3,5.1,7.3
			c0.3,0.7,0.4,2.9,0.4,3.6c0,0.6-0.2,9.6-0.5,10.1c-0.3,3-2.4,6.4-5,7.9l-6,3.5c-0.2,0.1-2.9,1.7-3.1,1.7c-1.4,0.7-3.1,1.1-4.9,1.1
			c-1.8,0-3.5-0.4-4.9-1.1c-0.2-0.1-2.9-1.6-3.1-1.7l-6-3.5c-2.8-1.6-5-5.3-5.2-8.5c-0.1-0.3-0.2-4.4-0.2-4.8v-6.1
			c0-3.6,2.3-7.7,5.4-9.5l5.9-3.4h0h0C16.1,7,18.8,5.4,19,5.3C20.4,4.6,22.1,4.2,23.9,4.2"/>
	</g>
	<g opacity="4.318182e-02">
		<path fill="#D5D8E2" d="M23.9,4.5L23.9,4.5c1.8,0,3.5,0.4,4.9,1.1c0.2,0.1,2.9,1.6,3.1,1.7l6,3.5c2.4,1.4,4.2,4.1,4.9,6.9
			c0.3,0.8,0.4,2.6,0.4,3.4c0,0.4-0.1,9.8-0.3,10.2c-0.2,3-2.3,6.5-5,8l-6,3.5c-0.1,0.1-2.9,1.7-3.1,1.7c-1.4,0.7-3.1,1.1-4.8,1.1
			s-3.5-0.4-4.8-1.1c-0.2-0.1-3-1.7-3.1-1.7l-6-3.5c-2.8-1.6-4.9-5.2-5.1-8.5c-0.1-0.3-0.1-4.5-0.1-4.7v-6c0-3.5,2.2-7.5,5.2-9.2
			l5.9-3.4l0,0l0,0c0.1-0.1,3-1.7,3.1-1.8C20.4,4.9,22.1,4.5,23.9,4.5"/>
	</g>
	<g opacity="4.545455e-02">
		<path fill="#D5D8E2" d="M23.9,4.7L23.9,4.7c1.8,0,3.5,0.4,4.8,1.1c0.1,0,3,1.7,3.1,1.7l6,3.5c2.2,1.3,4,3.8,4.7,6.4
			c0.3,0.8,0.4,2.4,0.4,3.1c0,0.3-0.1,10-0.2,10.3c-0.1,3-2.2,6.6-4.9,8.1l-6,3.4c-0.1,0.1-3,1.7-3.1,1.7c-1.3,0.7-3,1.1-4.8,1.1
			c-1.8,0-3.5-0.4-4.8-1.1c-0.1,0-3-1.7-3.1-1.8L10.1,39c-2.8-1.6-4.8-5.2-5-8.4c-0.1-0.2-0.1-4.5-0.1-4.7v-5.9c0-3.4,2.1-7.2,5-8.9
			L16,7.6l0,0l0,0c0.1-0.1,3-1.7,3.1-1.8C20.4,5.1,22.1,4.7,23.9,4.7"/>
	</g>
	<g opacity="4.772727e-02">
		<path fill="#D5D8E2" d="M23.9,4.9L23.9,4.9c1.8,0,3.5,0.4,4.8,1.2c0.1,0,3,1.7,3,1.7l6,3.4c2.1,1.2,3.8,3.5,4.5,6
			c0.3,0.9,0.5,2.1,0.5,2.9c0,0.1,0,10.2-0.1,10.3c-0.1,3.1-2.2,6.6-4.8,8.2l-5.9,3.4c0,0-3,1.7-3.1,1.8c-1.3,0.7-3,1.2-4.8,1.2
			c-1.8,0-3.5-0.4-4.8-1.2c-0.1,0-3-1.7-3.1-1.8l-5.9-3.4c-2.7-1.6-4.7-5.2-4.8-8.3c0-0.1,0-4.6,0-4.6v-5.9c0-3.2,2.1-7,4.9-8.6
			L16,7.9l0,0l0,0c0,0,3-1.8,3.1-1.8C20.4,5.3,22.1,4.9,23.9,4.9"/>
	</g>
	<g opacity="5.000000e-02">
		<path fill="#D5D8E2" d="M23.9,5.2c1.8,0,3.5,0.4,4.8,1.2l9,5.2c2.7,1.5,4.8,5.2,4.8,8.3v10.4c0,3.1-2.1,6.7-4.8,8.3l-9,5.2
			c-1.3,0.8-3,1.2-4.8,1.2s-3.4-0.4-4.8-1.2l-8.9-5.2c-2.7-1.5-4.7-5.2-4.7-8.3V19.8c0-3.1,2-6.7,4.7-8.3l8.9-5.2
			C20.4,5.6,22.1,5.2,23.9,5.2"/>
	</g>
</g>
<path fill="#FFFFFF" d="M37.7,9.2L28,3.6c-1.4-0.8-3.2-1.3-5.1-1.3s-3.7,0.5-5.2,1.3L7.9,9.2c-2.9,1.7-5.2,5.6-5.2,9v11.3
	c0,3.4,2.3,7.3,5.2,9l9.8,5.6c1.4,0.8,3.3,1.3,5.2,1.3s3.8-0.5,5.2-1.3l9.6-5.6c2.9-1.7,5.1-5.6,5.1-9V18.2
	C42.8,14.8,40.6,10.9,37.7,9.2z"/>
<path fill="#00259A" d="M11.1,22.9h-1V22H11c0.2,0,0.3-0.1,0.3-0.3v-1.5c0-0.2-0.1-0.3-0.3-0.3c-0.8,0-1.3,0.1-1.2,0.3v5.2h-1v-6.5
	h0.9v0.3c0-0.2,0.4-0.3,1.3-0.3c0.8,0,1.3,0.3,1.3,0.8v2.5C12.3,22.6,11.9,22.9,11.1,22.9z"/>
<path fill="#00259A" d="M12.8,19.2h2.4v0.9h-1.4v2.2h0.4v1h-0.4c-0.6,0-1-0.2-1-0.6V19.2z"/>
<path fill="#00259A" d="M22.2,22.5V20c0-0.5,0.4-0.8,1.2-0.8c0.8,0,1.3,0.1,1.2,0.3l0-0.6h-0.5v-0.9h1.4v5.3h-1v-2.8
	c0-0.2-0.4-0.3-1.2-0.3c-0.2,0-0.3,0.1-0.3,0.3v1.5c0,0.2,0.1,0.3,0.3,0.3h0.9v1h-1C22.6,23.2,22.2,23,22.2,22.5z"/>
<path fill="#00259A" d="M28.1,19.2v0.9c-0.6,0.4-0.9,0.7-0.9,1V22c0,0.2,0.2,0.3,0.6,0.3h1v-3.1h1v4h-1.9c-1,0-1.5-0.3-1.5-0.8V21
	c0-0.5,0.2-0.8,0.6-1h-0.6v-0.9L28.1,19.2L28.1,19.2L28.1,19.2z"/>
<path fill="#00259A" d="M31.2,22.3h1.6v-0.4h1v0.8c0,0.4-0.4,0.6-1,0.6h-1.6c-0.6,0-1-0.2-1-0.6v-2.8c0-0.4,0.3-0.6,1-0.6h1.6
	c0.6,0,0.9,0.2,0.9,0.6v0.8h-0.9v-0.5h-1.6V22.3z"/>
<path fill="#00259A" d="M34.4,18.2h0.9v1h0.5v0.9h-0.5v2.2h0.8v1h-0.8c-0.6,0-0.9-0.2-0.9-0.6L34.4,18.2L34.4,18.2z"/>
<path fill="#00259A" d="M10,24.1c0-0.4,0.3-0.6,1-0.6l1.3,0v0.9H11v1.2h0.5v0.9H11v2.9h-1C10,29.4,10,24.1,10,24.1z"/>
<path fill="#00259A" d="M11.8,28v-2.8c0-0.4,0.3-0.6,1-0.6h1.5c0.6,0,1,0.2,1,0.6v2.8c0,0.4-0.3,0.6-1,0.6h-1.5
	C12.1,28.6,11.8,28.4,11.8,28z M12.8,27.7h1.5v-2.2h-1.5V27.7z"/>
<path fill="#00259A" d="M22.2,24.6h1.1l1.4,2.2v-3.4h1v5.2h-1.1l-1.4-2.2v2.2h-0.9L22.2,24.6L22.2,24.6z"/>
<path fill="#00259A" d="M26.2,27.9v-2.5c0-0.5,0.4-0.8,1.3-0.8c0.8,0,1.3,0.1,1.3,0.3l0-0.6h-0.5v-0.8h1.4v5.2h-0.9v-2.8
	c0-0.2-0.4-0.3-1.3-0.3c-0.2,0-0.3,0.1-0.3,0.3v1.5c0,0.2,0.1,0.3,0.3,0.3h0.9v0.9h-1C26.6,28.6,26.2,28.4,26.2,27.9z"/>
<path fill="#00259A" d="M30.3,24.6h2.4v0.9h-1.4v2.2h0.4v0.9h-0.4c-0.6,0-1-0.2-1-0.6C30.3,28,30.3,24.6,30.3,24.6z"/>
<path fill="#00259A" d="M34.5,24.6v0.9c-0.6,0.4-0.9,0.7-0.9,1v0.9c0,0.2,0.2,0.3,0.6,0.3h1v-3.1h1v4.1c0,0.8-0.3,1.3-1,1.3h-1.3V29
	h1c0.2,0,0.3-0.1,0.3-0.3h-1c-1,0-1.5-0.3-1.5-0.8v-1.4c0-0.5,0.2-0.8,0.6-1h-3v-1H34.5z"/>
<path fill="#00259A" d="M20.5,24.5v2l-2,1.1l-2-1.1v-2.3l2.2-1.3c0.2-0.1,0.3-0.3,0.3-0.4l0-1.6h-1v1.3l-1.1,0.6l-0.5-0.3v-2.3
	l2-1.1l2,1.1v2.3l-2.2,1.3C17.6,24.4,17,24.8,17,26v0.3h1V26c0-0.7,0.2-0.8,1-1.2l2.4-1.4c0.2-0.1,0.2-0.3,0.2-0.4V20
	c0-0.2-0.1-0.3-0.2-0.4l-2.5-1.4c-0.2-0.1-0.3-0.1-0.5,0l-2.5,1.4c-0.2,0.1-0.3,0.3-0.3,0.4v2.8c0,0.2,0.1,0.4,0.3,0.4l0.2,0.1
	l-0.2,0.1c-0.2,0.1-0.3,0.3-0.3,0.4v2.8c0,0.2,0.2,0.4,0.3,0.4l2.5,1.4c0.1,0.1,0.2,0.1,0.3,0.1c0.1,0,0.2,0,0.3-0.1l2.4-1.4
	c0.2-0.1,0.2-0.3,0.2-0.4v-2.3L20.5,24.5L20.5,24.5L20.5,24.5z"/>
</svg>
