<?xml version="1.0" encoding="utf-8"?>
<!-- Generator: Adobe Illustrator 16.0.0, SVG Export Plug-In . SVG Version: 6.00 Build 0)  -->
<!DOCTYPE svg PUBLIC "-//W3C//DTD SVG 1.1//EN" "http://www.w3.org/Graphics/SVG/1.1/DTD/svg11.dtd">
<svg version="1.1" id="Layer_1" xmlns="http://www.w3.org/2000/svg" xmlns:xlink="http://www.w3.org/1999/xlink" x="0px" y="0px"
	 width="155.907px" height="167.569px" viewBox="0 0 155.907 167.569" enable-background="new 0 0 155.907 167.569"
	 xml:space="preserve">
<path fill="#FFFFFF" d="M136.127,26.879L98.342,4.943C92.818,1.755,85.752,0,78.254,0S63.638,1.755,58.115,4.943l-37.96,21.936
	C8.834,33.416,0,48.777,0,61.85v43.872c0,13.072,8.859,28.433,20.182,34.97l37.989,21.936c5.521,3.188,12.69,4.942,20.189,4.942
	c7.495,0,14.665-1.755,20.188-4.942l37.581-21.936c11.321-6.537,19.778-21.897,19.778-34.97V61.85
	C155.907,48.777,147.45,33.417,136.127,26.879z"/>
<path fill="#00259A" d="M32.397,80.183h-3.696l-0.025-3.498h3.611c0.811,0,1.223-0.465,1.231-1.293l0.013-6.013
	c0.016-0.756-0.322-1.168-1.134-1.226c-3.253-0.023-5.072,0.367-4.781,1.189v20.166h-3.788V64.446h3.645l0.021,1.252
	c-0.032-0.854,1.592-1.267,4.854-1.226c3.25,0.047,4.888,1.073,4.888,3.089v9.717C37.235,79.252,35.607,80.183,32.397,80.183z"/>
<path fill="#00259A" d="M39.275,65.741l9.328,0.012v3.645l-5.539,0.037v8.523l1.748-0.013v3.695h-1.712
	c-2.47,0-3.825-0.821-3.825-2.414V65.741z"/>
<path fill="#00259A" d="M75.706,78.604v-9.718c0-2.017,1.589-3.049,4.842-3.097c3.258-0.042,4.853,0.296,4.821,1.15l0.054-2.494
	h-1.846v-3.5h5.536v20.693h-3.787V70.666c0-0.82-1.577-1.219-4.829-1.194c-0.812,0.056-1.205,0.464-1.188,1.219l0.015,5.945
	c0.007,0.83,0.422,1.215,1.235,1.215h3.609l-0.025,3.788h-3.693C77.236,81.639,75.706,80.587,75.706,78.604z"/>
<path fill="#00259A" d="M98.762,65.901l0.024,3.564c-2.415,1.626-3.625,2.827-3.634,3.654l-0.013,3.548
	c-0.016,0.755,0.708,1.183,2.169,1.183h3.755v-11.95h3.789v15.738h-7.493c-3.936,0-5.915-1.141-5.915-3.158v-5.365
	c0-1.982,0.715-3.213,2.396-3.693l-2.396,0.023v-3.545H98.762z"/>
<path fill="#00259A" d="M110.973,77.851h6.119v-1.747l3.79,0.012v3.011c0,1.634-1.356,2.512-3.846,2.512h-6.069
	c-2.449,0-3.783-0.882-3.783-2.524V68.228c0-1.642,1.334-2.327,3.783-2.327h6.084c2.438,0,3.539,0.66,3.539,2.253v3.284h-3.498V69.4
	h-6.119V77.851z"/>
<path fill="#00259A" d="M123.214,62.113h3.496v3.664l1.919,0.036l0.017,3.548l-1.936,0.024v8.465h3.08l0.012,3.742l-2.977,0.004
	c-2.455,0-3.611-0.779-3.611-2.372V62.113z"/>
<path fill="#00259A" d="M28.201,84.831c0-1.592,1.261-2.389,3.715-2.389l5.149-0.074l0.011,3.644h-5.088v4.55l1.902,0.012
	l-0.012,3.56l-1.891,0.037v11.369h-3.787V84.831z"/>
<path fill="#00259A" d="M35.195,100.298V89.336c0-1.617,1.277-2.449,3.716-2.449h6.032c2.444,0,3.66,0.844,3.66,2.486v10.985
	c0,1.576-1.207,2.266-3.686,2.266h-5.994C36.476,102.624,35.195,101.914,35.195,100.298z M38.984,99.127h5.981l-0.011-8.451h-5.971
	V99.127z"/>
<path fill="#00259A" d="M75.631,86.89l4.27,0.042l5.474,8.608l0.04-13.113l3.699,0.03v20.167h-4.35l-5.558-8.435v8.435h-3.562
	L75.631,86.89z"/>
<path fill="#00259A" d="M91.444,99.748V90.03c0-2.015,1.67-3.048,4.92-3.097c3.261-0.041,4.896,0.363,4.861,1.217l0.096-2.43h-2.007
	v-3.207h5.538v20.109h-3.498V91.811c0-0.82-1.642-1.219-4.894-1.195c-0.813,0.059-1.238,0.463-1.221,1.221l-0.001,6.011
	c0.007,0.829,0.405,1.28,1.219,1.28h3.607l-0.024,3.497h-3.693C93.136,102.624,91.444,101.732,91.444,99.748z"/>
<path fill="#00259A" d="M107.184,86.886l9.326,0.012v3.646l-5.537,0.037v8.521l1.747-0.012v3.534h-1.719
	c-2.469,0-3.817-0.661-3.817-2.254V86.886z"/>
<path fill="#00259A" d="M123.714,86.887l0.023,3.627c-2.414,1.623-3.626,2.855-3.634,3.684l-0.012,3.648
	c-0.017,0.754,0.707,0.989,2.171,1.281h3.866v-12.24h3.788v15.799c0,3.275-1.337,4.895-3.767,4.895h-4.979v-3.627l3.747-0.018
	c0.738,0.008,1.135-0.437,1.135-1.312h-3.743c-3.934,0-5.801-1.019-5.801-3.034v-5.364c0-1.997,0.714-3.216,2.396-3.695
	l-11.722,0.024v-3.668H123.714z"/>
<path fill="#00259A" d="M69.296,86.594v7.822l-7.577,4.389l-7.58-4.389v-8.889l8.734-4.898c0.6-0.34,1.068-0.975,1.07-1.664
	l0.098-6.195l-3.781,0.003v4.989l-4.395,2.405l-2.017-1.001v-8.823l7.87-4.448l7.868,4.448v8.871l-8.445,4.968
	c-3.39,1.958-5.546,3.4-5.546,8.104v1.305h3.791v-1.305c0-2.646,0.756-3.057,3.751-4.785c0.006-0.004,9.376-5.543,9.376-5.543
	c0.582-0.346,0.861-0.974,0.861-1.652v-11.08c0-0.691-0.254-1.327-0.854-1.668l-9.672-5.539c-0.59-0.335-1.281-0.335-1.869,0
	l-9.842,5.539c-0.6,0.342-1.08,0.978-1.08,1.668v11.08c0,0.704,0.509,1.352,1.125,1.687l0.845,0.425l-0.782,0.343
	c-0.619,0.357-1.188,1.016-1.188,1.729v11.08c0,0.714,0.601,1.372,1.217,1.729l9.706,5.539c0.308,0.18,0.709,0.268,1.052,0.268
	c0.344,0,0.717-0.088,1.025-0.268l9.459-5.539c0.615-0.357,0.857-1.016,0.857-1.729v-8.976H69.296z"/>
</svg>
