<?xml version="1.0" encoding="utf-8"?>
<!-- Generator: Adobe Illustrator 17.1.0, SVG Export Plug-In . SVG Version: 6.00 Build 0)  -->
<!DOCTYPE svg PUBLIC "-//W3C//DTD SVG 1.1//EN" "http://www.w3.org/Graphics/SVG/1.1/DTD/svg11.dtd">
<svg version="1.1" id="Layer_1" xmlns="http://www.w3.org/2000/svg" xmlns:xlink="http://www.w3.org/1999/xlink" x="0px" y="0px"
	 viewBox="0 0 155.9 167.6" enable-background="new 0 0 155.9 167.6" xml:space="preserve">
<path fill="#FFFFFF" d="M136.1,26.9L98.3,4.9C92.8,1.8,85.8,0,78.3,0c-7.5,0-14.6,1.8-20.1,4.9l-38,21.9C8.8,33.4,0,48.8,0,61.8
	v43.9c0,13.1,8.9,28.4,20.2,35l38,21.9c5.5,3.2,12.7,4.9,20.2,4.9c7.5,0,14.7-1.8,20.2-4.9l37.6-21.9c11.3-6.5,19.8-21.9,19.8-35
	V61.8C155.9,48.8,147.5,33.4,136.1,26.9z"/>
<path fill="#00259A" d="M32.4,80.2h-3.7l0-3.5h3.6c0.8,0,1.2-0.5,1.2-1.3l0-6c0-0.8-0.3-1.2-1.1-1.2c-3.3,0-5.1,0.4-4.8,1.2v20.2
	h-3.8V64.4h3.6l0,1.3c0-0.9,1.6-1.3,4.9-1.2c3.2,0,4.9,1.1,4.9,3.1v9.7C37.2,79.3,35.6,80.2,32.4,80.2z"/>
<path fill="#00259A" d="M39.3,65.7l9.3,0v3.6l-5.5,0V78l1.7,0v3.7h-1.7c-2.5,0-3.8-0.8-3.8-2.4V65.7z"/>
<path fill="#00259A" d="M75.7,78.6v-9.7c0-2,1.6-3,4.8-3.1c3.3,0,4.9,0.3,4.8,1.1l0.1-2.5h-1.8v-3.5h5.5v20.7h-3.8v-11
	c0-0.8-1.6-1.2-4.8-1.2c-0.8,0.1-1.2,0.5-1.2,1.2l0,5.9c0,0.8,0.4,1.2,1.2,1.2h3.6l0,3.8h-3.7C77.2,81.6,75.7,80.6,75.7,78.6z"/>
<path fill="#00259A" d="M98.8,65.9l0,3.6c-2.4,1.6-3.6,2.8-3.6,3.7l0,3.5c0,0.8,0.7,1.2,2.2,1.2h3.8V65.9h3.8v15.7h-7.5
	c-3.9,0-5.9-1.1-5.9-3.2v-5.4c0-2,0.7-3.2,2.4-3.7l-2.4,0v-3.5H98.8z"/>
<path fill="#00259A" d="M111,77.9h6.1v-1.7l3.8,0v3c0,1.6-1.4,2.5-3.8,2.5H111c-2.4,0-3.8-0.9-3.8-2.5V68.2c0-1.6,1.3-2.3,3.8-2.3
	h6.1c2.4,0,3.5,0.7,3.5,2.3v3.3h-3.5v-2H111V77.9z"/>
<path fill="#00259A" d="M123.2,62.1h3.5v3.7l1.9,0l0,3.5l-1.9,0v8.5h3.1l0,3.7l-3,0c-2.5,0-3.6-0.8-3.6-2.4V62.1z"/>
<path fill="#00259A" d="M28.2,84.8c0-1.6,1.3-2.4,3.7-2.4l5.1-0.1l0,3.6H32v4.6l1.9,0l0,3.6l-1.9,0v11.4h-3.8V84.8z"/>
<path fill="#00259A" d="M35.2,100.3v-11c0-1.6,1.3-2.4,3.7-2.4h6c2.4,0,3.7,0.8,3.7,2.5v11c0,1.6-1.2,2.3-3.7,2.3h-6
	C36.5,102.6,35.2,101.9,35.2,100.3z M39,99.1h6l0-8.5h-6V99.1z"/>
<path fill="#00259A" d="M75.6,86.9l4.3,0l5.5,8.6l0-13.1l3.7,0v20.2h-4.3l-5.6-8.4v8.4h-3.6L75.6,86.9z"/>
<path fill="#00259A" d="M91.4,99.7V90c0-2,1.7-3,4.9-3.1c3.3,0,4.9,0.4,4.9,1.2l0.1-2.4h-2v-3.2h5.5v20.1h-3.5V91.8
	c0-0.8-1.6-1.2-4.9-1.2c-0.8,0.1-1.2,0.5-1.2,1.2l0,6c0,0.8,0.4,1.3,1.2,1.3h3.6l0,3.5h-3.7C93.1,102.6,91.4,101.7,91.4,99.7z"/>
<path fill="#00259A" d="M107.2,86.9l9.3,0v3.6l-5.5,0v8.5l1.7,0v3.5H111c-2.5,0-3.8-0.7-3.8-2.3V86.9z"/>
<path fill="#00259A" d="M123.7,86.9l0,3.6c-2.4,1.6-3.6,2.9-3.6,3.7l0,3.6c0,0.8,0.7,1,2.2,1.3h3.9V86.9h3.8v15.8
	c0,3.3-1.3,4.9-3.8,4.9h-5V104l3.7,0c0.7,0,1.1-0.4,1.1-1.3h-3.7c-3.9,0-5.8-1-5.8-3v-5.4c0-2,0.7-3.2,2.4-3.7l-11.7,0v-3.7H123.7z"
	/>
<path fill="#00259A" d="M69.3,86.6v7.8l-7.6,4.4l-7.6-4.4v-8.9l8.7-4.9c0.6-0.3,1.1-1,1.1-1.7l0.1-6.2l-3.8,0v5l-4.4,2.4l-2-1v-8.8
	l7.9-4.4l7.9,4.4v8.9l-8.4,5c-3.4,2-5.5,3.4-5.5,8.1v1.3h3.8v-1.3c0-2.6,0.8-3.1,3.8-4.8c0,0,9.4-5.5,9.4-5.5c0.6-0.3,0.9-1,0.9-1.7
	V69.2c0-0.7-0.3-1.3-0.9-1.7L62.8,62c-0.6-0.3-1.3-0.3-1.9,0l-9.8,5.5c-0.6,0.3-1.1,1-1.1,1.7v11.1c0,0.7,0.5,1.4,1.1,1.7l0.8,0.4
	l-0.8,0.3c-0.6,0.4-1.2,1-1.2,1.7v11.1c0,0.7,0.6,1.4,1.2,1.7l9.7,5.5c0.3,0.2,0.7,0.3,1.1,0.3c0.3,0,0.7-0.1,1-0.3l9.5-5.5
	c0.6-0.4,0.9-1,0.9-1.7v-9H69.3z"/>
</svg>
