<?xml version="1.0" encoding="utf-8"?>
<!-- Generator: Adobe Illustrator 17.1.0, SVG Export Plug-In . SVG Version: 6.00 Build 0)  -->
<!DOCTYPE svg PUBLIC "-//W3C//DTD SVG 1.1//EN" "http://www.w3.org/Graphics/SVG/1.1/DTD/svg11.dtd">
<svg version="1.1" id="Layer_1" xmlns="http://www.w3.org/2000/svg" xmlns:xlink="http://www.w3.org/1999/xlink" x="0px" y="0px"
	 viewBox="182 -29 626 651" enable-background="new 182 -29 626 651" xml:space="preserve">
<g>
	<g opacity="0">
		<path fill="#D5D8E2" d="M495.3-29.9C453.8-29.9,414-19.6,380.2,0l-0.3,0.2l-0.3,0.2l-82.4,48.1c-67.9,39.5-113.5,119.4-113.5,199
			v96.4c0,79.8,45.8,159.9,114.1,199.3l82.7,48c34,19.7,73.8,30,115.1,30c41.4,0,81.2-10.3,115-29.8l83.4-48.2
			c68.6-39.6,114.7-119.7,114.7-199.2v-96.4c0-79.5-46.2-159.6-114.9-199.3L610.3,0C576.6-19.6,536.8-29.9,495.3-29.9L495.3-29.9z"
			/>
	</g>
	<g opacity="2.272727e-03">
		<path fill="#D5D8E2" d="M495.3-26.8L495.3-26.8c24.2,0,47.7,3.6,69.7,10.5c15.1,4.6,31.4,11.9,44.8,19.7l83.1,48
			C759.5,89.9,804.6,167.7,805,244.9c0.2,0.5,0.3,93.1,0.3,93.6c0,38.8-11.5,83.9-31.5,117.7c-19.1,34.2-47.2,64.1-80.8,83.5
			l-83.1,48.1c-13.4,7.8-29.6,15-44.8,19.7c-21.9,6.9-45.5,10.5-69.6,10.5c-24,0-47.4-3.6-69.3-10.5c-15.2-4.7-31.6-12-45.2-19.9
			l-82.4-47.9c-46.1-26.6-81.8-72.7-99.2-124c-8-22.9-12.4-49.7-12.4-73.8v-95.4c0-77.8,44.7-156.2,111.1-194.8l82.1-48l0.3-0.2
			l0.3-0.2c13.4-7.8,29.7-15.1,44.8-19.7C447.6-23.2,471.1-26.8,495.3-26.8"/>
	</g>
	<g opacity="4.545454e-03">
		<path fill="#D5D8E2" d="M495.2-23.7L495.2-23.7c24.1,0,47.6,3.7,69.3,10.8C579-8.6,596.3-0.6,609.1,6.8l82.8,47.9
			c64.7,37.4,108.6,112.7,109.5,187.7c0.4,1.1,0.6,89.8,0.6,90.9c0,37-11,86.3-30,118.6c-18.2,34.5-46.3,65.2-79.9,84.6l-82.8,47.9
			c-12.8,7.4-30.1,15.4-44.5,19.8c-21.7,7.1-45.2,10.8-69.3,10.8c-24,0-47.3-3.7-68.9-10.7c-14.5-4.4-32-12.5-44.9-20l-82.1-47.7
			c-45.6-26.3-80.8-72.4-97.4-123.3c-7.7-21.8-11.8-50.2-11.8-73.1v-94.5c0-76,43.8-152.9,108.7-190.7l81.8-47.8l0.3-0.2l0.3-0.2
			c12.8-7.4,30.2-15.5,44.6-19.9C447.7-20.1,471.1-23.7,495.2-23.7"/>
	</g>
	<g opacity="6.818182e-03">
		<path fill="#D5D8E2" d="M495.2-20.7L495.2-20.7c24.1,0,47.5,3.8,68.9,11c13.7,4.2,32.1,13,44.3,20L691,58
			c62.7,36.2,105.5,109.2,106.8,181.9c0.5,1.6,0.8,86.5,0.8,88.1c0,35.1-10.4,88.8-28.5,119.4c-17.3,34.8-45.3,66.3-79,85.8
			l-82.5,47.7c-12.1,7-30.6,15.8-44.3,20c-21.5,7.2-44.9,11-68.9,11c-23.9,0-47.2-3.7-68.6-10.9c-13.8-4.2-32.4-13.1-44.7-20.2
			l-81.9-47.5c-45-26-79.8-72.2-95.6-122.5c-7.3-20.7-11.2-50.7-11.2-72.5v-93.5c0-74.2,42.9-149.7,106.3-186.5l81.5-47.6l0.3-0.2
			l0.3-0.2c12.2-7,30.7-15.8,44.4-20C447.8-16.9,471.2-20.7,495.2-20.7"/>
	</g>
	<g opacity="9.090909e-03">
		<path fill="#D5D8E2" d="M495.2-17.6L495.2-17.6c24,0,47.3,3.9,68.6,11.2c13,4,32.5,13.5,44,20.1l82.3,47.5
			C750.9,96.3,792.5,167,794.3,237.4c0.7,2.2,1.1,83.2,1.1,85.3c0,33.3-9.9,91.2-27,120.2c-16.4,35.1-44.3,67.4-78.1,86.9
			l-82.2,47.6c-11.5,6.6-31.1,16.2-44.1,20.2c-21.2,7.4-44.5,11.2-68.5,11.2c-23.9,0-47-3.8-68.2-11.2c-13.1-4-32.8-13.6-44.4-20.3
			l-81.6-47.4c-44.5-25.7-78.8-71.9-93.7-121.7c-6.9-19.6-10.6-51.2-10.6-71.8v-92.6c0-72.4,42-146.4,103.9-182.4L382,14.1l0.2-0.1
			l0.2-0.1C394,7.1,413.7-2.4,426.6-6.4C447.9-13.8,471.2-17.6,495.2-17.6"/>
	</g>
	<g opacity="1.136364e-02">
		<path fill="#D5D8E2" d="M495.2-14.6L495.2-14.6c24,0,47.2,3.9,68.2,11.4c12.3,3.8,32.9,14,43.8,20.3l82,47.4
			c58.8,33.9,99.2,102.2,101.5,170.4c0.9,2.7,1.4,79.9,1.4,82.6c0,31.4-9.3,93.7-25.5,121.1c-15.5,35.4-43.4,68.5-77.2,88.1
			L607.5,574c-10.9,6.3-31.6,16.6-43.8,20.3c-21,7.5-44.2,11.4-68.2,11.4c-23.8,0-46.9-3.9-67.9-11.4c-12.3-3.8-33.1-14.1-44.2-20.5
			l-81.3-47.2c-44-25.4-77.8-71.7-91.9-120.9c-6.5-18.5-10-51.6-10-71.1V243c0-70.7,41.1-143.1,101.5-178.2l80.9-47.2l0.2-0.1
			l0.2-0.1C394,11,414.7,0.6,427-3.1C448-10.6,471.2-14.6,495.2-14.6"/>
	</g>
	<g opacity="1.363636e-02">
		<path fill="#D5D8E2" d="M495.2-11.5L495.2-11.5c23.9,0,47.1,4,67.9,11.6c11.5,3.5,33.3,14.5,43.5,20.4l81.7,47.2
			c56.8,32.8,96.1,98.7,98.8,164.6c1.1,3.2,1.7,76.6,1.7,79.8c0,29.6-8.8,96.1-24,121.9c-14.6,35.6-42.4,69.7-76.3,89.2l-81.6,47.2
			c-10.2,5.9-32.1,17-43.6,20.5c-20.8,7.6-43.9,11.7-67.8,11.7c-23.8,0-46.8-4-67.5-11.6c-11.6-3.6-33.5-14.6-43.9-20.6l-81-47.1
			c-43.4-25.1-76.8-71.4-90.1-120.2c-6.1-17.4-9.5-52.1-9.5-70.5v-90.7c0-68.9,40.2-139.9,99.2-174.1L383.2,21l0.2-0.1l0.2-0.1
			c10.2-5.9,32.1-17,43.7-20.6C448.1-7.5,471.3-11.5,495.2-11.5"/>
	</g>
	<g opacity="1.590909e-02">
		<path fill="#D5D8E2" d="M495.2-8.4L495.2-8.4c23.9,0,47,4.1,67.5,11.9c10.8,3.3,33.7,15,43.3,20.6l81.5,47.1
			c54.8,31.6,92.9,95.2,96.1,158.8c1.3,3.8,2,73.4,2,77c0,27.7-8.2,98.5-22.5,122.7c-13.7,35.9-41.5,70.8-75.4,90.4l-81.3,47.1
			c-9.6,5.5-32.6,17.3-43.4,20.6c-20.5,7.8-43.6,11.9-67.4,11.9c-23.7,0-46.7-4.1-67.2-11.8c-10.9-3.3-33.9-15.2-43.6-20.8
			l-80.8-46.9c-42.9-24.8-75.8-71.2-88.3-119.4c-5.7-16.4-8.9-52.6-8.9-69.8v-89.7c0-67.1,39.3-136.6,96.8-169.9l80.3-46.9l0.2-0.1
			l0.2-0.1c9.6-5.5,32.6-17.4,43.4-20.7C448.2-4.3,471.3-8.4,495.2-8.4"/>
	</g>
	<g opacity="1.818182e-02">
		<path fill="#D5D8E2" d="M495.2-5.4L495.2-5.4c23.8,0,46.8,4.2,67.2,12.1c10.1,3.1,34.1,15.5,43,20.7l81.2,46.9
			c52.8,30.5,89.8,91.7,93.4,153.1c1.5,4.3,2.3,70.1,2.3,74.3c0,25.9-7.7,101-21,123.5c-12.7,36.2-40.5,71.9-74.5,91.5l-81,46.9
			c-8.9,5.2-33.1,17.7-43.1,20.8c-20.3,7.9-43.3,12.1-67.1,12.1c-23.7,0-46.5-4.2-66.8-12.1c-10.2-3.1-34.3-15.7-43.4-20.9
			l-80.5-46.7c-42.4-24.5-74.8-70.9-86.4-118.6c-5.4-15.3-8.3-53.1-8.3-69.1v-88.7c0-65.3,38.4-133.3,94.4-165.8l79.9-46.7l0.2-0.1
			l0.2-0.1c9-5.2,33.1-17.8,43.2-20.9C448.3-1.2,471.4-5.4,495.2-5.4"/>
	</g>
	<g opacity="2.045454e-02">
		<path fill="#D5D8E2" d="M495.1-2.3L495.1-2.3c23.8,0,46.7,4.3,66.8,12.3c9.4,2.9,34.5,16.1,42.8,20.9l80.9,46.8
			c50.8,29.3,86.6,88.2,90.7,147.3c1.6,4.9,2.5,66.8,2.5,71.5c0,24-7.1,103.4-19.5,124.4c-11.8,36.5-39.5,73-73.6,92.7l-80.7,46.7
			c-8.3,4.8-33.5,18.1-42.9,21c-20.1,8-43,12.3-66.7,12.3c-23.7,0-46.4-4.3-66.5-12.3c-9.4-2.9-34.7-16.2-43.1-21.1l-80.2-46.6
			c-41.8-24.2-73.8-70.7-84.6-117.8c-5-14.2-7.7-53.5-7.7-68.5v-87.8c0-63.5,37.6-130.1,92-161.6L385,31.3l0.2-0.1l0.2-0.1
			c8.3-4.8,33.6-18.2,43-21.1C448.4,2,471.4-2.3,495.1-2.3"/>
	</g>
	<g opacity="2.272727e-02">
		<path fill="#D5D8E2" d="M495.1,0.8L495.1,0.8c23.7,0,46.6,4.4,66.4,12.5c8.6,2.6,34.8,16.6,42.5,21l80.7,46.6
			c48.8,28.2,83.5,84.7,88,141.5c1.8,5.4,2.8,63.5,2.8,68.7c0,22.2-6.6,105.9-18,125.2c-10.9,36.8-38.6,74.1-72.7,93.9l-80.4,46.5
			c-7.7,4.4-34,18.5-42.7,21.1c-19.8,8.2-42.7,12.6-66.4,12.6c-23.6,0-46.3-4.4-66.1-12.5c-8.7-2.7-35.1-16.7-42.9-21.2l-79.9-46.4
			c-41.3-23.9-72.8-70.4-82.8-117c-4.6-13.1-7.1-54-7.1-67.8v-86.8c0-61.7,36.7-126.8,89.6-157.5l79.3-46.4l0.2-0.1l0.2-0.1
			c7.7-4.4,34.1-18.6,42.7-21.3C448.5,5.1,471.4,0.8,495.1,0.8"/>
	</g>
	<g opacity="2.500000e-02">
		<path fill="#D5D8E2" d="M495.1,3.8L495.1,3.8c23.7,0,46.5,4.5,66.1,12.8c7.9,2.4,35.2,17.1,42.3,21.2l80.4,46.5
			c46.8,27,80.4,81.2,85.3,135.7c2,5.9,3.1,60.2,3.1,66c0,20.3-6,108.3-16.5,126c-10,37.1-37.6,75.3-71.8,95l-80.1,46.4
			c-7,4.1-34.5,18.9-42.4,21.3c-19.6,8.3-42.4,12.8-66,12.8c-23.6,0-46.2-4.4-65.8-12.7c-8-2.4-35.5-17.3-42.6-21.4L307.4,507
			c-40.8-23.5-71.8-70.2-80.9-116.3c-4.2-12-6.5-54.5-6.5-67.1v-85.9c0-59.9,35.8-123.5,87.2-153.3l79-46.2l0.2-0.1l0.2-0.1
			c7-4.1,34.6-19,42.5-21.4C448.6,8.3,471.5,3.8,495.1,3.8"/>
	</g>
	<g opacity="2.727273e-02">
		<path fill="#D5D8E2" d="M495.1,6.9L495.1,6.9c23.6,0,46.4,4.5,65.7,13c7.2,2.2,35.6,17.6,42,21.3L683,87.5
			c44.8,25.9,77.2,77.7,82.6,130c2.2,6.5,3.4,56.9,3.4,63.2c0,18.5-5.5,110.7-15,126.9c-9.1,37.4-36.6,76.4-70.9,96.2l-79.8,46.2
			c-6.4,3.7-35,19.2-42.2,21.5c-19.4,8.5-42,13-65.6,13c-23.5,0-46.1-4.5-65.4-13c-7.3-2.2-35.9-17.8-42.3-21.5l-79.4-46.1
			c-40.2-23.2-70.8-69.9-79.1-115.5c-3.8-10.9-5.9-55-5.9-66.5v-84.9c0-58.1,34.9-120.3,84.8-149.2l78.7-46l0.1-0.1l0.1-0.1
			c6.4-3.7,35.1-19.4,42.3-21.6C448.7,11.4,471.5,6.9,495.1,6.9"/>
	</g>
	<g opacity="2.954545e-02">
		<path fill="#D5D8E2" d="M495.1,9.9L495.1,9.9c23.6,0,46.2,4.6,65.4,13.2c6.5,2,36,18.1,41.8,21.5l79.9,46.1
			c42.8,24.7,74.1,74.2,80,124.2c2.4,7,3.7,53.6,3.7,60.4c0,16.6-4.9,113.2-13.5,127.7c-8.2,37.7-35.7,77.5-70,97.3l-79.5,46
			c-5.8,3.3-35.5,19.6-42,21.6c-19.1,8.6-41.7,13.2-65.3,13.2c-23.5,0-45.9-4.6-65-13.2c-6.5-2-36.2-18.3-42.1-21.7l-79.1-45.9
			c-39.7-22.9-69.8-69.7-77.3-114.7c-3.4-9.8-5.3-55.5-5.3-65.8v-84c0-56.4,34-117,82.4-145.1l78.4-45.8l0.1-0.1l0.1-0.1
			c5.8-3.3,35.5-19.8,42-21.8C448.8,14.6,471.5,9.9,495.1,9.9"/>
	</g>
	<g opacity="3.181818e-02">
		<path fill="#D5D8E2" d="M495.1,13L495.1,13c23.5,0,46.1,4.7,65,13.4c5.8,1.8,36.4,18.7,41.5,21.6l79.6,46
			c40.8,23.6,70.9,70.7,77.3,118.4c2.5,7.6,4,50.3,4,57.7c0,14.8-4.4,115.6-12,128.5c-7.3,38-34.7,78.6-69.1,98.5L602.1,543
			c-5.1,3-36,20-41.7,21.8c-18.9,8.7-41.4,13.4-64.9,13.4c-23.4,0-45.8-4.7-64.7-13.4c-5.8-1.8-36.6-18.9-41.8-21.9l-78.8-45.8
			c-39.2-22.6-68.8-69.4-75.5-113.9c-3.1-8.7-4.7-55.9-4.7-65.1v-83c0-54.6,33.1-113.7,80-140.9L388,48.5l0.1-0.1l0.1-0.1
			c5.1-3,36-20.2,41.8-21.9C448.9,17.7,471.6,13,495.1,13"/>
	</g>
	<g opacity="3.409091e-02">
		<path fill="#D5D8E2" d="M495,16.1L495,16.1c23.5,0,46,4.8,64.6,13.7c5,1.5,36.8,19.2,41.3,21.8l79.3,45.8
			c38.8,22.4,67.8,67.1,74.6,112.6c2.7,8.1,4.2,47,4.2,54.9c0,12.9-3.8,118.1-10.5,129.3c-6.4,38.2-33.8,79.7-68.2,99.6l-78.9,45.7
			c-4.5,2.6-36.5,20.4-41.5,21.9c-18.7,8.9-41.1,13.7-64.6,13.7c-23.4,0-45.7-4.8-64.3-13.7c-5.1-1.6-37-19.4-41.5-22L311,493.9
			c-38.6-22.3-67.8-69.2-73.6-113.2c-2.7-7.6-4.1-56.4-4.1-64.5v-82.1c0-52.8,32.2-110.5,77.6-136.8L388.6,52l0.1-0.1l0.1-0.1
			c4.5-2.6,36.5-20.6,41.6-22.1C449,20.9,471.6,16.1,495,16.1"/>
	</g>
	<g opacity="3.636364e-02">
		<path fill="#D5D8E2" d="M495,19.1L495,19.1c23.4,0,45.9,4.9,64.3,13.9c4.3,1.3,37.2,19.7,41,21.9l79.1,45.7
			c36.8,21.3,64.7,63.6,71.9,106.9c2.9,8.6,4.5,43.7,4.5,52.1c0,11.1-3.3,120.5-9,130.2c-5.5,38.5-32.8,80.9-67.3,100.8l-78.6,45.5
			c-3.8,2.2-36.9,20.8-41.3,22.1c-18.4,9-40.8,13.9-64.2,13.9c-23.4,0-45.6-4.9-64-13.9c-4.4-1.3-37.4-19.9-41.3-22.2l-78.3-45.5
			c-38.1-22-66.8-68.9-71.8-112.4c-2.3-6.5-3.5-56.9-3.5-63.8v-81.1c0-51,31.3-107.2,75.2-132.6l77.5-45.3l0.1-0.1l0.1,0
			c3.8-2.2,37-21,41.3-22.3C449.1,24,471.6,19.1,495,19.1"/>
	</g>
	<g opacity="3.863636e-02">
		<path fill="#D5D8E2" d="M495,22.2L495,22.2c23.4,0,45.7,5,63.9,14.1c3.6,1.1,37.6,20.2,40.8,22.1l78.8,45.5
			C713.3,124,740,164,747.7,205c3.1,9.2,4.8,40.4,4.8,49.4c0,9.2-2.7,122.9-7.5,131c-4.6,38.8-31.8,82-66.4,101.9l-78.3,45.3
			c-3.2,1.8-37.4,21.2-41,22.3C541,564,518.7,569,495.4,569c-23.3,0-45.5-5-63.6-14.1c-3.6-1.1-37.8-20.4-41-22.3l-78-45.3
			c-37.5-21.7-65.8-68.7-70-111.6c-1.9-5.5-3-57.4-3-63.1v-80.1c0-49.2,30.4-103.9,72.8-128.5l77.2-45.1l0.1,0l0.1,0
			c3.2-1.8,37.5-21.4,41.1-22.5C449.2,27.2,471.7,22.2,495,22.2"/>
	</g>
	<g opacity="4.090909e-02">
		<path fill="#D5D8E2" d="M495,25.3L495,25.3c23.3,0,45.6,5.1,63.6,14.3c2.9,0.9,37.9,20.7,40.5,22.2l78.5,45.4
			c32.9,19,58.4,56.6,66.5,95.3c3.3,9.7,5.1,37.2,5.1,46.6c0,7.4-2.2,125.4-6,131.8C739.5,420,712.3,464,677.7,484l-78,45.2
			c-2.6,1.5-37.9,21.5-40.8,22.4c-18,9.3-40.2,14.3-63.5,14.3c-23.3,0-45.3-5.1-63.3-14.3c-2.9-0.9-38.2-21-40.8-22.5L313.6,484
			c-37-21.4-64.8-68.5-68.1-110.8c-1.5-4.4-2.4-57.9-2.4-62.5v-79.2c0-47.4,29.5-100.7,70.4-124.3l76.9-44.9l0.1,0l0.1,0
			c2.6-1.5,38-21.8,40.9-22.6C449.4,30.3,471.7,25.3,495,25.3"/>
	</g>
	<g opacity="4.318182e-02">
		<path fill="#D5D8E2" d="M495,28.3L495,28.3c23.3,0,45.5,5.1,63.2,14.6c2.2,0.7,38.3,21.3,40.3,22.4l78.2,45.2
			c30.9,17.8,55.2,53.1,63.8,89.5c3.4,10.3,5.4,33.9,5.4,43.8c0,5.5-1.6,127.8-4.5,132.7c-2.7,39.4-29.9,84.2-64.6,104.3l-77.8,45
			c-1.9,1.1-38.4,21.9-40.6,22.6c-17.7,9.4-39.9,14.6-63.1,14.6c-23.2,0-45.2-5.1-62.9-14.6c-2.2-0.7-38.6-21.5-40.5-22.6l-77.5-45
			c-36.5-21.1-63.8-68.2-66.3-110.1c-1.1-3.3-1.8-58.3-1.8-61.8v-78.2c0-45.6,28.6-97.4,68-120.2L391,65.7l0,0l0,0
			c1.9-1.1,38.5-22.2,40.6-22.8C449.5,33.5,471.7,28.3,495,28.3"/>
	</g>
	<g opacity="4.545455e-02">
		<path fill="#D5D8E2" d="M495,31.4L495,31.4c23.2,0,45.4,5.2,62.9,14.8c1.4,0.4,38.7,21.8,40,22.5l78,45.1
			c28.9,16.7,52.1,49.6,61.1,83.8c3.6,10.8,5.6,30.6,5.6,41c0,3.7-1.1,130.3-3,133.5c-1.8,39.7-28.9,85.3-63.7,105.4l-77.5,44.8
			c-1.3,0.7-38.9,22.3-40.3,22.7c-17.5,9.6-39.5,14.8-62.7,14.8c-23.2,0-45.1-5.2-62.6-14.8c-1.5-0.4-38.9-22-40.2-22.8l-77.2-44.8
			c-35.9-20.8-62.8-68-64.5-109.3c-0.8-2.2-1.2-58.8-1.2-61.1v-77.3c0-43.8,27.7-94.1,65.6-116l76.3-44.6l0,0l0,0
			c1.3-0.7,39-22.5,40.4-23C449.6,36.6,471.8,31.4,495,31.4"/>
	</g>
	<g opacity="4.772727e-02">
		<path fill="#D5D8E2" d="M494.9,34.4L494.9,34.4c23.2,0,45.3,5.3,62.5,15c0.7,0.2,39.1,22.3,39.7,22.7l77.7,44.9
			c26.9,15.5,49,46.1,58.5,78c3.8,11.3,5.9,27.3,5.9,38.3c0,1.8-0.5,132.7-1.5,134.3c-0.9,40-28,86.5-62.8,106.6l-77.2,44.7
			c-0.6,0.4-39.4,22.7-40.1,22.9c-17.2,9.7-39.2,15-62.4,15c-23.1,0-45-5.3-62.2-15c-0.7-0.2-39.3-22.5-40-22.9l-76.9-44.7
			c-35.4-20.4-61.8-67.7-62.6-108.5c-0.4-1.1-0.6-59.3-0.6-60.5v-76.3c0-42.1,26.8-90.9,63.2-111.9l76-44.4l0,0l0,0
			c0.6-0.4,39.4-22.9,40.2-23.2C449.7,39.8,471.8,34.4,494.9,34.4"/>
	</g>
	<g opacity="5.000000e-02">
		<path fill="#D5D8E2" d="M494.9,37.5c23.1,0,45.1,5.4,62.1,15.2L674,120.3c34.9,20.1,62,67.5,62,107.7v135.2
			c0,40.3-27,87.6-61.9,107.7l-116.7,67.6c-17,9.8-38.9,15.2-62,15.2c-23.1,0-44.9-5.4-61.9-15.2l-116.4-67.6
			c-34.9-20.1-60.8-67.5-60.8-107.7V228c0-40.3,25.9-87.6,60.8-107.7l115.6-67.6C449.8,42.9,471.8,37.5,494.9,37.5"/>
	</g>
</g>
<path fill="#FFFFFF" d="M674.3,89.9L548,16.4C529.6,6,506.2,0,481.2,0S432.4,6,414,16.4L287,89.5c-38.1,22.1-67.5,73.5-67.5,116.9
	v146.7c0,43.8,29.7,94.9,67.5,116.9l127,73.2c18.4,10.7,42.4,16.4,67.5,16.4s49.1-6,67.5-16.4l125.6-73.2
	c37.8-21.7,66.2-73.2,66.2-116.9V206.5C740.5,163.1,712.4,111.6,674.3,89.9z"/>
<path fill="#00259A" d="M327.8,268h-12.4v-11.7h12c2.7,0,4-1.7,4-4.3v-20c0-2.7-1-4-3.7-4c-11,0-17,1.3-16,4v67.5h-12.7v-84.2h12
	v4.3c0-3,5.3-4.3,16.4-4c10.7,0,16.4,3.7,16.4,10.4v32.4C343.8,265,338.5,268,327.8,268z"/>
<path fill="#00259A" d="M350.9,219.5h31.1v12h-18.4v29.1h5.7V273h-5.7c-8.4,0-12.7-2.7-12.7-8V219.5z"/>
<path fill="#00259A" d="M472.5,262.6v-32.4c0-6.7,5.3-10,16-10.4c11,0,16.4,1,16,3.7l0.3-8.4h-6v-11.7h18.4v69.2h-12.7v-36.8
	c0-2.7-5.3-4-16-4c-2.7,0.3-4,1.7-4,4v19.7c0,2.7,1.3,4,4,4h12v12.7h-12.4C477.5,272.6,472.5,269.3,472.5,262.6z"/>
<path fill="#00259A" d="M549.7,220.2v12c-8,5.3-12,9.4-12,12.4v11.7c0,2.7,2.3,4,7.4,4h12.7v-40.1h12.7v52.5h-25.1
	c-13,0-19.7-3.7-19.7-10.7v-18c0-6.7,2.3-10.7,8-12.4h-8v-11.7h24.1V220.2z"/>
<path fill="#00259A" d="M590.4,260.3h20.4v-5.7h12.7v10c0,5.3-4.7,8.4-12.7,8.4h-20.4c-8,0-12.7-3-12.7-8.4v-36.8
	c0-5.3,4.3-7.7,12.7-7.7h20.4c8,0,11.7,2.3,11.7,7.7v11h-11.7v-6.7h-20.4V260.3z"/>
<path fill="#00259A" d="M631.2,207.5h11.7v12.4h6.3v11.7h-6.3V260h10.4v12.4h-10c-8.4,0-12-2.7-12-8V207.5L631.2,207.5z"/>
<path fill="#00259A" d="M313.8,283.3c0-5.3,4.3-8,12.4-8l17-0.3v12h-16.7v15.4h6.3v12h-6.3v38.1h-12.7V283.3z"/>
<path fill="#00259A" d="M337.2,335.1v-36.8c0-5.3,4.3-8,12.4-8h20c8,0,12.4,2.7,12.4,8.4v36.8c0,5.3-4,7.7-12.4,7.7h-20
	C341.5,342.8,337.2,340.5,337.2,335.1z M349.9,331.1h20v-28.4h-20V331.1z"/>
<path fill="#00259A" d="M472.1,290.4h14.4l18.4,28.7v-43.8h12.4v67.5h-14.4l-18.7-28.1v28.1h-12V290.4z"/>
<path fill="#00259A" d="M524.9,333.1v-32.4c0-6.7,5.7-10,16.4-10.4c11,0,16.4,1.3,16.4,4l0.3-8h-6.7v-10.7h18.4v67.2H558v-36.1
	c0-2.7-5.3-4-16.4-4c-2.7,0.3-4,1.7-4,4v20c0,2.7,1.3,4.3,4,4.3h12v11.7h-12.4C530.6,342.8,524.9,339.8,524.9,333.1z"/>
<path fill="#00259A" d="M577.7,290.4h31.1v12h-18.4v28.4h5.7v11.7h-5.7c-8.4,0-12.7-2.3-12.7-7.7V290.4z"/>
<path fill="#00259A" d="M632.9,290.4v12c-8,5.3-12,9.7-12,12.4v12c0,2.7,2.3,3.3,7.4,4.3h13v-40.8h12.7v52.8
	c0,11-4.3,16.4-12.7,16.4h-16.7v-12h12.4c2.3,0,3.7-1.3,3.7-4.3h-12.4c-13,0-19.4-3.3-19.4-10v-18c0-6.7,2.3-10.7,8-12.4h-39.1
	v-12.4H632.9z"/>
<path fill="#00259A" d="M451.1,289.4v26.1l-25.4,14.7l-25.4-14.7v-29.7l29.1-16.4c2-1,3.7-3.3,3.7-5.7l0.3-20.7h-12.7v16.7l-14.7,8
	l-6.7-3.3v-29.4l26.4-14.7l26.4,14.7v29.7L424,281.3c-11.4,6.7-18.4,11.4-18.4,27.1v4.3h12.7v-4.3c0-8.7,2.7-10.4,12.7-16l31.4-18.4
	c2-1,3-3.3,3-5.7v-37.1c0-2.3-1-4.3-3-5.7l-33.1-18.4c-2-1-4.3-1-6.3,0l-32.7,18.4c-2,1-3.7,3.3-3.7,5.7v37.1c0,2.3,1.7,4.7,3.7,5.7
	l2.7,1.3l-2.7,1c-2,1.3-4,3.3-4,5.7v37.1c0,2.3,2,4.7,4,5.7l32.4,18.4c1,0.7,2.3,1,3.7,1c1,0,2.3-0.3,3.3-1l31.7-18.4
	c2-1.3,3-3.3,3-5.7V289h-13.4V289.4z"/>
</svg>
