<?xml version="1.0" encoding="utf-8"?>
<!-- Generator: Adobe Illustrator 17.1.0, SVG Export Plug-In . SVG Version: 6.00 Build 0)  -->
<!DOCTYPE svg PUBLIC "-//W3C//DTD SVG 1.1//EN" "http://www.w3.org/Graphics/SVG/1.1/DTD/svg11.dtd">
<svg version="1.1" id="Laag_1" xmlns="http://www.w3.org/2000/svg" xmlns:xlink="http://www.w3.org/1999/xlink" x="0px" y="0px"
	 viewBox="0 0 59 60.2" enable-background="new 0 0 59 60.2" xml:space="preserve">
<g>
	<g opacity="0">
		<path fill="#D5D8E2" d="M31,2.1c-3.7,0-7.3,0.9-10.3,2.7l0,0l0,0l-7.4,4.3C7.3,12.6,3.2,19.8,3.2,26.9v8.6
			c0,7.1,4.1,14.3,10.2,17.8l7.4,4.3c3,1.8,6.6,2.7,10.3,2.7c3.7,0,7.2-0.9,10.3-2.7l7.4-4.3C54.9,49.7,59,42.6,59,35.5v-8.6
			c0-7.1-4.1-14.2-10.3-17.8l-7.5-4.3C38.3,3,34.7,2.1,31,2.1L31,2.1z"/>
	</g>
	<g opacity="2.272727e-03">
		<path fill="#D5D8E2" d="M31,2.4L31,2.4c2.2,0,4.3,0.3,6.2,0.9c1.3,0.4,2.8,1.1,4,1.8l7.4,4.3c5.9,3.4,10,10.4,10,17.3
			c0,0,0,8.3,0,8.4c0,3.5-1,7.5-2.8,10.5c-1.7,3.1-4.2,5.7-7.2,7.5l-7.4,4.3c-1.2,0.7-2.6,1.3-4,1.8c-2,0.6-4.1,0.9-6.2,0.9
			c-2.1,0-4.2-0.3-6.2-0.9c-1.4-0.4-2.8-1.1-4-1.8l-7.4-4.3c-4.1-2.4-7.3-6.5-8.9-11.1c-0.7-2-1.1-4.4-1.1-6.6v-8.5
			c0-6.9,4-13.9,9.9-17.4l7.3-4.3l0,0l0,0c1.2-0.7,2.7-1.3,4-1.8C26.8,2.7,28.9,2.4,31,2.4"/>
	</g>
	<g opacity="4.545454e-03">
		<path fill="#D5D8E2" d="M31,2.7L31,2.7c2.2,0,4.2,0.3,6.2,1c1.3,0.4,2.8,1.1,4,1.8l7.4,4.3c5.8,3.3,9.7,10.1,9.8,16.8
			c0,0.1,0.1,8,0.1,8.1c0,3.3-1,7.7-2.7,10.6c-1.6,3.1-4.1,5.8-7.1,7.6l-7.4,4.3c-1.1,0.7-2.7,1.4-4,1.8c-1.9,0.6-4,1-6.2,1
			c-2.1,0-4.2-0.3-6.1-1c-1.3-0.4-2.9-1.1-4-1.8l-7.3-4.3c-4.1-2.3-7.2-6.5-8.7-11c-0.7-1.9-1.1-4.5-1.1-6.5v-8.4
			c0-6.8,3.9-13.6,9.7-17l7.3-4.3l0,0l0,0c1.1-0.7,2.7-1.4,4-1.8C26.8,3,28.9,2.7,31,2.7"/>
	</g>
	<g opacity="6.818182e-03">
		<path fill="#D5D8E2" d="M31,2.9L31,2.9c2.2,0,4.2,0.3,6.1,1c1.2,0.4,2.9,1.2,4,1.8l7.4,4.3c5.6,3.2,9.4,9.7,9.5,16.2
			c0,0.1,0.1,7.7,0.1,7.9c0,3.1-0.9,7.9-2.5,10.7c-1.5,3.1-4,5.9-7.1,7.7l-7.4,4.3c-1.1,0.6-2.7,1.4-4,1.8c-1.9,0.6-4,1-6.1,1
			c-2.1,0-4.2-0.3-6.1-1c-1.2-0.4-2.9-1.2-4-1.8l-7.3-4.2c-4-2.3-7.1-6.4-8.5-10.9c-0.7-1.8-1-4.5-1-6.5v-8.3
			c0-6.6,3.8-13.4,9.5-16.6l7.3-4.2l0,0l0,0c1.1-0.6,2.7-1.4,4-1.8C26.8,3.3,28.9,2.9,31,2.9"/>
	</g>
	<g opacity="9.090909e-03">
		<path fill="#D5D8E2" d="M31,3.2L31,3.2c2.1,0,4.2,0.3,6.1,1C38.3,4.6,40,5.4,41.1,6l7.3,4.2c5.4,3.1,9.1,9.4,9.3,15.7
			c0.1,0.2,0.1,7.4,0.1,7.6c0,3-0.9,8.1-2.4,10.7c-1.5,3.1-4,6-7,7.8l-7.3,4.2c-1,0.6-2.8,1.4-3.9,1.8c-1.9,0.7-4,1-6.1,1
			c-2.1,0-4.2-0.3-6.1-1c-1.2-0.4-2.9-1.2-4-1.8l-7.3-4.2c-4-2.3-7-6.4-8.4-10.9c-0.6-1.7-0.9-4.6-0.9-6.4v-8.3
			c0-6.5,3.7-13.1,9.3-16.3L20.9,6l0,0l0,0c1-0.6,2.8-1.5,3.9-1.8C26.8,3.5,28.9,3.2,31,3.2"/>
	</g>
	<g opacity="1.136364e-02">
		<path fill="#D5D8E2" d="M31,3.5L31,3.5c2.1,0,4.2,0.3,6.1,1C38.2,4.8,40,5.7,41,6.3l7.3,4.2c5.2,3,8.9,9.1,9.1,15.2
			c0.1,0.2,0.1,7.1,0.1,7.4c0,2.8-0.8,8.4-2.3,10.8c-1.4,3.2-3.9,6.1-6.9,7.9L41,56c-1,0.6-2.8,1.5-3.9,1.8c-1.9,0.7-3.9,1-6.1,1
			c-2.1,0-4.2-0.3-6.1-1c-1.1-0.3-3-1.3-3.9-1.8l-7.3-4.2C9.8,49.5,6.8,45.4,5.6,41c-0.6-1.7-0.9-4.6-0.9-6.3v-8.2
			c0-6.3,3.7-12.8,9.1-15.9L21,6.3l0,0l0,0c1-0.6,2.8-1.5,3.9-1.8C26.8,3.8,28.9,3.5,31,3.5"/>
	</g>
	<g opacity="1.363636e-02">
		<path fill="#D5D8E2" d="M31,3.7L31,3.7c2.1,0,4.2,0.4,6.1,1c1,0.3,3,1.3,3.9,1.8l7.3,4.2c5.1,2.9,8.6,8.8,8.8,14.7
			c0.1,0.3,0.2,6.8,0.2,7.1c0,2.6-0.8,8.6-2.1,10.9c-1.3,3.2-3.8,6.2-6.8,8L41,55.7c-0.9,0.5-2.9,1.5-3.9,1.8c-1.9,0.7-3.9,1-6.1,1
			c-2.1,0-4.2-0.4-6-1c-1-0.3-3-1.3-3.9-1.8l-7.2-4.2c-3.9-2.2-6.9-6.4-8-10.7C5.3,39.2,5,36.1,5,34.5v-8.1c0-6.1,3.6-12.5,8.9-15.5
			L21,6.6l0,0l0,0c0.9-0.5,2.9-1.5,3.9-1.8C26.8,4.1,28.9,3.7,31,3.7"/>
	</g>
	<g opacity="1.590909e-02">
		<path fill="#D5D8E2" d="M31,4L31,4c2.1,0,4.2,0.4,6,1.1c1,0.3,3,1.3,3.9,1.8l7.3,4.2c4.9,2.8,8.3,8.5,8.6,14.2
			c0.1,0.3,0.2,6.6,0.2,6.9c0,2.5-0.7,8.8-2,11c-1.2,3.2-3.7,6.3-6.7,8.1l-7.3,4.2c-0.9,0.5-2.9,1.5-3.9,1.8c-1.8,0.7-3.9,1.1-6,1.1
			c-2.1,0-4.2-0.4-6-1.1c-1-0.3-3-1.4-3.9-1.9l-7.2-4.2c-3.8-2.2-6.8-6.4-7.9-10.7c-0.5-1.5-0.8-4.7-0.8-6.2v-8
			c0-6,3.5-12.2,8.6-15.2L21.1,7l0,0l0,0C22,6.4,24,5.4,25,5.1C26.8,4.4,28.9,4,31,4"/>
	</g>
	<g opacity="1.818182e-02">
		<path fill="#D5D8E2" d="M31,4.3L31,4.3c2.1,0,4.2,0.4,6,1.1c0.9,0.3,3,1.4,3.8,1.8l7.2,4.2c4.7,2.7,8,8.2,8.3,13.7
			c0.1,0.4,0.2,6.3,0.2,6.6c0,2.3-0.7,9-1.9,11c-1.1,3.2-3.6,6.4-6.6,8.2l-7.2,4.2c-0.8,0.5-3,1.6-3.8,1.9c-1.8,0.7-3.9,1.1-6,1.1
			c-2.1,0-4.2-0.4-6-1.1c-0.9-0.3-3.1-1.4-3.9-1.9L14,50.9c-3.8-2.2-6.7-6.3-7.7-10.6c-0.5-1.4-0.7-4.7-0.7-6.2v-7.9
			c0-5.8,3.4-11.9,8.4-14.8l7.1-4.2l0,0l0,0c0.8-0.5,3-1.6,3.9-1.9C26.8,4.7,28.9,4.3,31,4.3"/>
	</g>
	<g opacity="2.045454e-02">
		<path fill="#D5D8E2" d="M31,4.6L31,4.6c2.1,0,4.2,0.4,6,1.1c0.8,0.3,3.1,1.4,3.8,1.9l7.2,4.2c4.5,2.6,7.7,7.9,8.1,13.1
			c0.1,0.4,0.2,6,0.2,6.4c0,2.1-0.6,9.2-1.7,11.1c-1.1,3.3-3.5,6.5-6.6,8.3l-7.2,4.2c-0.7,0.4-3,1.6-3.8,1.9c-1.8,0.7-3.8,1.1-6,1.1
			s-4.1-0.4-5.9-1.1c-0.8-0.3-3.1-1.4-3.8-1.9l-7.2-4.2c-3.7-2.2-6.6-6.3-7.6-10.5c-0.4-1.3-0.7-4.8-0.7-6.1v-7.8
			c0-5.7,3.4-11.6,8.2-14.4l7.1-4.2l0,0l0,0c0.7-0.4,3-1.6,3.8-1.9C26.8,4.9,28.9,4.6,31,4.6"/>
	</g>
	<g opacity="2.272727e-02">
		<path fill="#D5D8E2" d="M31,4.8L31,4.8c2.1,0,4.2,0.4,5.9,1.1c0.8,0.2,3.1,1.5,3.8,1.9l7.2,4.2c4.4,2.5,7.5,7.6,7.9,12.6
			c0.2,0.5,0.2,5.7,0.2,6.1c0,2-0.6,9.5-1.6,11.2c-1,3.3-3.4,6.6-6.5,8.4l-7.2,4.2c-0.7,0.4-3,1.7-3.8,1.9c-1.8,0.7-3.8,1.1-5.9,1.1
			c-2.1,0-4.1-0.4-5.9-1.1c-0.8-0.2-3.1-1.5-3.8-1.9l-7.1-4.1c-3.7-2.1-6.5-6.3-7.4-10.4c-0.4-1.2-0.6-4.8-0.6-6.1v-7.7
			c0-5.5,3.3-11.3,8-14.1l7.1-4.1l0,0l0,0c0.7-0.4,3-1.7,3.8-1.9C26.8,5.2,28.9,4.8,31,4.8"/>
	</g>
	<g opacity="2.500000e-02">
		<path fill="#D5D8E2" d="M31,5.1L31,5.1c2.1,0,4.2,0.4,5.9,1.1c0.7,0.2,3.1,1.5,3.8,1.9l7.2,4.2c4.2,2.4,7.2,7.2,7.6,12.1
			c0.2,0.5,0.3,5.4,0.3,5.9c0,1.8-0.5,9.7-1.5,11.2c-0.9,3.3-3.4,6.7-6.4,8.5l-7.1,4.1c-0.6,0.4-3.1,1.7-3.8,1.9
			c-1.7,0.7-3.8,1.1-5.9,1.1s-4.1-0.4-5.9-1.1c-0.7-0.2-3.2-1.5-3.8-1.9L14.2,50c-3.6-2.1-6.4-6.3-7.2-10.4c-0.4-1.1-0.6-4.9-0.6-6
			V26c0-5.3,3.2-11,7.8-13.7l7.1-4.1l0,0l0,0c0.6-0.4,3.1-1.7,3.8-1.9C26.8,5.5,28.9,5.1,31,5.1"/>
	</g>
	<g opacity="2.727273e-02">
		<path fill="#D5D8E2" d="M31,5.4L31,5.4c2.1,0,4.1,0.4,5.9,1.2c0.6,0.2,3.2,1.6,3.7,1.9l7.2,4.1c4,2.3,6.9,6.9,7.4,11.6
			c0.2,0.6,0.3,5.1,0.3,5.6c0,1.7-0.5,9.9-1.3,11.3c-0.8,3.3-3.3,6.8-6.3,8.6l-7.1,4.1c-0.6,0.3-3.1,1.7-3.8,1.9
			c-1.7,0.8-3.7,1.2-5.9,1.2c-2.1,0-4.1-0.4-5.8-1.2c-0.7-0.2-3.2-1.6-3.8-1.9l-7.1-4.1c-3.6-2.1-6.3-6.2-7.1-10.3
			c-0.3-1-0.5-4.9-0.5-5.9v-7.6c0-5.2,3.1-10.7,7.6-13.3l7-4.1l0,0l0,0c0.6-0.3,3.1-1.7,3.8-1.9C26.9,5.8,28.9,5.4,31,5.4"/>
	</g>
	<g opacity="2.954545e-02">
		<path fill="#D5D8E2" d="M31,5.6L31,5.6c2.1,0,4.1,0.4,5.8,1.2C37.4,7,40,8.4,40.6,8.7l7.1,4.1c3.8,2.2,6.6,6.6,7.1,11.1
			c0.2,0.6,0.3,4.8,0.3,5.4c0,1.5-0.4,10.1-1.2,11.4c-0.7,3.4-3.2,6.9-6.2,8.7l-7.1,4.1c-0.5,0.3-3.2,1.7-3.7,1.9
			c-1.7,0.8-3.7,1.2-5.8,1.2c-2.1,0-4.1-0.4-5.8-1.2c-0.6-0.2-3.2-1.6-3.8-1.9l-7.1-4.1c-3.5-2-6.2-6.2-6.9-10.2
			c-0.3-0.9-0.5-5-0.5-5.9v-7.5c0-5,3-10.4,7.4-13l7-4.1l0,0l0,0c0.5-0.3,3.2-1.8,3.7-1.9C26.9,6.1,28.9,5.6,31,5.6"/>
	</g>
	<g opacity="3.181818e-02">
		<path fill="#D5D8E2" d="M31,5.9L31,5.9c2.1,0,4.1,0.4,5.8,1.2C37.3,7.3,40,8.8,40.5,9l7.1,4.1c3.6,2.1,6.3,6.3,6.9,10.6
			c0.2,0.7,0.4,4.5,0.4,5.2c0,1.3-0.4,10.3-1.1,11.5c-0.7,3.4-3.1,7-6.2,8.8l-7.1,4.1c-0.5,0.3-3.2,1.8-3.7,1.9
			c-1.7,0.8-3.7,1.2-5.8,1.2c-2.1,0-4.1-0.4-5.8-1.2c-0.5-0.2-3.3-1.7-3.7-2l-7-4.1c-3.5-2-6.1-6.2-6.7-10.2c-0.3-0.8-0.4-5-0.4-5.8
			v-7.4c0-4.9,3-10.1,7.1-12.6l7-4.1l0,0l0,0c0.5-0.3,3.2-1.8,3.7-2C26.9,6.3,28.9,5.9,31,5.9"/>
	</g>
	<g opacity="3.409091e-02">
		<path fill="#D5D8E2" d="M31,6.2L31,6.2c2.1,0,4.1,0.4,5.8,1.2c0.4,0.1,3.3,1.7,3.7,1.9l7.1,4.1c3.5,2,6.1,6,6.7,10.1
			c0.2,0.7,0.4,4.2,0.4,4.9c0,1.2-0.3,10.5-0.9,11.5c-0.6,3.4-3,7.1-6.1,8.9l-7,4.1c-0.4,0.2-3.3,1.8-3.7,2
			c-1.7,0.8-3.7,1.2-5.8,1.2c-2.1,0-4.1-0.4-5.7-1.2c-0.5-0.1-3.3-1.7-3.7-2l-7-4.1c-3.4-2-6.1-6.2-6.6-10.1c-0.2-0.7-0.4-5-0.4-5.8
			v-7.3c0-4.7,2.9-9.9,6.9-12.2l6.9-4l0,0l0,0c0.4-0.2,3.3-1.8,3.7-2C26.9,6.6,28.9,6.2,31,6.2"/>
	</g>
	<g opacity="3.636364e-02">
		<path fill="#D5D8E2" d="M31,6.5L31,6.5c2.1,0,4.1,0.4,5.7,1.2c0.4,0.1,3.3,1.8,3.7,2l7.1,4.1c3.3,1.9,5.8,5.7,6.4,9.5
			c0.3,0.8,0.4,3.9,0.4,4.7c0,1-0.3,10.8-0.8,11.6c-0.5,3.4-2.9,7.2-6,9l-7,4.1c-0.3,0.2-3.3,1.9-3.7,2c-1.6,0.8-3.6,1.2-5.7,1.2
			s-4.1-0.4-5.7-1.2c-0.4-0.1-3.3-1.8-3.7-2l-7-4.1c-3.4-2-6-6.1-6.4-10c-0.2-0.6-0.3-5.1-0.3-5.7v-7.2c0-4.6,2.8-9.6,6.7-11.8
			l6.9-4l0,0h0c0.3-0.2,3.3-1.9,3.7-2C26.9,6.9,28.9,6.5,31,6.5"/>
	</g>
	<g opacity="3.863636e-02">
		<path fill="#D5D8E2" d="M31,6.7L31,6.7c2.1,0,4.1,0.4,5.7,1.3c0.3,0.1,3.4,1.8,3.6,2l7,4.1c3.1,1.8,5.5,5.4,6.2,9
			c0.3,0.8,0.4,3.6,0.4,4.4c0,0.8-0.2,11-0.7,11.7c-0.4,3.5-2.8,7.3-5.9,9.1l-7,4c-0.3,0.2-3.3,1.9-3.7,2c-1.6,0.8-3.6,1.3-5.7,1.3
			s-4.1-0.4-5.7-1.3c-0.3-0.1-3.4-1.8-3.7-2l-7-4c-3.3-1.9-5.9-6.1-6.2-10c-0.2-0.5-0.3-5.1-0.3-5.6v-7.1c0-4.4,2.7-9.3,6.5-11.5
			l6.9-4h0h0c0.3-0.2,3.3-1.9,3.7-2C26.9,7.2,28.9,6.7,31,6.7"/>
	</g>
	<g opacity="4.090909e-02">
		<path fill="#D5D8E2" d="M31,7L31,7c2.1,0,4.1,0.5,5.7,1.3c0.3,0.1,3.4,1.8,3.6,2l7,4.1c2.9,1.7,5.2,5.1,5.9,8.5
			c0.3,0.9,0.5,3.3,0.5,4.2c0,0.7-0.2,11.2-0.5,11.8c-0.3,3.5-2.8,7.4-5.8,9.2l-7,4c-0.2,0.1-3.4,1.9-3.6,2
			c-1.6,0.8-3.6,1.3-5.7,1.3s-4-0.5-5.6-1.3c-0.3-0.1-3.4-1.9-3.6-2l-6.9-4c-3.3-1.9-5.8-6.1-6.1-9.9c-0.1-0.4-0.2-5.2-0.2-5.6v-7.1
			c0-4.2,2.6-9,6.3-11.1l6.9-4h0h0c0.2-0.1,3.4-1.9,3.7-2C26.9,7.5,28.9,7,31,7"/>
	</g>
	<g opacity="4.318182e-02">
		<path fill="#D5D8E2" d="M31,7.3L31,7.3c2.1,0,4.1,0.5,5.6,1.3c0.2,0.1,3.4,1.9,3.6,2l7,4c2.8,1.6,4.9,4.7,5.7,8
			c0.3,0.9,0.5,3,0.5,3.9c0,0.5-0.1,11.4-0.4,11.8c-0.2,3.5-2.7,7.5-5.8,9.3l-6.9,4c-0.2,0.1-3.4,2-3.6,2C35.1,54.6,33.1,55,31,55
			c-2.1,0-4-0.5-5.6-1.3c-0.2-0.1-3.4-1.9-3.6-2l-6.9-4c-3.3-1.9-5.7-6.1-5.9-9.8c-0.1-0.3-0.2-5.2-0.2-5.5v-7
			c0-4.1,2.6-8.7,6.1-10.7l6.8-4l0,0l0,0c0.2-0.1,3.4-2,3.6-2C26.9,7.8,28.9,7.3,31,7.3"/>
	</g>
	<g opacity="4.545455e-02">
		<path fill="#D5D8E2" d="M31,7.6L31,7.6c2.1,0,4.1,0.5,5.6,1.3c0.1,0,3.5,1.9,3.6,2l7,4c2.6,1.5,4.7,4.4,5.5,7.5
			c0.3,1,0.5,2.7,0.5,3.7c0,0.3-0.1,11.6-0.3,11.9c-0.2,3.5-2.6,7.6-5.7,9.4l-6.9,4c-0.1,0.1-3.5,2-3.6,2c-1.6,0.9-3.5,1.3-5.6,1.3
			s-4-0.5-5.6-1.3c-0.1,0-3.5-2-3.6-2l-6.9-4c-3.2-1.9-5.6-6.1-5.8-9.8c-0.1-0.2-0.1-5.2-0.1-5.5v-6.9c0-3.9,2.5-8.4,5.9-10.4l6.8-4
			l0,0l0,0c0.1-0.1,3.5-2,3.6-2.1C26.9,8,28.9,7.6,31,7.6"/>
	</g>
	<g opacity="4.772727e-02">
		<path fill="#D5D8E2" d="M31,7.8L31,7.8c2.1,0,4,0.5,5.6,1.3c0.1,0,3.5,2,3.5,2l6.9,4c2.4,1.4,4.4,4.1,5.2,7c0.3,1,0.5,2.4,0.5,3.4
			c0,0.2,0,11.8-0.1,12c-0.1,3.6-2.5,7.7-5.6,9.5l-6.9,4c-0.1,0-3.5,2-3.6,2C35,54,33.1,54.5,31,54.5c-2.1,0-4-0.5-5.6-1.3
			c-0.1,0-3.5-2-3.6-2l-6.9-4c-3.2-1.8-5.5-6-5.6-9.7c0-0.1-0.1-5.3-0.1-5.4v-6.8c0-3.8,2.4-8.1,5.6-10l6.8-4l0,0l0,0
			c0.1,0,3.5-2,3.6-2.1C26.9,8.3,28.9,7.8,31,7.8"/>
	</g>
	<g opacity="5.000000e-02">
		<path fill="#D5D8E2" d="M31,8.1c2.1,0,4,0.5,5.5,1.4l10.4,6c3.1,1.8,5.5,6,5.5,9.6v12.1c0,3.6-2.4,7.8-5.5,9.6l-10.4,6
			c-1.5,0.9-3.5,1.4-5.5,1.4c-2.1,0-4-0.5-5.5-1.4l-10.4-6c-3.1-1.8-5.4-6-5.4-9.6V25.1c0-3.6,2.3-7.8,5.4-9.6l10.3-6
			C27,8.6,28.9,8.1,31,8.1"/>
	</g>
</g>
<path fill="#FFFFFF" d="M46.8,12.4L35.6,5.9c-1.6-0.9-3.7-1.5-6-1.5c-2.2,0-4.3,0.5-6,1.5l-11.3,6.5c-3.4,1.9-6,6.5-6,10.4v13
	c0,3.9,2.6,8.4,6,10.4l11.3,6.5c1.6,0.9,3.8,1.5,6,1.5c2.2,0,4.3-0.5,6-1.5l11.1-6.5c3.4-1.9,5.9-6.5,5.9-10.4v-13
	C52.7,18.9,50.2,14.3,46.8,12.4z"/>
<path fill="#00259A" d="M16.1,28.2H15l0-1H16c0.2,0,0.4-0.1,0.4-0.4l0-1.8c0-0.2-0.1-0.3-0.3-0.4c-1,0-1.5,0.1-1.4,0.4v6h-1.1v-7.4
	h1.1l0,0.4c0-0.3,0.5-0.4,1.4-0.4c1,0,1.4,0.3,1.4,0.9v2.9C17.5,27.9,17,28.2,16.1,28.2z"/>
<path fill="#00259A" d="M18.1,23.9l2.8,0V25l-1.6,0v2.5l0.5,0v1.1h-0.5c-0.7,0-1.1-0.2-1.1-0.7V23.9z"/>
<path fill="#00259A" d="M28.9,27.7v-2.9c0-0.6,0.5-0.9,1.4-0.9c1,0,1.4,0.1,1.4,0.3l0-0.7h-0.5v-1h1.6v6.1h-1.1v-3.3
	c0-0.2-0.5-0.4-1.4-0.4c-0.2,0-0.4,0.1-0.4,0.4l0,1.8c0,0.2,0.1,0.4,0.4,0.4h1.1l0,1.1h-1.1C29.3,28.6,28.9,28.3,28.9,27.7z"/>
<path fill="#00259A" d="M35.7,24l0,1.1c-0.7,0.5-1.1,0.8-1.1,1.1l0,1.1c0,0.2,0.2,0.4,0.6,0.4h1.1V24h1.1v4.7h-2.2
	c-1.2,0-1.8-0.3-1.8-0.9v-1.6c0-0.6,0.2-1,0.7-1.1l-0.7,0V24H35.7z"/>
<path fill="#00259A" d="M39.4,27.5h1.8V27l1.1,0v0.9c0,0.5-0.4,0.7-1.1,0.7h-1.8c-0.7,0-1.1-0.3-1.1-0.7v-3.2c0-0.5,0.4-0.7,1.1-0.7
	h1.8c0.7,0,1,0.2,1,0.7v1h-1V25h-1.8V27.5z"/>
<path fill="#00259A" d="M43,22.9h1v1.1l0.6,0l0,1.1L44,25v2.5h0.9l0,1.1l-0.9,0c-0.7,0-1.1-0.2-1.1-0.7V22.9z"/>
<path fill="#00259A" d="M14.8,29.6c0-0.5,0.4-0.7,1.1-0.7l1.5,0l0,1.1h-1.5v1.3l0.6,0l0,1.1l-0.6,0v3.4h-1.1V29.6z"/>
<path fill="#00259A" d="M16.9,34.2v-3.3c0-0.5,0.4-0.7,1.1-0.7h1.8c0.7,0,1.1,0.3,1.1,0.7v3.3c0,0.5-0.4,0.7-1.1,0.7H18
	C17.3,34.9,16.9,34.7,16.9,34.2z M18,33.8h1.8l0-2.5H18V33.8z"/>
<path fill="#00259A" d="M28.9,30.2l1.3,0l1.6,2.6l0-3.9l1.1,0v6h-1.3l-1.6-2.5v2.5h-1.1L28.9,30.2z"/>
<path fill="#00259A" d="M33.6,34v-2.9c0-0.6,0.5-0.9,1.5-0.9c1,0,1.5,0.1,1.4,0.4l0-0.7h-0.6v-1h1.6v6h-1v-3.2
	c0-0.2-0.5-0.4-1.5-0.4c-0.2,0-0.4,0.1-0.4,0.4l0,1.8c0,0.2,0.1,0.4,0.4,0.4h1.1l0,1H35C34.1,34.9,33.6,34.6,33.6,34z"/>
<path fill="#00259A" d="M38.2,30.2l2.8,0v1.1l-1.6,0v2.5l0.5,0v1h-0.5c-0.7,0-1.1-0.2-1.1-0.7V30.2z"/>
<path fill="#00259A" d="M43.1,30.2l0,1.1c-0.7,0.5-1.1,0.8-1.1,1.1l0,1.1c0,0.2,0.2,0.3,0.6,0.4h1.1v-3.6H45v4.7
	c0,1-0.4,1.5-1.1,1.5h-1.5v-1.1l1.1,0c0.2,0,0.3-0.1,0.3-0.4h-1.1c-1.2,0-1.7-0.3-1.7-0.9v-1.6c0-0.6,0.2-1,0.7-1.1l-3.5,0v-1.1
	H43.1z"/>
<path fill="#00259A" d="M27,30.1v2.3l-2.2,1.3l-2.2-1.3v-2.6l2.6-1.5c0.2-0.1,0.3-0.3,0.3-0.5l0-1.8l-1.1,0v1.5L23,28.2l-0.6-0.3
	v-2.6l2.3-1.3l2.3,1.3v2.6l-2.5,1.5c-1,0.6-1.6,1-1.6,2.4v0.4h1.1v-0.4c0-0.8,0.2-0.9,1.1-1.4c0,0,2.8-1.6,2.8-1.6
	c0.2-0.1,0.3-0.3,0.3-0.5V25c0-0.2-0.1-0.4-0.3-0.5l-2.9-1.6c-0.2-0.1-0.4-0.1-0.6,0l-2.9,1.6c-0.2,0.1-0.3,0.3-0.3,0.5v3.3
	c0,0.2,0.2,0.4,0.3,0.5l0.3,0.1L21.6,29c-0.2,0.1-0.4,0.3-0.4,0.5v3.3c0,0.2,0.2,0.4,0.4,0.5l2.9,1.6c0.1,0.1,0.2,0.1,0.3,0.1
	c0.1,0,0.2,0,0.3-0.1l2.8-1.6c0.2-0.1,0.3-0.3,0.3-0.5v-2.7H27z"/>
</svg>
