<?xml version="1.0" encoding="utf-8"?>
<!-- Generator: Adobe Illustrator 16.0.0, SVG Export Plug-In . SVG Version: 6.00 Build 0)  -->
<!DOCTYPE svg PUBLIC "-//W3C//DTD SVG 1.1//EN" "http://www.w3.org/Graphics/SVG/1.1/DTD/svg11.dtd">
<svg version="1.1" id="Layer_1" xmlns="http://www.w3.org/2000/svg" xmlns:xlink="http://www.w3.org/1999/xlink" x="0px" y="0px"
	 width="54px" height="57.274px" viewBox="0 0 54 57.274" enable-background="new 0 0 54 57.274" xml:space="preserve">
<path fill="#FFFFFF" d="M46.957,9.188L33.899,1.69C32.011,0.6,29.526,0,26.962,0c-2.562,0-5.031,0.6-6.918,1.69L6.98,9.188
	C3.11,11.422,0,16.672,0,21.14v14.995c0,4.468,3.102,9.719,6.97,11.953l13.021,7.496c1.887,1.091,4.356,1.69,6.919,1.69
	c2.562,0,5.021-0.6,6.909-1.69l13.133-7.496C50.822,45.854,54,40.603,54,36.135V21.14C54,16.672,50.826,11.422,46.957,9.188z"/>
<polygon fill="#C8932C" points="27.598,43.285 14.668,21.737 40.527,21.737 "/>
<rect x="24" y="18.737" fill="#C8932C" width="7" height="6"/>
<rect x="17.607" y="29.19" transform="matrix(-0.515 -0.8572 0.8572 -0.515 4.2203 65.9836)" fill="#C8932C" width="6.34" height="5.216"/>
<rect x="31.111" y="29.133" transform="matrix(-0.5152 0.8571 -0.8571 -0.5152 79.1462 18.7124)" fill="#C8932C" width="6.339" height="5.215"/>
</svg>
