<?xml version="1.0" encoding="utf-8"?>
<!-- Generator: Adobe Illustrator 17.1.0, SVG Export Plug-In . SVG Version: 6.00 Build 0)  -->
<!DOCTYPE svg PUBLIC "-//W3C//DTD SVG 1.1//EN" "http://www.w3.org/Graphics/SVG/1.1/DTD/svg11.dtd">
<svg version="1.1" id="Laag_1" xmlns="http://www.w3.org/2000/svg" xmlns:xlink="http://www.w3.org/1999/xlink" x="0px" y="0px"
	 viewBox="200 0 560 560" enable-background="new 200 0 560 560" xml:space="preserve">
<path opacity="0.3" stroke="#000000" stroke-width="8" stroke-miterlimit="10" enable-background="new    " d="M480.4,397.2
	l-116-115.9l116-116l116,116L480.4,397.2z M380.4,281.3l100,100l100-100l-100-100L380.4,281.3z"/>
<path opacity="0.3" stroke="#000000" stroke-width="8" stroke-miterlimit="10" enable-background="new    " d="M480.4,447.2
	l-166-165.9l166-166l166,166L480.4,447.2z M329.9,281.3l150.4,150.4l150.4-150.4L480.4,129.7L329.9,281.3z"/>
<polygon opacity="0.3" stroke="#000000" stroke-width="8" stroke-miterlimit="10" enable-background="new    " points="201.1,165.8 
	201.1,150.4 351.7,2 367.1,2 "/>
<polygon opacity="0.3" stroke="#000000" stroke-width="8" stroke-miterlimit="10" enable-background="new    " points="758.5,168 
	594.7,2 610.1,2 758.5,151.5 "/>
<polygon opacity="0.3" stroke="#000000" stroke-width="8" stroke-miterlimit="10" enable-background="new    " points="609,559.4 
	593.6,559.4 758.5,395.6 758.5,411 "/>
<polygon opacity="0.3" stroke="#000000" stroke-width="8" stroke-miterlimit="10" enable-background="new    " points="349.5,559.4 
	201.1,409.9 201.1,394.5 364.9,559.4 "/>
<path opacity="0.3" stroke="#000000" stroke-width="8" stroke-miterlimit="10" enable-background="new    " d="M760.5,285.7
	c0,0-73.1,74.2-84.1,85.2c-15.5,15.5-8.8,28.8,11,48.7L673,434.1l-25.5-25.5c-4.4-4.4-7.7-7.7-7.7-14.4c0-7.7,5.5-17.7,16.6-29.9
	l84.1-84.1l-81.9-80.8c-25.5-25.5-15.5-36.5-8.8-43.2l25.5-25.5l9.9,9.9c-19.9,19.9-26.6,33.2-11,48.7c11,11,85.2,84.1,85.2,84.1
	v-15.5c0,0-36.5-35.4-59.7-58.6l14.4-14.4c5.5-5.5,7.7-9.9,6.6-15.5c0-5.5-4.4-12.1-11-18.8l-102-101.8l-3.3-3.3
	c-4.4-6.6-9.9-12.1-17.7-12.1c-4.4,0-7.7,2.2-11,5.5l-18.8,16.6C533.5,32.1,500.3,0,500.3,0h-15.4c0,0,74.2,73.1,85.2,84.1
	c5.5,5.5,11,8.8,16.6,8.8c9.9,0,19.9-6.6,31-18.8l15.5,14.5l-25.5,25.5c-6.6,6.6-17.7,17.7-43.2-8.8L480.4,21l-80.8,80.8
	c-11,11-22.2,17.7-29.9,16.6c-5.5,0-9.9-4.4-14.4-7.7l-25.6-25.6l9.9-9.9c11,11,19.9,16.6,26.6,18.8c2.2,0,3.3,1.1,4.4,1.1
	c7.7,0,13.3-4.4,17.7-8.8c11-11,84.1-85.2,84.1-85.2h-15.5c0,0-35.4,36.5-58.6,59.7l-14.4-14.4c-9.9-9.9-22.2-8.8-34.3,3.3
	L247.8,151.7l-3.3,3.3c-5.5,5.5-12.1,12.1-12.1,19.9c0,4.4,2.2,7.7,5.5,11l16.6,17.7c-23.4,23.3-55.4,56.5-55.4,56.5v15.4
	c0,0,73.1-74.2,84.1-85.2c15.5-15.5,8.8-28.8-11-48.7l15.5-14.4l25.5,25.5c6.6,6.6,17.7,17.7-8.8,43.2l-84.2,84.1l80.8,80.8
	c25.5,25.5,15.5,36.5,8.8,43.2l-25.5,25.6l-9.9-8.8c19.9-19.9,25.5-33.2,9.9-48.7c-11-11-86.4-84.1-86.4-84.1v15.5
	c0,0,36.5,35.4,59.7,58.6l-13.3,14.4c-9.9,9.9-8.8,22.2,4.4,34.3l101.9,101.9l3.3,4.4c6.6,6.6,13.3,14.4,21.1,14.4l0,0
	c4.4,0,7.7-2.2,11-5.5l17.7-17.7c23.3,23.3,56.4,55.3,56.4,55.3h15.5c0,0-74.2-73.1-85.2-84.1c-15.5-15.5-28.8-8.8-48.7,9.9
	l-14.4-14.4l25.5-25.5c4.4-4.4,7.7-7.7,14.4-7.7c7.7,0,17.7,5.5,29.9,16.6l84.1,84.1l80.8-80.8c26.6-25.5,36.5-15.5,43.2-8.8
	l25.5,25.5l-11,8.8c-19.9-19.9-33.2-26.6-48.7-11c-11,11-84.1,85.2-84.1,85.2h15.5c0,0,35.4-36.5,58.6-59.7l14.4,14.4
	c4.4,4.4,9.9,6.6,14.4,6.6h1.1c5.5,0,12.1-4.4,18.8-11l101.9-101.9l3.3-3.3c6.6-6.6,13.3-13.3,13.3-21.1c0-4.4-2.2-7.7-5.5-11
	l-17.7-17.7c23.3-23.3,55.3-56.4,55.3-56.4L760.5,285.7z M711.8,170.5c0,1.1,0,3.3-3.3,7.7L694,192.7c-4.4-4.4-7.7-7.7-9.9-9.9
	c-6.6-6.6-11-11,11-33.2l9.9,9.9C708.5,163.9,710.7,167.2,711.8,170.5z M577.8,76.4c-2.2-2.2-6.6-6.6-13.3-13.3l17.7-17.7
	c2.2-1.1,3.3-1.1,3.3-1.1c3.3,0,8.8,5.5,13.3,9.9c1.1,1.1,2.2,2.2,3.3,3.3l8.8,8.8C588.9,87.5,584.5,83,577.8,76.4z M358.6,56.4
	c11-11,15.5-6.6,18.8-3.3l14.4,14.4c-4.4,4.4-8.8,7.7-9.9,9.9c-6.6,6.6-11,11-33.2-11L358.6,56.4z M275.5,182.7
	c-2.2,2.2-6.6,6.6-13.3,13.3l-17.7-17.7c-1.1-2.2-1.1-3.3-1.1-3.3c0-3.3,5.5-8.8,9.9-13.3c1.1-1.1,2.2-2.2,3.3-3.3l8.8-8.8
	C286.6,171.6,282.1,176,275.5,182.7z M252.2,383.2l14.4-14.4c4.4,4.4,7.7,7.7,9.9,9.9c6.6,6.6,11,11-11,33.2l-9.9-9.9
	C244.5,390.9,248.9,387.6,252.2,383.2z M381.8,485c2.2,2.2,6.6,6.6,13.3,13.3l-17.7,17.7c-2.2,2.2-3.3,2.2-3.3,2.2
	c-3.3,0-8.8-5.5-13.3-9.9c-1.1-1.1-2.2-2.2-3.3-3.3l-8.8-8.8C370.7,473.9,376.2,478.4,381.8,485z M612.1,442.9
	c-12.1-12.1-28.8-21.1-58.6,8.8l-73.1,73.1L404,448.4c-14.4-14.4-26.6-21.1-37.7-19.9c-9.9,1.1-16.6,7.7-21.1,11L318.7,465
	l-26.6-26.6l25.5-25.5c12.1-12.1,21.1-28.8-8.8-58.6l-73.1-73.1l76.4-76.4c29.9-29.9,19.9-47.6,8.8-58.6l-25.5-25.5L322,94.1
	l25.5,25.5c4.4,4.4,11,11,21.1,11c11,1.1,24.4-5.5,37.7-19.9l73.1-73.1l76.4,76.4c14.4,14.4,26.6,19.9,36.5,19.9
	c9.9,0,16.6-5.5,23.3-11l25.5-25.5l26.6,26.6L642,148.4c-12.1,12.1-21.1,28.8,8.8,58.6l73.1,73.1l-76.4,76.4
	c-29.9,29.9-19.9,47.6-8.8,58.6l25.5,25.5l-26.6,26.6L612.1,442.9z M602.2,505c-11,11-15.5,6.6-18.8,3.3l-14.4-14.4
	c4.4-4.4,7.7-7.7,9.9-9.9c6.6-6.6,11-11,33.2,11L602.2,505z M715.1,383.2c2.2,2.2,2.2,3.3,2.2,3.3c0,3.3-5.5,8.8-9.9,13.3
	l-12.1,12.1c-21.1-22.2-16.6-26.6-11-33.2c2.2-2.2,7.7-6.6,13.3-13.3L715.1,383.2z"/>
<path opacity="0.3" stroke="#000000" stroke-width="8" stroke-miterlimit="10" enable-background="new    " d="M198.8,232.3
	l15.8-14.8c4.1-4.1,5.7-7.3,4.9-11.5c0-4.1-14.2-19.4-20.1-24.4l0,13.5l6.5,5.5c2.3,2.8,3.3,4.5,3.7,6.1c0,0.6,0,1.8-1.8,4.3l-9,8
	L198.8,232.3z"/>
<path opacity="0.3" stroke="#000000" stroke-width="8" stroke-miterlimit="10" enable-background="new    " d="M761.8,219.1l-9-8
	c-1.8-2.5-1.8-3.7-1.8-4.3c0.4-1.7,1.4-3.4,3.7-6.1l6.5-5.5l0-13.5c-5.9,5-20.1,20.3-20.1,24.4c-0.8,4.2,0.8,7.4,4.9,11.5l15.8,14.8
	L761.8,219.1z"/>
<path opacity="0.3" stroke="#000000" stroke-width="8" stroke-miterlimit="10" enable-background="new    " d="M198.9,343.6l9,8
	c1.8,2.5,1.8,3.7,1.8,4.3c-0.4,1.7-1.4,3.4-3.7,6.1l-6.5,5.5l0,13.5c5.9-5,20.1-20.3,20.1-24.4c0.8-4.2-0.8-7.4-4.9-11.5l-15.8-14.8
	L198.9,343.6z"/>
<path opacity="0.3" stroke="#000000" stroke-width="8" stroke-miterlimit="10" enable-background="new    " d="M761.8,330.4
	L746,345.2c-4.1,4.1-5.7,7.3-4.9,11.5c0,4.1,14.2,19.4,20.1,24.4l0-13.5l-6.5-5.5c-2.3-2.8-3.3-4.5-3.7-6.1c0-0.6,0-1.8,1.8-4.3l9-8
	L761.8,330.4z"/>
<path opacity="0.3" stroke="#000000" stroke-width="8" stroke-miterlimit="10" enable-background="new    " d="M540.6,560.8l8-9
	c2.5-1.8,3.7-1.8,4.3-1.8c1.7,0.4,3.4,1.4,6.1,3.7l5.5,6.5l13.5,0c-5-5.9-20.3-20.1-24.4-20.1c-4.2-0.8-7.4,0.8-11.5,4.9l-14.8,15.8
	L540.6,560.8z"/>
<path opacity="0.3" stroke="#000000" stroke-width="8" stroke-miterlimit="10" enable-background="new    " d="M527.4-2.2l14.8,15.8
	c4.1,4.1,7.3,5.7,11.5,4.9c4.1,0,19.4-14.2,24.4-20.1l-13.5,0L559.1,5c-2.8,2.3-4.5,3.3-6.1,3.7c-0.6,0-1.8,0-4.3-1.8l-8-9
	L527.4-2.2z"/>
<path opacity="0.3" stroke="#000000" stroke-width="8" stroke-miterlimit="10" enable-background="new    " d="M429.3,560.8
	L414.4,545c-4.1-4.1-7.3-5.7-11.5-4.9c-4.1,0-19.4,14.2-24.4,20.1l13.5,0l5.5-6.5c2.8-2.3,4.5-3.3,6.1-3.7c0.6,0,1.8,0,4.3,1.8l8,9
	L429.3,560.8z"/>
<path opacity="0.3" stroke="#000000" stroke-width="8" stroke-miterlimit="10" enable-background="new    " d="M416.1-2.1l-8,9
	c-2.5,1.8-3.7,1.8-4.3,1.8c-1.7-0.4-3.4-1.4-6.1-3.7l-5.5-6.5l-13.5,0c5,5.9,20.3,20.1,24.4,20.1c4.2,0.8,7.4-0.8,11.5-4.9
	l14.8-15.8L416.1-2.1z"/>
<g opacity="0.3">
	<polygon stroke="#000000" stroke-width="8" stroke-miterlimit="10" points="198,120.9 198,106.1 307.4,-3.2 322.2,-3.2 	"/>
	<polygon stroke="#000000" stroke-width="8" stroke-miterlimit="10" points="763.1,120.3 635.1,-6.7 650,-6.7 763.1,105.4 	"/>
	<polygon stroke="#000000" stroke-width="8" stroke-miterlimit="10" points="307,565.3 197.2,455.6 197.2,439.7 321.8,565.3 	"/>
	<polygon stroke="#000000" stroke-width="8" stroke-miterlimit="10" points="655.1,561.9 640.2,561.9 763.6,438.6 763.6,453.5 	"/>
</g>
<g opacity="0.3">
	<polygon stroke="#000000" stroke-width="8" stroke-miterlimit="10" points="198.9,71.6 198.9,56.7 258.2,-2.6 273.1,-2.6 	"/>
	<polygon stroke="#000000" stroke-width="8" stroke-miterlimit="10" points="762.2,73.1 686.1,-3 701,-3 762.2,58.2 	"/>
	<polygon stroke="#000000" stroke-width="8" stroke-miterlimit="10" points="254.9,560.7 196.9,502.8 196.9,487.9 269.8,560.7 	"/>
	<polygon stroke="#000000" stroke-width="8" stroke-miterlimit="10" points="702.7,562.7 687.8,562.7 763.1,487.4 763.1,502.3 	"/>
</g>
<g opacity="0.3">
	<polygon stroke="#000000" stroke-width="8" stroke-miterlimit="10" points="199.9,23.5 199.9,7.1 207,0 223.4,0 	"/>
	<polygon stroke="#000000" stroke-width="8" stroke-miterlimit="10" points="759.9,23.7 735.7,-0.5 752,-0.5 759.9,7.4 	"/>
	<polygon stroke="#000000" stroke-width="8" stroke-miterlimit="10" points="204.5,559.1 200.8,555.4 200.8,539 220.9,559.1 	"/>
	<polygon stroke="#000000" stroke-width="8" stroke-miterlimit="10" points="755.3,558.8 739,558.8 759.5,538.3 759.5,554.6 	"/>
</g>
<path opacity="0.3" stroke="#000000" stroke-width="8" stroke-miterlimit="10" enable-background="new    " d="M480.4,494.8
	L397,411.4h-46.7v-46.7l-83.4-83.4l83.4-83.4v-46.7H397l83.4-83.4l83.4,83.4h46.7v46.7l83.4,83.4l-83.4,83.4v46.7h-46.7L480.4,494.8
	z M361.3,400.3h40.1l79,79l79-79h40.1v-40l79-79l-79-79v-40.1h-40.1l-79-79l-79,79h-40.1v40.1l-79,79l79,79L361.3,400.3L361.3,400.3
	z"/>
<path opacity="0.3" stroke="#000000" stroke-width="2" stroke-miterlimit="10" enable-background="new    " d="M504.6,294.4v25.2
	L480,333.3l-24.6-13.8v-27.9l27.9-15.4c1.9-1.1,3.6-3.1,3.6-5.2l0.4-19.5l-11.8,0v15.7l-13.7,7.6l-6.3-3.1v-27.7l24.6-14l24.6,14
	v27.9l-26.9,15.6c-10.7,6.1-17.8,10.7-17.8,25.5v4.6h12.3v-4.6c0-8.3,2.6-9.6,12-15c0,0,29.7-17.4,29.7-17.4c1.8-1.1,3-3.1,3-5.2
	v-34.8c0-2.2-1-4.2-2.9-5.2l-30.5-17.4c-1.9-1.1-4.1-1.1-5.9,0l-31.1,17.4c-1.9,1.1-3.6,3.1-3.6,5.2v34.8c0,2.2,1.8,4.2,3.7,5.3
	l2.7,1.3l-2.6,1.1c-1.9,1.1-3.9,3.2-3.9,5.4v34.8c0,2.2,2.1,4.3,4,5.4l30.6,17.4c1,0.6,2.3,0.8,3.4,0.8c1.1,0,2.3-0.3,3.2-0.8
	l29.9-17.4c1.9-1.1,2.9-3.2,2.9-5.4v-28.8H504.6z"/>
</svg>
