<?xml version="1.0" encoding="utf-8"?>
<!-- Generator: Adobe Illustrator 17.1.0, SVG Export Plug-In . SVG Version: 6.00 Build 0)  -->
<!DOCTYPE svg PUBLIC "-//W3C//DTD SVG 1.1//EN" "http://www.w3.org/Graphics/SVG/1.1/DTD/svg11.dtd">
<svg version="1.1" id="Laag_1" xmlns="http://www.w3.org/2000/svg" xmlns:xlink="http://www.w3.org/1999/xlink" x="0px" y="0px"
	 viewBox="200.2 1.2 558.4 558.6" enable-background="new 200.2 1.2 558.4 558.6" xml:space="preserve">
<path opacity="0.3" enable-background="new    " d="M480.6,339.1L422,280.6l58.5-58.5l58.5,58.5L480.6,339.1z M437.5,280.6
	l43.1,43.1l43.1-43.1l-43.1-43.1L437.5,280.6z"/>
<path opacity="0.3" enable-background="new    " d="M480.6,393.2L367.9,280.6l112.7-112.7l112.7,112.7L480.6,393.2z M383.4,280.6
	l97.2,97.2l97.2-97.2l-97.2-97.2L383.4,280.6z"/>
<path opacity="0.3" enable-background="new    " d="M480.6,445.1L316,280.6L480.6,116l164.6,164.6L480.6,445.1z M331.4,280.6
	l149.1,149.1l149.1-149.1L480.6,130.3L331.4,280.6z"/>
<polygon opacity="0.3" enable-background="new    " points="200,164.6 200,149.1 351.3,0 366.8,0 "/>
<polygon opacity="0.3" enable-background="new    " points="760,166.8 595.4,0 610.9,0 760,150.2 "/>
<polygon opacity="0.3" enable-background="new    " points="609.8,560 594.3,560 760,395.4 760,410.9 "/>
<polygon opacity="0.3" enable-background="new    " points="349.1,560 200,409.8 200,394.3 364.6,560 "/>
<path opacity="0.3" enable-background="new    " d="M760,285c0,0-72.9,74-83.9,85c-15.5,15.5-8.8,28.7,11,48.6L672.7,433l-25.4-25.4
	c-4.4-4.4-7.7-7.7-7.7-14.4c0-7.7,5.5-17.7,16.6-29.8l83.9-83.9l-81.7-80.6c-25.4-25.4-15.5-36.4-8.8-43.1l25.4-25.4l9.9,9.9
	c-19.9,19.9-26.5,33.1-11,48.6c11,11,85,83.9,85,83.9v-15.5c0,0-36.4-35.3-59.6-58.5l14.4-14.4c5.5-5.5,7.7-9.9,6.6-15.5
	c0-5.5-4.4-12.1-11-18.8L607.6,48.6l-3.3-3.3c-4.4-6.6-9.9-12.1-17.7-12.1c-4.4,0-7.7,2.2-11,5.5l-18.8,16.6
	C533.6,32,500.4,0,500.4,0H485c0,0,74,72.9,85,83.9c5.5,5.5,11,8.8,16.6,8.8c9.9,0,19.9-6.6,30.9-18.8L633,88.4l-25.4,25.4
	c-6.6,6.6-17.7,17.7-43.1-8.8L480.6,21l-80.6,80.6c-11,11-22.1,17.7-29.8,16.6c-5.5,0-9.9-4.4-14.4-7.7L330.3,85l9.9-9.9
	c11,11,19.9,16.6,26.5,18.8c2.2,0,3.3,1.1,4.4,1.1c7.7,0,13.3-4.4,17.7-8.8c11-11,83.9-85,83.9-85h-15.5c0,0-35.3,36.4-58.5,59.6
	l-14.4-14.4c-9.9-9.9-22.1-8.8-34.2,3.3L248.6,151.3l-3.3,3.3c-5.5,5.5-12.1,12.1-12.1,19.9c0,4.4,2.2,7.7,5.5,11l16.6,17.7
	C232,226.4,200,259.6,200,259.6V275c0,0,72.9-74,83.9-85c15.5-15.5,8.8-28.7-11-48.6l15.5-14.4l25.4,25.4
	c6.6,6.6,17.7,17.7-8.8,43.1L221,279.4l80.6,80.6c25.4,25.4,15.5,36.4,8.8,43.1L285,428.6l-9.9-8.8c19.9-19.9,25.4-33.1,9.9-48.6
	c-11-11-86.2-83.9-86.2-83.9v15.5c0,0,36.4,35.3,59.6,58.5l-13.3,14.4c-9.9,9.9-8.8,22.1,4.4,34.2l101.6,101.6l3.3,4.4
	c6.6,6.6,13.3,14.4,21,14.4l0,0c4.4,0,7.7-2.2,11-5.5l17.7-17.7c23.2,23.2,56.3,55.2,56.3,55.2h15.5c0,0-74-72.9-85-83.9
	c-15.5-15.5-28.7-8.8-48.6,9.9l-14.4-14.4l25.4-25.4c4.4-4.4,7.7-7.7,14.4-7.7c7.7,0,17.7,5.5,29.8,16.6l83.9,83.9l80.6-80.6
	c26.5-25.4,36.4-15.5,43.1-8.8l25.4,25.4l-11,8.8c-19.9-19.9-33.1-26.5-48.6-11c-11,11-83.9,85-83.9,85h15.5
	c0,0,35.3-36.4,58.5-59.6l14.4,14.4c4.4,4.4,9.9,6.6,14.4,6.6h1.1c5.5,0,12.1-4.4,18.8-11l101.6-101.6l3.3-3.3
	c6.6-6.6,13.3-13.3,13.3-21c0-4.4-2.2-7.7-5.5-11l-17.7-17.7c23.2-23.2,55.2-56.3,55.2-56.3L760,285z M711.4,170.1
	c0,1.1,0,3.3-3.3,7.7l-14.4,14.4c-4.4-4.4-7.7-7.7-9.9-9.9c-6.6-6.6-11-11,11-33.1l9.9,9.9C708.1,163.5,710.3,166.8,711.4,170.1z
	 M577.8,76.2c-2.2-2.2-6.6-6.6-13.3-13.3l17.7-17.7c2.2-1.1,3.3-1.1,3.3-1.1c3.3,0,8.8,5.5,13.3,9.9c1.1,1.1,2.2,2.2,3.3,3.3
	l8.8,8.8C588.8,87.3,584.4,82.8,577.8,76.2z M359.1,56.3c11-11,15.5-6.6,18.8-3.3l14.4,14.4c-4.4,4.4-8.8,7.7-9.9,9.9
	c-6.6,6.6-11,11-33.1-11L359.1,56.3z M276.2,182.2c-2.2,2.2-6.6,6.6-13.3,13.3l-17.7-17.7c-1.1-2.2-1.1-3.3-1.1-3.3
	c0-3.3,5.5-8.8,9.9-13.3c1.1-1.1,2.2-2.2,3.3-3.3l8.8-8.8C287.3,171.2,282.8,175.6,276.2,182.2z M253,382.2l14.4-14.4
	c4.4,4.4,7.7,7.7,9.9,9.9c6.6,6.6,11,11-11,33.1l-9.9-9.9C245.3,389.9,249.7,386.6,253,382.2z M382.2,483.8
	c2.2,2.2,6.6,6.6,13.3,13.3l-17.7,17.7c-2.2,2.2-3.3,2.2-3.3,2.2c-3.3,0-8.8-5.5-13.3-9.9c-1.1-1.1-2.2-2.2-3.3-3.3l-8.8-8.8
	C371.2,472.7,376.7,477.2,382.2,483.8z M612,441.8c-12.1-12.1-28.7-21-58.5,8.8l-72.9,72.9l-76.2-76.2c-14.4-14.4-26.5-21-37.6-19.9
	c-9.9,1.1-16.6,7.7-21,11l-26.5,25.4l-26.5-26.5l25.4-25.4c12.1-12.1,21-28.7-8.8-58.5l-72.9-72.9l76.2-76.2
	c29.8-29.8,19.9-47.5,8.8-58.5l-25.4-25.4l26.5-26.5l25.4,25.4c4.4,4.4,11,11,21,11c11,1.1,24.3-5.5,37.6-19.9l72.9-72.9l76.2,76.2
	c14.4,14.4,26.5,19.9,36.4,19.9c9.9,0,16.6-5.5,23.2-11l25.4-25.4l26.5,26.5L641.8,148c-12.1,12.1-21,28.7,8.8,58.5l72.9,72.9
	l-76.2,76.2c-29.8,29.8-19.9,47.5-8.8,58.5l25.4,25.4l-26.5,26.5L612,441.8z M602.1,503.7c-11,11-15.5,6.6-18.8,3.3l-14.4-14.4
	c4.4-4.4,7.7-7.7,9.9-9.9c6.6-6.6,11-11,33.1,11L602.1,503.7z M714.7,382.2c2.2,2.2,2.2,3.3,2.2,3.3c0,3.3-5.5,8.8-9.9,13.3
	l-12.1,12.1c-21-22.1-16.6-26.5-11-33.1c2.2-2.2,7.7-6.6,13.3-13.3L714.7,382.2z"/>
<g opacity="0.3">
	<polygon points="198.9,101.6 198.9,86.2 286.2,-1.1 301.6,-1.1 	"/>
	<polygon points="762.2,100.5 659.5,-1.1 675,-1.1 762.2,85 	"/>
	<polygon points="286.2,562.2 198.9,475 198.9,458.4 301.6,562.2 	"/>
	<polygon points="675,560 659.5,560 760,459.5 760,475 	"/>
</g>
<g opacity="0.3">
	<polygon points="200,54.1 200,38.7 238.7,0 254.1,0 	"/>
	<polygon points="760,54.1 705.9,0 721.3,0 760,38.7 	"/>
	<polygon points="238.7,560 200,521.3 200,505.9 254.1,560 	"/>
	<polygon points="721.3,560 705.9,560 760,505.9 760,521.3 	"/>
</g>
<path opacity="0.3" enable-background="new    " d="M480.6,492.6l-82.8-82.8h-46.4v-46.4l-82.8-82.8l82.8-82.8v-46.4h46.4l82.8-82.8
	l82.8,82.8h46.4v46.4l82.8,82.8l-82.8,82.8v46.4h-46.4L480.6,492.6z M362.4,398.7h39.8l78.4,78.4l78.4-78.4h39.8V359l78.4-78.4
	l-78.4-78.4v-39.8H559l-78.4-78.4l-78.4,78.4h-39.8v39.8l-78.4,78.4l78.4,78.4V398.7L362.4,398.7z"/>
</svg>
