<?xml version="1.0" encoding="utf-8"?>
<!-- Generator: Adobe Illustrator 17.1.0, SVG Export Plug-In . SVG Version: 6.00 Build 0)  -->
<!DOCTYPE svg PUBLIC "-//W3C//DTD SVG 1.1//EN" "http://www.w3.org/Graphics/SVG/1.1/DTD/svg11.dtd">
<svg version="1.1" id="Laag_1" xmlns="http://www.w3.org/2000/svg" xmlns:xlink="http://www.w3.org/1999/xlink" x="0px" y="0px"
	 viewBox="200 0 560 560" enable-background="new 200 0 560 560" xml:space="preserve">
<path opacity="0.3" enable-background="new    " d="M480.4,394.2l-113-112.9l113-113l113,113L480.4,394.2z M383,281.3l97.4,97.4
	l97.4-97.4l-97.4-97.4L383,281.3z"/>
<path opacity="0.3" enable-background="new    " d="M480.4,446.2l-165-164.9l165-165l165,165L480.4,446.2z M330.8,281.3l149.5,149.5
	l149.5-149.5L480.4,130.6L330.8,281.3z"/>
<polygon opacity="0.3" enable-background="new    " points="199.1,165 199.1,149.5 350.8,0 366.3,0 "/>
<polygon opacity="0.3" enable-background="new    " points="760.5,167.2 595.5,0 611,0 760.5,150.6 "/>
<polygon opacity="0.3" enable-background="new    " points="609.9,561.4 594.4,561.4 760.5,396.4 760.5,411.9 "/>
<polygon opacity="0.3" enable-background="new    " points="348.6,561.4 199.1,410.8 199.1,395.3 364.1,561.4 "/>
<path opacity="0.3" enable-background="new    " d="M760.5,285.7c0,0-73.1,74.2-84.1,85.2c-15.5,15.5-8.8,28.8,11,48.7L673,434.1
	l-25.5-25.5c-4.4-4.4-7.7-7.7-7.7-14.4c0-7.7,5.5-17.7,16.6-29.9l84.1-84.1l-81.9-80.8c-25.5-25.5-15.5-36.5-8.8-43.2l25.5-25.5
	l9.9,9.9c-19.9,19.9-26.6,33.2-11,48.7c11,11,85.2,84.1,85.2,84.1v-15.5c0,0-36.5-35.4-59.7-58.6l14.4-14.4
	c5.5-5.5,7.7-9.9,6.6-15.5c0-5.5-4.4-12.1-11-18.8l-102-101.8l-3.3-3.3c-4.4-6.6-9.9-12.1-17.7-12.1c-4.4,0-7.7,2.2-11,5.5
	l-18.8,16.6C533.5,32.1,500.3,0,500.3,0h-15.4c0,0,74.2,73.1,85.2,84.1c5.5,5.5,11,8.8,16.6,8.8c9.9,0,19.9-6.6,31-18.8l15.5,14.5
	l-25.5,25.5c-6.6,6.6-17.7,17.7-43.2-8.8L480.4,21l-80.8,80.8c-11,11-22.2,17.7-29.9,16.6c-5.5,0-9.9-4.4-14.4-7.7l-25.6-25.6
	l9.9-9.9c11,11,19.9,16.6,26.6,18.8c2.2,0,3.3,1.1,4.4,1.1c7.7,0,13.3-4.4,17.7-8.8c11-11,84.1-85.2,84.1-85.2h-15.5
	c0,0-35.4,36.5-58.6,59.7l-14.4-14.4c-9.9-9.9-22.2-8.8-34.3,3.3L247.8,151.7l-3.3,3.3c-5.5,5.5-12.1,12.1-12.1,19.9
	c0,4.4,2.2,7.7,5.5,11l16.6,17.7c-23.4,23.3-55.4,56.5-55.4,56.5v15.4c0,0,73.1-74.2,84.1-85.2c15.5-15.5,8.8-28.8-11-48.7
	l15.5-14.4l25.5,25.5c6.6,6.6,17.7,17.7-8.8,43.2l-84.2,84.1l80.8,80.8c25.5,25.5,15.5,36.5,8.8,43.2l-25.5,25.6l-9.9-8.8
	c19.9-19.9,25.5-33.2,9.9-48.7c-11-11-86.4-84.1-86.4-84.1v15.5c0,0,36.5,35.4,59.7,58.6l-13.3,14.4c-9.9,9.9-8.8,22.2,4.4,34.3
	l101.9,101.9l3.3,4.4c6.6,6.6,13.3,14.4,21.1,14.4l0,0c4.4,0,7.7-2.2,11-5.5l17.7-17.7c23.3,23.3,56.4,55.3,56.4,55.3h15.5
	c0,0-74.2-73.1-85.2-84.1c-15.5-15.5-28.8-8.8-48.7,9.9l-14.4-14.4l25.5-25.5c4.4-4.4,7.7-7.7,14.4-7.7c7.7,0,17.7,5.5,29.9,16.6
	l84.1,84.1l80.8-80.8c26.6-25.5,36.5-15.5,43.2-8.8l25.5,25.5l-11,8.8c-19.9-19.9-33.2-26.6-48.7-11c-11,11-84.1,85.2-84.1,85.2
	h15.5c0,0,35.4-36.5,58.6-59.7l14.4,14.4c4.4,4.4,9.9,6.6,14.4,6.6h1.1c5.5,0,12.1-4.4,18.8-11l101.9-101.9l3.3-3.3
	c6.6-6.6,13.3-13.3,13.3-21.1c0-4.4-2.2-7.7-5.5-11l-17.7-17.7c23.3-23.3,55.3-56.4,55.3-56.4L760.5,285.7z M711.8,170.5
	c0,1.1,0,3.3-3.3,7.7L694,192.7c-4.4-4.4-7.7-7.7-9.9-9.9c-6.6-6.6-11-11,11-33.2l9.9,9.9C708.5,163.9,710.7,167.2,711.8,170.5z
	 M577.8,76.4c-2.2-2.2-6.6-6.6-13.3-13.3l17.7-17.7c2.2-1.1,3.3-1.1,3.3-1.1c3.3,0,8.8,5.5,13.3,9.9c1.1,1.1,2.2,2.2,3.3,3.3
	l8.8,8.8C588.9,87.5,584.5,83,577.8,76.4z M358.6,56.4c11-11,15.5-6.6,18.8-3.3l14.4,14.4c-4.4,4.4-8.8,7.7-9.9,9.9
	c-6.6,6.6-11,11-33.2-11L358.6,56.4z M275.5,182.7c-2.2,2.2-6.6,6.6-13.3,13.3l-17.7-17.7c-1.1-2.2-1.1-3.3-1.1-3.3
	c0-3.3,5.5-8.8,9.9-13.3c1.1-1.1,2.2-2.2,3.3-3.3l8.8-8.8C286.6,171.6,282.1,176,275.5,182.7z M252.2,383.2l14.4-14.4
	c4.4,4.4,7.7,7.7,9.9,9.9c6.6,6.6,11,11-11,33.2l-9.9-9.9C244.5,390.9,248.9,387.6,252.2,383.2z M381.8,485
	c2.2,2.2,6.6,6.6,13.3,13.3l-17.7,17.7c-2.2,2.2-3.3,2.2-3.3,2.2c-3.3,0-8.8-5.5-13.3-9.9c-1.1-1.1-2.2-2.2-3.3-3.3l-8.8-8.8
	C370.7,473.9,376.2,478.4,381.8,485z M612.1,442.9c-12.1-12.1-28.8-21.1-58.6,8.8l-73.1,73.1L404,448.4
	c-14.4-14.4-26.6-21.1-37.7-19.9c-9.9,1.1-16.6,7.7-21.1,11L318.7,465l-26.6-26.6l25.5-25.5c12.1-12.1,21.1-28.8-8.8-58.6
	l-73.1-73.1l76.4-76.4c29.9-29.9,19.9-47.6,8.8-58.6l-25.5-25.5L322,94.1l25.5,25.5c4.4,4.4,11,11,21.1,11
	c11,1.1,24.4-5.5,37.7-19.9l73.1-73.1l76.4,76.4c14.4,14.4,26.6,19.9,36.5,19.9c9.9,0,16.6-5.5,23.3-11l25.5-25.5l26.6,26.6
	L642,148.4c-12.1,12.1-21.1,28.8,8.8,58.6l73.1,73.1l-76.4,76.4c-29.9,29.9-19.9,47.6-8.8,58.6l25.5,25.5l-26.6,26.6L612.1,442.9z
	 M602.2,505c-11,11-15.5,6.6-18.8,3.3l-14.4-14.4c4.4-4.4,7.7-7.7,9.9-9.9c6.6-6.6,11-11,33.2,11L602.2,505z M715.1,383.2
	c2.2,2.2,2.2,3.3,2.2,3.3c0,3.3-5.5,8.8-9.9,13.3l-12.1,12.1c-21.1-22.2-16.6-26.6-11-33.2c2.2-2.2,7.7-6.6,13.3-13.3L715.1,383.2z"
	/>
<path opacity="0.3" enable-background="new    " d="M198.8,232.3l15.8-14.8c4.1-4.1,5.7-7.3,4.9-11.5c0-4.1-14.2-19.4-20.1-24.4
	l0,13.5l6.5,5.5c2.3,2.8,3.3,4.5,3.7,6.1c0,0.6,0,1.8-1.8,4.3l-9,8L198.8,232.3z"/>
<path opacity="0.3" enable-background="new    " d="M761.8,219.1l-9-8c-1.8-2.5-1.8-3.7-1.8-4.3c0.4-1.7,1.4-3.4,3.7-6.1l6.5-5.5
	l0-13.5c-5.9,5-20.1,20.3-20.1,24.4c-0.8,4.2,0.8,7.4,4.9,11.5l15.8,14.8L761.8,219.1z"/>
<path opacity="0.3" enable-background="new    " d="M198.9,343.6l9,8c1.8,2.5,1.8,3.7,1.8,4.3c-0.4,1.7-1.4,3.4-3.7,6.1l-6.5,5.5
	l0,13.5c5.9-5,20.1-20.3,20.1-24.4c0.8-4.2-0.8-7.4-4.9-11.5l-15.8-14.8L198.9,343.6z"/>
<path opacity="0.3" enable-background="new    " d="M761.8,330.4L746,345.2c-4.1,4.1-5.7,7.3-4.9,11.5c0,4.1,14.2,19.4,20.1,24.4
	l0-13.5l-6.5-5.5c-2.3-2.8-3.3-4.5-3.7-6.1c0-0.6,0-1.8,1.8-4.3l9-8L761.8,330.4z"/>
<path opacity="0.3" enable-background="new    " d="M540.6,560.8l8-9c2.5-1.8,3.7-1.8,4.3-1.8c1.7,0.4,3.4,1.4,6.1,3.7l5.5,6.5
	l13.5,0c-5-5.9-20.3-20.1-24.4-20.1c-4.2-0.8-7.4,0.8-11.5,4.9l-14.8,15.8L540.6,560.8z"/>
<path opacity="0.3" enable-background="new    " d="M527.4-2.2l14.8,15.8c4.1,4.1,7.3,5.7,11.5,4.9c4.1,0,19.4-14.2,24.4-20.1
	l-13.5,0L559.1,5c-2.8,2.3-4.5,3.3-6.1,3.7c-0.6,0-1.8,0-4.3-1.8l-8-9L527.4-2.2z"/>
<path opacity="0.3" enable-background="new    " d="M429.3,560.8L414.4,545c-4.1-4.1-7.3-5.7-11.5-4.9c-4.1,0-19.4,14.2-24.4,20.1
	l13.5,0l5.5-6.5c2.8-2.3,4.5-3.3,6.1-3.7c0.6,0,1.8,0,4.3,1.8l8,9L429.3,560.8z"/>
<path opacity="0.3" enable-background="new    " d="M416.1-2.1l-8,9c-2.5,1.8-3.7,1.8-4.3,1.8c-1.7-0.4-3.4-1.4-6.1-3.7l-5.5-6.5
	l-13.5,0c5,5.9,20.3,20.1,24.4,20.1c4.2,0.8,7.4-0.8,11.5-4.9l14.8-15.8L416.1-2.1z"/>
<g opacity="0.3">
	<polygon points="198,101.9 198,86.4 285.5,-1.1 301,-1.1 	"/>
	<polygon points="762.7,100.7 659.8,-1.1 675.3,-1.1 762.7,85.2 	"/>
	<polygon points="285.5,563.6 198,476.2 198,459.5 301,563.6 	"/>
	<polygon points="675.3,561.4 659.8,561.4 760.5,460.6 760.5,476.2 	"/>
</g>
<g opacity="0.3">
	<polygon points="199.1,54.2 199.1,38.8 237.9,0 253.3,0 	"/>
	<polygon points="760.5,54.2 706.3,0 721.7,0 760.5,38.8 	"/>
	<polygon points="237.9,561.4 199.1,522.6 199.1,507.2 253.3,561.4 	"/>
	<polygon points="721.7,561.4 706.3,561.4 760.5,507.2 760.5,522.6 	"/>
</g>
<path opacity="0.3" enable-background="new    " d="M480.4,493.8l-83-83h-46.5v-46.5l-83-83l83-83v-46.5h46.5l83-83l83,83h46.5v46.5
	l83,83l-83,83v46.5h-46.5L480.4,493.8z M361.9,399.7h39.9l78.6,78.6l78.6-78.6h39.9v-39.8l78.6-78.6l-78.6-78.6v-39.9H559
	l-78.6-78.6l-78.6,78.6h-39.9v39.9l-78.6,78.6l78.6,78.6L361.9,399.7L361.9,399.7z"/>
<path opacity="0.3" enable-background="new    " d="M503,293.5V317l-23,12.9L457,317V291l26-14.4c1.8-1,3.3-2.9,3.3-4.9l0.4-18.2
	l-11,0v14.6l-12.8,7.1l-5.9-2.9v-25.9l23-13l23,13v26L477.9,287c-9.9,5.7-16.6,10-16.6,23.8v4.3h11.5v-4.3c0-7.8,2.4-9,11.2-14
	c0,0,27.8-16.3,27.8-16.3c1.7-1,2.8-2.9,2.8-4.8v-32.5c0-2-0.9-3.9-2.7-4.9L483.4,222c-1.7-1-3.8-1-5.5,0l-29,16.2
	c-1.8,1-3.3,2.9-3.3,4.9v32.5c0,2.1,1.7,4,3.5,4.9l2.6,1.2l-2.4,1c-1.8,1-3.6,3-3.6,5.1v32.5c0,2.1,1.9,4,3.7,5.1l28.5,16.2
	c0.9,0.5,2.1,0.8,3.1,0.8c1,0,2.1-0.3,3-0.8l27.9-16.2c1.8-1,2.7-3,2.7-5.1v-26.9H503z"/>
</svg>
