<?xml version="1.0" encoding="utf-8"?>
<!-- Generator: Adobe Illustrator 16.0.0, SVG Export Plug-In . SVG Version: 6.00 Build 0)  -->
<!DOCTYPE svg PUBLIC "-//W3C//DTD SVG 1.1//EN" "http://www.w3.org/Graphics/SVG/1.1/DTD/svg11.dtd">
<svg version="1.1" id="Layer_1" xmlns="http://www.w3.org/2000/svg" xmlns:xlink="http://www.w3.org/1999/xlink" x="0px" y="0px"
	 width="53px" height="57.274px" viewBox="0 0 53 57.274" enable-background="new 0 0 53 57.274" xml:space="preserve">
<path fill="#6666AD" d="M46.199,9.188L33.264,1.69C31.377,0.6,28.951,0,26.389,0c-2.563,0-5.001,0.6-6.889,1.69L6.708,9.188
	C2.838,11.422,0,16.672,0,21.14v14.995c0,4.468,2.846,9.719,6.713,11.953l12.894,7.496c1.887,1.091,4.291,1.69,6.854,1.69
	c2.562,0,4.989-0.6,6.877-1.69l12.873-7.496C50.082,45.854,53,40.603,53,36.135V21.14C53,16.672,50.069,11.422,46.199,9.188z"/>
<circle fill="#FFFFFF" cx="26.5" cy="28.589" r="12.247"/>
<circle fill="#6666AD" cx="26.5" cy="28.589" r="6.514"/>
</svg>
