<?xml version="1.0" encoding="utf-8"?>
<!-- Generator: Adobe Illustrator 16.0.0, SVG Export Plug-In . SVG Version: 6.00 Build 0)  -->
<!DOCTYPE svg PUBLIC "-//W3C//DTD SVG 1.1//EN" "http://www.w3.org/Graphics/SVG/1.1/DTD/svg11.dtd">
<svg version="1.1" id="Layer_1" xmlns="http://www.w3.org/2000/svg" xmlns:xlink="http://www.w3.org/1999/xlink" x="0px" y="0px"
	 width="53px" height="57.274px" viewBox="0 0 53 57.274" enable-background="new 0 0 53 57.274" xml:space="preserve">
<path fill="#EF4C4C" d="M46.336,9.188L33.469,1.69C31.582,0.6,29.191,0,26.627,0c-2.562,0-4.983,0.6-6.871,1.69L6.836,9.188
	C2.966,11.422,0,16.672,0,21.14v14.995c0,4.468,2.981,9.719,6.851,11.953l12.96,7.496c1.887,1.091,4.326,1.69,6.889,1.69
	c2.562,0,5.006-0.6,6.894-1.69l12.746-7.496c3.87-2.234,6.66-7.485,6.66-11.953V21.14C53,16.672,50.206,11.422,46.336,9.188z"/>
<polygon fill="#FFFFFF" points="27.37,38.418 17.961,22.737 36.777,22.737 "/>
</svg>
