<?xml version="1.0" encoding="utf-8"?>
<!-- Generator: Adobe Illustrator 17.1.0, SVG Export Plug-In . SVG Version: 6.00 Build 0)  -->
<!DOCTYPE svg PUBLIC "-//W3C//DTD SVG 1.1//EN" "http://www.w3.org/Graphics/SVG/1.1/DTD/svg11.dtd">
<svg version="1.1" id="Layer_1" xmlns="http://www.w3.org/2000/svg" xmlns:xlink="http://www.w3.org/1999/xlink" x="0px" y="0px"
	 viewBox="-3.1 -2.1 64.2 67" enable-background="new -3.1 -2.1 64.2 67" xml:space="preserve">
<g>
	<g opacity="0">
		<path fill="#D5D8E2" d="M29-1.9c-4.3,0-8.4,1.1-11.8,3.1l0,0l0,0L8.6,6.1c-7,4.1-11.7,12.3-11.7,20.5v9.9
			c0,8.2,4.7,16.4,11.7,20.5l8.5,4.9c3.5,2,7.6,3.1,11.8,3.1c4.3,0,8.3-1.1,11.8-3.1l8.6-5c7.1-4.1,11.8-12.3,11.8-20.5v-9.9
			c0-8.2-4.7-16.4-11.8-20.5l-8.6-5C37.3-0.9,33.2-1.9,29-1.9L29-1.9z"/>
	</g>
	<g opacity="2.272727e-03">
		<path fill="#D5D8E2" d="M29-1.6L29-1.6c2.5,0,4.9,0.4,7.2,1.1c1.6,0.5,3.2,1.2,4.6,2l8.5,4.9c6.9,4,11.5,12,11.5,19.9
			c0,0.1,0,9.6,0,9.6c0,4-1.2,8.6-3.2,12.1c-2,3.5-4.9,6.6-8.3,8.6l-8.6,5c-1.2,0.7-2.6,1.4-4,1.8c-2.4,0.8-5.1,1.3-7.8,1.3
			c-2.5,0-4.9-0.4-7.1-1.1c-1.6-0.5-3.2-1.2-4.6-2l-8.5-4.9C4,53.9,0.3,49.2-1.5,43.9c-0.8-2.4-1.3-5.1-1.3-7.6v-9.8
			c0-8,4.6-16.1,11.4-20l8.5-5l0,0l0,0c1.2-0.7,2.6-1.4,4-1.8C23.6-1.2,26.3-1.6,29-1.6"/>
	</g>
	<g opacity="4.545454e-03">
		<path fill="#D5D8E2" d="M29-1.3L29-1.3c2.5,0,4.9,0.4,7.1,1.1c1.5,0.5,3.3,1.3,4.6,2.1l8.5,4.9c6.7,3.8,11.2,11.6,11.3,19.3
			c0,0.1,0.1,9.2,0.1,9.3c0,3.8-1.1,8.9-3.1,12.2c-1.9,3.5-4.8,6.7-8.2,8.7l-8.6,5c-1.1,0.7-2.7,1.4-3.9,1.8c-2.4,0.9-5,1.3-7.7,1.3
			c-2.5,0-4.9-0.4-7.1-1.1c-1.5-0.5-3.2-1.2-4.5-2l-8.5-5c-4.7-2.7-8.3-7.4-10-12.7c-0.8-2.2-1.2-5.1-1.2-7.5v-9.8
			c0-7.8,4.5-15.7,11.2-19.6l8.5-5l0,0l0,0C18.5,1.1,20,0.4,21.3,0C23.7-0.9,26.3-1.3,29-1.3"/>
	</g>
	<g opacity="6.818182e-03">
		<path fill="#D5D8E2" d="M29-1L29-1c2.5,0,4.9,0.4,7.1,1.1c1.4,0.4,3.3,1.4,4.6,2.1l8.5,4.9c6.5,3.7,10.8,11.2,11,18.7
			c0.1,0.2,0.1,8.9,0.1,9.1c0,3.6-1.1,9.1-2.9,12.3c-1.8,3.6-4.7,6.8-8.1,8.8l-8.6,5c-1.1,0.6-2.7,1.4-3.9,1.8
			c-2.4,0.9-5,1.3-7.6,1.3c-2.5,0-4.8-0.4-7.1-1.1c-1.4-0.4-3.2-1.3-4.5-2l-8.5-5c-4.6-2.7-8.2-7.4-9.8-12.6C-1.6,41.2-2,38.2-2,36
			v-9.7c0-7.6,4.4-15.4,10.9-19.2l8.5-5l0,0l0,0c1.1-0.6,2.7-1.4,3.9-1.8C23.7-0.6,26.3-1,29-1"/>
	</g>
	<g opacity="9.090909e-03">
		<path fill="#D5D8E2" d="M29-0.7L29-0.7c2.5,0,4.9,0.4,7.1,1.2c1.3,0.4,3.4,1.4,4.6,2.1L49,7.4c6.2,3.6,10.5,10.9,10.7,18.1
			c0.1,0.2,0.1,8.6,0.1,8.8c0,3.4-1,9.4-2.8,12.4c-1.7,3.6-4.6,6.9-8,8.9l-8.6,5c-1,0.6-2.7,1.4-3.9,1.8c-2.3,0.9-4.9,1.3-7.6,1.3
			c-2.5,0-4.8-0.4-7-1.1c-1.3-0.4-3.2-1.3-4.4-2l-8.5-5C4.4,53,0.9,48.2-0.6,43.1c-0.7-2-1.1-5.2-1.1-7.3v-9.6
			c0-7.5,4.3-15.1,10.7-18.8l8.5-5l0,0l0,0c1-0.6,2.7-1.4,3.9-1.8C23.7-0.2,26.3-0.7,29-0.7"/>
	</g>
	<g opacity="1.136364e-02">
		<path fill="#D5D8E2" d="M29-0.4L29-0.4c2.5,0,4.9,0.4,7,1.2c1.3,0.4,3.4,1.5,4.6,2.1l8.4,4.8c6,3.5,10.2,10.5,10.4,17.5
			c0.1,0.3,0.1,8.2,0.1,8.5c0,3.2-1,9.6-2.6,12.4c-1.6,3.6-4.5,7-7.9,9.1l-8.6,5c-1,0.6-2.7,1.5-3.8,1.8c-2.3,0.9-4.9,1.3-7.5,1.3
			c-2.5,0-4.8-0.4-7-1.2c-1.3-0.4-3.2-1.3-4.3-2l-8.6-5c-4.5-2.6-8-7.4-9.5-12.4c-0.7-1.9-1-5.2-1-7.2v-9.5
			c0-7.3,4.2-14.7,10.4-18.3l8.5-5l0,0l0,0c1-0.6,2.8-1.5,3.8-1.8C23.8,0.1,26.3-0.4,29-0.4"/>
	</g>
	<g opacity="1.363636e-02">
		<path fill="#D5D8E2" d="M29-0.1L29-0.1c2.5,0,4.8,0.4,7,1.2c1.2,0.4,3.5,1.5,4.5,2.1l8.3,4.8C54.7,11.5,58.7,18.2,59,25
			c0.1,0.3,0.2,7.9,0.2,8.2c0,3-0.9,9.9-2.5,12.5c-1.5,3.7-4.4,7.2-7.8,9.2l-8.6,5c-0.9,0.5-2.8,1.5-3.8,1.8
			c-2.3,0.9-4.8,1.3-7.4,1.3c-2.4,0-4.8-0.4-6.9-1.2c-1.2-0.4-3.2-1.4-4.3-2l-8.6-5c-4.5-2.6-7.9-7.3-9.3-12.4c-0.6-1.8-1-5.2-1-7.1
			V26c0-7.1,4.1-14.4,10.2-17.9l8.5-5l0,0l0,0c0.9-0.5,2.8-1.5,3.8-1.8C23.8,0.4,26.3-0.1,29-0.1"/>
	</g>
	<g opacity="1.590909e-02">
		<path fill="#D5D8E2" d="M29,0.3L29,0.3c2.5,0,4.8,0.4,6.9,1.2c1.1,0.3,3.5,1.6,4.5,2.2l8.3,4.8c5.6,3.3,9.6,9.8,9.9,16.3
			c0.1,0.4,0.2,7.5,0.2,7.9c0,2.9-0.8,10.1-2.3,12.6c-1.4,3.7-4.3,7.3-7.8,9.3l-8.6,5c-0.9,0.5-2.8,1.5-3.8,1.8
			c-2.2,0.9-4.8,1.4-7.4,1.4c-2.4,0-4.8-0.4-6.9-1.2c-1.1-0.3-3.2-1.4-4.2-2l-8.6-5c-4.4-2.5-7.8-7.3-9.1-12.3
			c-0.6-1.7-0.9-5.3-0.9-7v-9.4c0-6.9,4-14,10-17.5l8.5-5l0,0l0,0c0.9-0.5,2.8-1.5,3.8-1.8C23.8,0.7,26.4,0.3,29,0.3"/>
	</g>
	<g opacity="1.818182e-02">
		<path fill="#D5D8E2" d="M29,0.6L29,0.6c2.4,0,4.8,0.4,6.9,1.2c1,0.3,3.6,1.6,4.5,2.2l8.3,4.8c5.4,3.1,9.2,9.4,9.6,15.7
			c0.1,0.4,0.2,7.2,0.2,7.6c0,2.7-0.8,10.4-2.2,12.7c-1.3,3.7-4.2,7.4-7.7,9.4l-8.6,5c-0.8,0.5-2.8,1.5-3.7,1.8
			c-2.2,0.9-4.7,1.4-7.3,1.4c-2.4,0-4.8-0.4-6.9-1.2c-1-0.3-3.2-1.4-4.2-2l-8.6-5C5,51.8,1.7,47,0.5,42.1c-0.6-1.6-0.9-5.3-0.9-7
			v-9.3c0-6.7,4-13.7,9.7-17l8.5-5l0,0l0,0c0.8-0.5,2.9-1.5,3.7-1.8C23.9,1,26.4,0.6,29,0.6"/>
	</g>
	<g opacity="2.045454e-02">
		<path fill="#D5D8E2" d="M29,0.9L29,0.9c2.4,0,4.8,0.4,6.9,1.3c1,0.3,3.6,1.7,4.5,2.2l8.2,4.8c5.2,3,8.9,9.1,9.3,15.1
			c0.2,0.5,0.3,6.9,0.3,7.4c0,2.5-0.7,10.6-2,12.8c-1.2,3.8-4.1,7.5-7.6,9.5l-8.6,5c-0.7,0.4-2.9,1.6-3.7,1.8
			c-2.2,0.9-4.7,1.4-7.2,1.4c-2.4,0-4.8-0.4-6.8-1.3c-1-0.3-3.2-1.5-4.1-2l-8.6-5c-4.3-2.5-7.6-7.3-8.7-12.1C0.3,40.4,0,36.5,0,35
			v-9.2c0-6.5,3.9-13.4,9.5-16.6l8.5-5l0,0l0,0c0.7-0.4,2.9-1.6,3.7-1.9C23.9,1.4,26.4,0.9,29,0.9"/>
	</g>
	<g opacity="2.272727e-02">
		<path fill="#D5D8E2" d="M29,1.2L29,1.2c2.4,0,4.8,0.4,6.8,1.3c0.9,0.3,3.7,1.8,4.5,2.2l8.2,4.7c5,2.9,8.6,8.7,9.1,14.6
			c0.2,0.6,0.3,6.5,0.3,7.1c0,2.3-0.7,10.9-1.9,12.9c-1.1,3.8-4,7.6-7.5,9.7l-8.7,5c-0.7,0.4-2.9,1.6-3.7,1.8
			c-2.1,0.9-4.6,1.4-7.2,1.4c-2.4,0-4.8-0.4-6.8-1.3c-0.9-0.3-3.2-1.5-4-2l-8.6-5c-4.2-2.5-7.5-7.2-8.5-12c-0.5-1.3-0.7-5.4-0.7-6.8
			v-9.1c0-6.3,3.8-13,9.2-16.2l8.5-5l0,0l0,0c0.7-0.4,2.9-1.6,3.7-1.9C23.9,1.7,26.4,1.2,29,1.2"/>
	</g>
	<g opacity="2.500000e-02">
		<path fill="#D5D8E2" d="M29,1.5L29,1.5c2.4,0,4.8,0.5,6.8,1.3c0.8,0.2,3.7,1.8,4.5,2.2l8.2,4.7c4.8,2.8,8.3,8.3,8.8,14
			c0.2,0.6,0.3,6.2,0.3,6.8c0,2.1-0.6,11.1-1.7,13c-1,3.8-3.9,7.7-7.4,9.8l-8.7,5c-0.6,0.4-2.9,1.6-3.6,1.8C34,61,31.5,61.5,29,61.5
			c-2.4,0-4.7-0.5-6.8-1.3c-0.8-0.3-3.2-1.5-4-2l-8.6-5c-4.2-2.4-7.4-7.2-8.3-12c-0.4-1.2-0.7-5.4-0.7-6.7v-9c0-6.2,3.7-12.7,9-15.8
			l8.5-5l0,0l0,0c0.6-0.4,2.9-1.6,3.6-1.9C24,2,26.4,1.5,29,1.5"/>
	</g>
	<g opacity="2.727273e-02">
		<path fill="#D5D8E2" d="M29,1.8L29,1.8c2.4,0,4.8,0.5,6.8,1.3c0.7,0.2,3.8,1.9,4.4,2.3l8.1,4.7c4.6,2.7,7.9,8,8.5,13.4
			c0.2,0.7,0.3,5.9,0.3,6.5c0,1.9-0.6,11.4-1.5,13c-0.9,3.8-3.8,7.9-7.3,9.9l-8.7,5c-0.6,0.3-3,1.6-3.6,1.8c-2.1,0.9-4.5,1.4-7,1.4
			c-2.4,0-4.7-0.5-6.7-1.3c-0.7-0.2-3.2-1.6-3.9-1.9l-8.6-5C5.6,50.5,2.5,45.7,1.6,41C1.2,39.9,1,35.6,1,34.4v-9
			c0-6,3.6-12.4,8.7-15.3l8.5-5l0,0l0,0c0.6-0.3,3-1.7,3.6-1.9C24,2.3,26.4,1.8,29,1.8"/>
	</g>
	<g opacity="2.954545e-02">
		<path fill="#D5D8E2" d="M29,2.1L29,2.1c2.4,0,4.8,0.5,6.7,1.4c0.7,0.2,3.8,1.9,4.4,2.3l8.1,4.7c4.4,2.5,7.6,7.6,8.2,12.8
			c0.2,0.7,0.4,5.5,0.4,6.2c0,1.7-0.5,11.6-1.4,13.1c-0.8,3.9-3.7,8-7.2,10l-8.7,5c-0.5,0.3-3,1.7-3.6,1.8c-2,0.9-4.5,1.4-7,1.4
			c-2.4,0-4.7-0.5-6.7-1.4c-0.7-0.2-3.2-1.6-3.8-1.9l-8.6-5c-4.1-2.4-7.2-7.2-7.9-11.8c-0.4-1-0.5-5.4-0.5-6.5v-8.9
			c0-5.8,3.5-12,8.5-14.9l8.6-5l0,0l0,0c0.5-0.3,3-1.7,3.6-1.9C24,2.7,26.4,2.1,29,2.1"/>
	</g>
	<g opacity="3.181818e-02">
		<path fill="#D5D8E2" d="M29,2.5L29,2.5c2.4,0,4.7,0.5,6.7,1.4c0.6,0.2,3.9,2,4.4,2.3l8,4.6c4.2,2.4,7.3,7.3,7.9,12.2
			c0.3,0.8,0.4,5.2,0.4,5.9c0,1.5-0.5,11.9-1.2,13.2c-0.7,3.9-3.6,8.1-7.1,10.1l-8.7,5c-0.5,0.3-3,1.7-3.5,1.9
			c-2,0.9-4.4,1.5-6.9,1.5c-2.4,0-4.7-0.5-6.7-1.4c-0.6-0.2-3.2-1.6-3.8-1.9l-8.6-5c-4-2.3-7.1-7.1-7.8-11.7
			c-0.3-0.9-0.5-5.5-0.5-6.4v-8.8c0-5.6,3.4-11.7,8.2-14.5l8.6-5l0,0l0,0c0.5-0.3,3-1.7,3.5-1.9C24,3,26.5,2.5,29,2.5"/>
	</g>
	<g opacity="3.409091e-02">
		<path fill="#D5D8E2" d="M29,2.8L29,2.8c2.4,0,4.7,0.5,6.6,1.4c0.5,0.2,3.9,2.1,4.4,2.3l8,4.6c4,2.3,7,6.9,7.7,11.6
			c0.3,0.8,0.4,4.8,0.4,5.6c0,1.3-0.4,12.1-1.1,13.3c-0.7,3.9-3.5,8.2-7,10.2l-8.7,5c-0.4,0.2-3,1.7-3.5,1.9c-2,1-4.4,1.5-6.8,1.5
			c-2.4,0-4.7-0.5-6.6-1.4c-0.5-0.2-3.2-1.7-3.7-1.9l-8.7-5c-4-2.3-7-7.1-7.6-11.6C2.2,39.5,2,34.8,2,33.9v-8.7
			c0-5.4,3.3-11.4,8-14.1l8.6-5l0,0l0,0c0.4-0.2,3.1-1.7,3.5-1.9C24.1,3.3,26.5,2.8,29,2.8"/>
	</g>
	<g opacity="3.636364e-02">
		<path fill="#D5D8E2" d="M28.9,3.1L28.9,3.1c2.4,0,4.7,0.5,6.6,1.4c0.4,0.1,4,2.1,4.4,2.4l8,4.6c3.8,2.2,6.6,6.5,7.4,11
			c0.3,0.9,0.5,4.5,0.5,5.4c0,1.1-0.3,12.4-0.9,13.4c-0.6,4-3.4,8.3-6.9,10.4l-8.7,5c-0.3,0.2-3.1,1.7-3.5,1.9
			c-1.9,1-4.3,1.5-6.8,1.5c-2.4,0-4.7-0.5-6.6-1.4c-0.4-0.1-3.2-1.7-3.6-1.9l-8.7-5C6.2,49.3,3.2,44.5,2.7,40
			c-0.2-0.7-0.4-5.5-0.4-6.2v-8.7c0-5.2,3.2-11,7.7-13.6l8.6-5l0,0l0,0c0.3-0.2,3.1-1.8,3.5-1.9C24.1,3.6,26.5,3.1,28.9,3.1"/>
	</g>
	<g opacity="3.863636e-02">
		<path fill="#D5D8E2" d="M28.9,3.4L28.9,3.4c2.4,0,4.7,0.5,6.6,1.5c0.4,0.1,4,2.2,4.4,2.4l7.9,4.6c3.6,2.1,6.3,6.2,7.1,10.4
			c0.3,0.9,0.5,4.2,0.5,5.1c0,1-0.3,12.6-0.8,13.5c-0.5,4-3.3,8.4-6.8,10.5l-8.7,5c-0.3,0.2-3.1,1.8-3.4,1.9c-1.9,1-4.3,1.5-6.7,1.5
			c-2.4,0-4.7-0.5-6.5-1.5c-0.4-0.1-3.2-1.7-3.6-1.9l-8.7-5C6.3,49,3.4,44.2,3,39.8c-0.2-0.6-0.3-5.6-0.3-6.2V25
			c0-5.1,3.1-10.7,7.5-13.2l8.6-5l0,0l0,0c0.3-0.2,3.1-1.8,3.4-1.9C24.1,3.9,26.5,3.4,28.9,3.4"/>
	</g>
	<g opacity="4.090909e-02">
		<path fill="#D5D8E2" d="M28.9,3.7L28.9,3.7c2.4,0,4.7,0.5,6.5,1.5c0.3,0.1,4.1,2.2,4.4,2.4l7.9,4.6c3.4,2,6,5.8,6.8,9.8
			c0.3,1,0.5,3.8,0.5,4.8c0,0.8-0.2,12.9-0.6,13.6c-0.4,4-3.2,8.5-6.7,10.6l-8.7,5c-0.2,0.1-3.1,1.8-3.4,1.9c-1.9,1-4.2,1.5-6.6,1.5
			c-2.4,0-4.7-0.5-6.5-1.5c-0.3-0.1-3.2-1.8-3.5-1.9l-8.7-5c-3.8-2.2-6.7-7-7-11.4C3.1,39.1,3,33.9,3,33.4v-8.5
			c0-4.9,3-10.4,7.2-12.8l8.6-5l0,0l0,0C19.1,7,22,5.3,22.3,5.2C24.2,4.3,26.5,3.7,28.9,3.7"/>
	</g>
	<g opacity="4.318182e-02">
		<path fill="#D5D8E2" d="M28.9,4L28.9,4c2.4,0,4.7,0.5,6.5,1.5c0.2,0.1,4.1,2.3,4.3,2.4l7.8,4.5c3.2,1.8,5.7,5.5,6.6,9.2
			c0.4,1.1,0.6,3.5,0.6,4.5c0,0.6-0.2,13.1-0.5,13.6c-0.3,4.1-3.1,8.7-6.6,10.7l-8.7,5.1c-0.2,0.1-3.2,1.8-3.4,1.9
			c-1.8,1-4.2,1.5-6.6,1.5c-2.4,0-4.6-0.5-6.5-1.5c-0.2-0.1-3.2-1.8-3.4-1.9l-8.7-5c-3.8-2.2-6.6-7-6.8-11.3c-0.1-0.3-0.2-5.6-0.2-6
			v-8.4c0-4.7,2.9-10,7-12.4l8.6-5l0,0l0,0c0.2-0.1,3.2-1.8,3.4-1.9C24.2,4.6,26.5,4,28.9,4"/>
	</g>
	<g opacity="4.545455e-02">
		<path fill="#D5D8E2" d="M28.9,4.4L28.9,4.4c2.4,0,4.7,0.5,6.5,1.5c0.1,0,4.2,2.4,4.3,2.4l7.8,4.5c3,1.7,5.4,5.1,6.3,8.6
			c0.4,1.1,0.6,3.1,0.6,4.2c0,0.4-0.1,13.4-0.3,13.7c-0.2,4.1-3,8.8-6.6,10.8l-8.7,5.1c-0.1,0.1-3.2,1.8-3.3,1.9
			c-1.8,1-4.1,1.5-6.5,1.5c-2.4,0-4.6-0.5-6.4-1.5c-0.1,0-3.2-1.8-3.4-1.9l-8.7-5.1C6.8,48.1,4,43.2,3.8,39
			c-0.1-0.2-0.1-5.7-0.1-5.9v-8.3c0-4.5,2.9-9.7,6.7-11.9l8.6-5l0,0l0,0c0.1-0.1,3.2-1.9,3.3-1.9C24.2,4.9,26.5,4.4,28.9,4.4"/>
	</g>
	<g opacity="4.772727e-02">
		<path fill="#D5D8E2" d="M28.9,4.7L28.9,4.7c2.4,0,4.7,0.5,6.4,1.5c0.1,0,4.2,2.4,4.3,2.5l7.8,4.5c2.8,1.6,5,4.7,6,8
			c0.4,1.2,0.6,2.8,0.6,3.9c0,0.2-0.1,13.6-0.2,13.8c-0.1,4.1-2.9,8.9-6.5,11l-8.7,5.1c-0.1,0-3.2,1.9-3.3,1.9
			c-1.8,1-4.1,1.6-6.4,1.6c-2.4,0-4.6-0.5-6.4-1.5c-0.1,0-3.2-1.8-3.3-1.9l-8.7-5.1c-3.6-2.1-6.4-7-6.4-11.2c0-0.1-0.1-5.7-0.1-5.8
			v-8.3c0-4.3,2.8-9.3,6.5-11.5l8.6-5l0,0l0,0c0.1,0,3.3-1.9,3.3-1.9C24.3,5.2,26.6,4.7,28.9,4.7"/>
	</g>
	<g opacity="5.000000e-02">
		<path fill="#D5D8E2" d="M28.9,5c2.4,0,4.6,0.6,6.4,1.6l12,6.9c3.6,2.1,6.4,6.9,6.4,11.1v13.9c0,4.1-2.8,9-6.4,11.1l-12,6.9
			c-1.7,1-4,1.6-6.4,1.6c-2.4,0-4.6-0.6-6.4-1.6l-12-6.9c-3.6-2.1-6.3-6.9-6.3-11.1V24.6c0-4.1,2.7-9,6.3-11.1l11.9-6.9
			C24.3,5.5,26.6,5,28.9,5"/>
	</g>
</g>
<path fill="#EF4C4C" d="M46.3,9.2L33.5,1.7C31.6,0.6,29.2,0,26.6,0c-2.6,0-5,0.6-6.9,1.7L6.8,9.2C3,11.4,0,16.7,0,21.1v15
	c0,4.5,3,9.7,6.9,12l13,7.5c1.9,1.1,4.3,1.7,6.9,1.7c2.6,0,5-0.6,6.9-1.7l12.7-7.5c3.9-2.2,6.7-7.5,6.7-12v-15
	C53,16.7,50.2,11.4,46.3,9.2z"/>
<polygon fill="#FFFFFF" points="27.4,38.4 18,22.7 36.8,22.7 "/>
</svg>
