<?xml version="1.0" encoding="utf-8"?>
<!-- Generator: Adobe Illustrator 18.1.0, SVG Export Plug-In . SVG Version: 6.00 Build 0)  -->
<!DOCTYPE svg PUBLIC "-//W3C//DTD SVG 1.1//EN" "http://www.w3.org/Graphics/SVG/1.1/DTD/svg11.dtd">
<svg version="1.1" id="Layer_1" xmlns="http://www.w3.org/2000/svg" xmlns:xlink="http://www.w3.org/1999/xlink" x="0px" y="0px"
	 viewBox="-0.9 108.9 594 621.4" enable-background="new -0.9 108.9 594 621.4" xml:space="preserve">
<g>
	<g opacity="0">
		<path fill="#D5D8E2" d="M296.2,108.9c-39.8,0-78.3,9.9-109.4,28.6l0,0l0,0l-79.5,46C42.6,222-0.9,297.8-0.9,373.6v92
			c0,75.8,43.5,151.6,108.1,190.1l78.3,46c32.3,18.6,70.8,28.6,109.4,28.6c39.8,0,77.1-9.9,109.4-28.6l79.5-46
			c65.9-38.5,109.4-114.3,109.4-190.1v-92c0-75.8-43.5-151.6-109.4-190.1l-79.5-46C373.2,118.8,334.7,108.9,296.2,108.9L296.2,108.9
			z"/>
	</g>
	<g opacity="2.272727e-03">
		<path fill="#D5D8E2" d="M296.2,112.6L296.2,112.6c23.6,0,46,3.7,67.1,9.9c14.9,5,29.8,11.2,42.3,18.6l78.3,44.7
			c63.4,37.3,106.9,111.8,106.9,185.2c0,1.2,0,89.5,0,89.5c0,37.3-11.2,79.5-29.8,111.8c-18.6,32.3-46,60.9-77.1,79.5l-79.5,46
			c-11.2,6.2-23.6,12.4-37.3,16.2c-22.4,7.5-47.2,12.4-72.1,12.4c-23.6,0-46-3.7-65.9-9.9c-14.9-5-29.8-11.2-42.3-18.6l-78.3-46
			C65,625.9,30.2,582.4,14.1,532.7c-7.5-22.4-12.4-47.2-12.4-70.8v-90.7c0-74.6,42.3-149.1,105.6-185.2l78.3-44.7l0,0l0,0
			c11.2-6.2,23.6-12.4,37.3-16.2C246.5,116.3,271.3,112.6,296.2,112.6"/>
	</g>
	<g opacity="4.545454e-03">
		<path fill="#D5D8E2" d="M296.2,115.1L296.2,115.1c23.6,0,46,3.7,65.9,9.9c13.7,5,31.1,12.4,42.3,19.9l79.5,44.7
			c62.1,34.8,104.4,108.1,104.4,179c0,1.2,1.2,85.8,1.2,85.8c0,34.8-9.9,82-28.6,113.1c-17.4,32.3-44.7,62.1-75.8,80.8l-79.5,46
			c-9.9,6.2-24.9,12.4-36,16.2c-22.4,8.7-46,12.4-70.8,12.4c-23.6,0-46-3.7-65.9-9.9c-13.7-5-29.8-11.2-42.3-18.6L111,649.5
			c-43.5-24.9-77.1-68.4-93.2-118.1c-7.5-19.9-11.2-47.2-11.2-69.6v-90.7C6.6,299,48.9,225.7,111,189.7l78.3-46l0,0l0,0
			c8.7-5,23.6-12.4,34.8-16.2C246.5,118.8,271.3,115.1,296.2,115.1"/>
	</g>
	<g opacity="6.818182e-03">
		<path fill="#D5D8E2" d="M296.2,117.6L296.2,117.6c23.6,0,46,3.7,65.9,9.9c12.4,3.7,31.1,12.4,42.3,19.9l79.5,46
			c60.9,34.8,100.7,104.4,101.9,174c1.2,1.2,1.2,82,1.2,84.5c0,33.6-9.9,84.5-27.3,114.3c-16.2,33.6-43.5,63.4-74.6,82L404.3,693
			c-9.9,5-24.9,12.4-36,16.2c-22.4,8.7-46,12.4-70.8,12.4c-23.6,0-44.7-3.7-65.9-9.9c-12.4-3.7-29.8-12.4-42.3-18.6L111,647
			c-42.3-24.9-75.8-68.4-90.7-116.8c-8.7-19.9-12.4-48.5-12.4-68.4v-89.5c0-70.8,41-142.9,100.7-177.7l79.5-48.5l0,0l0,0
			c9.9-5,24.9-12.4,36-16.2C246.5,121.3,271.3,117.6,296.2,117.6"/>
	</g>
	<g opacity="9.090909e-03">
		<path fill="#D5D8E2" d="M296.2,120.1L296.2,120.1c23.6,0,46,3.7,65.9,11.2c12.4,3.7,31.1,12.4,42.3,19.9l77.1,44.7
			c57.2,33.6,96.9,100.7,99.4,167.8c1.2,1.2,1.2,79.5,1.2,82c0,31.1-8.7,87-26.1,115.6c-16.2,33.6-42.3,63.4-74.6,82l-79.5,46
			c-8.7,5-24.9,12.4-36,16.2c-21.1,8.7-46,12.4-70.8,12.4c-23.6,0-44.7-3.7-64.6-9.9c-12.4-3.7-29.8-12.4-41-18.6l-78.3-46
			c-42.3-23.6-74.6-68.4-89.5-115.6c-6.2-19.9-9.9-48.5-9.9-68.4v-89.5c0-69.6,39.8-140.4,99.4-174l78.3-46l0,0l0,0
			c8.7-5,24.9-12.4,36-16.2C246.5,125,271.3,120.1,296.2,120.1"/>
	</g>
	<g opacity="1.136364e-02">
		<path fill="#D5D8E2" d="M296.2,123.8L296.2,123.8c23.6,0,46,3.7,64.6,11.2c12.4,3.7,31.1,13.7,42.3,19.9l78.3,44.7
			c55.9,32.3,94.4,96.9,96.9,162.8c1.2,2.5,1.2,75.8,1.2,78.3c0,29.8-8.7,89.5-23.6,115.6c-14.9,33.6-42.3,64.6-73.3,84.5l-79.5,46
			c-8.7,5-24.9,13.7-34.8,16.2c-21.1,8.7-46,12.4-69.6,12.4c-23.6,0-44.7-3.7-64.6-11.2c-12.4-3.7-29.8-12.4-39.8-18.6l-79.5-46
			C72.5,615.9,40.2,571.2,26.5,524c-6.2-17.4-8.7-48.5-8.7-67.1v-88.2c0-67.1,38.5-136.7,96.9-170.3l78.3-46l0,0l0,0
			c8.7-5,26.1-13.7,34.8-16.2C247.7,127.5,271.3,123.8,296.2,123.8"/>
	</g>
	<g opacity="1.363636e-02">
		<path fill="#D5D8E2" d="M296.2,126.3L296.2,126.3c23.6,0,44.7,3.7,64.6,11.2c11.2,3.7,32.3,13.7,42.3,19.9l77.1,44.7
			c54.7,32.3,92,94.4,94.4,157.8c1.2,2.5,1.2,73.3,1.2,75.8c0,27.3-8.7,92-23.6,115.6c-13.7,34.8-41,67.1-72.1,85.8l-79.5,46
			c-8.7,5-26.1,13.7-34.8,16.2c-21.1,8.7-44.7,12.4-68.4,12.4c-22.4,0-44.7-3.7-63.4-11.2c-11.2-3.7-29.8-12.4-39.8-18.6l-79.5-46
			C72.5,612.2,41.4,568.7,29,520.2c-5-16.2-8.7-48.5-8.7-65.9v-85.8c0-65.9,38.5-133,94.4-166.5l78.3-46l0,0l0,0
			c8.7-5,26.1-13.7,34.8-16.2C247.7,131.2,271.3,126.3,296.2,126.3"/>
	</g>
	<g opacity="1.590909e-02">
		<path fill="#D5D8E2" d="M296.2,130L296.2,130c23.6,0,44.7,3.7,63.4,11.2c9.9,2.5,32.3,14.9,42.3,19.9l77.1,44.7
			c52.2,31.1,89.5,90.7,92,151.6c1.2,3.7,1.2,69.6,1.2,73.3c0,27.3-7.5,93.2-21.1,116.8c-12.4,34.8-39.8,67.1-72.1,85.8l-79.5,46
			c-8.7,5-26.1,13.7-34.8,16.2c-19.9,8.7-44.7,12.4-68.4,12.4c-22.4,0-44.7-3.7-63.4-11.2c-9.9-2.5-29.8-12.4-38.5-18.6l-79.5-46
			c-41-23.6-72.1-67.1-84.5-114.3c-5-16.2-8.7-49.7-8.7-64.6v-87c0-63.4,37.3-129.2,93.2-162.8l77.1-44.7l0,0l0,0
			c8.7-5,26.1-13.7,34.8-16.2C247.7,133.7,272.5,130,296.2,130"/>
	</g>
	<g opacity="1.818182e-02">
		<path fill="#D5D8E2" d="M296.2,132.5L296.2,132.5c22.4,0,44.7,3.7,63.4,11.2c9.9,2.5,33.6,14.9,42.3,21.1l77.1,43.5
			c49.7,28.6,85.8,87,89.5,145.4c1.2,3.7,1.2,67.1,1.2,70.8c0,24.9-7.5,96.9-19.9,118.1c-12.4,34.8-38.5,68.4-70.8,87l-79.5,46
			c-8.7,5-27.3,14.9-36,17.4c-19.9,8.7-43.5,12.4-67.1,12.4c-22.4,0-44.7-3.7-63.4-11.2c-8.7-2.5-29.8-12.4-38.5-18.6l-79.5-46
			c-39.8-22.4-70.8-67.1-82-111.8c-5-14.9-8.7-49.7-8.7-64.6v-85.8c0-62.1,37.3-126.8,89.5-157.8l78.3-46l0,0l0,0
			c7.5-5,27.3-13.7,34.8-16.2C248.9,136.2,272.5,132.5,296.2,132.5"/>
	</g>
	<g opacity="2.045454e-02">
		<path fill="#D5D8E2" d="M296.2,135L296.2,135c22.4,0,44.7,3.7,63.4,12.4c8.7,2.5,33.6,16.2,42.3,19.9l75.8,44.7
			c48.5,27.3,82,84.5,85.8,140.4c1.2,5,2.5,63.4,2.5,68.4c0,23.6-6.2,98.2-18.6,119.3c-11.2,34.8-38.5,69.6-70.8,88.2l-79.5,46
			c-6.2,3.7-27.3,14.9-34.8,16.2c-19.9,8.7-43.5,12.4-67.1,12.4c-22.4,0-44.7-3.7-63.4-12.4c-8.7-2.5-29.8-13.7-38.5-18.6l-79.5-46
			C73.7,602.3,42.6,558.8,32.7,514c-5-12.4-8.7-49.7-8.7-63.4v-85.8c0-60.9,36-124.3,88.2-154.1l78.3-46l0,0l0,0
			c6.2-3.7,27.3-14.9,34.8-17.4C248.9,139.9,272.5,135,296.2,135"/>
	</g>
	<g opacity="2.272727e-02">
		<path fill="#D5D8E2" d="M296.2,138.7L296.2,138.7c22.4,0,44.7,3.7,63.4,12.4c8.7,2.5,34.8,16.2,42.3,19.9l75.8,43.5
			c46,27.3,79.5,80.8,84.5,135.5c1.2,5,2.5,60.9,2.5,65.9c0,21.1-6.2,100.7-17.4,119.3c-9.9,34.8-37.3,70.8-69.6,89.5l-80.8,47.2
			c-6.2,3.7-27.3,14.9-34.8,16.2c-19.9,8.7-42.3,12.4-67.1,12.4c-22.4,0-44.7-3.7-63.4-12.4c-8.7-2.5-29.8-13.7-37.3-18.6l-79.5-46
			c-38.5-23.6-69.6-67.1-78.3-111.8c-5-12.4-6.2-49.7-6.2-63.4v-84.5c0-58.4,34.8-120.5,85.8-150.4l78.3-46l0,0l0,0
			c6.2-3.7,27.3-14.9,34.8-17.4C248.9,142.4,272.5,138.7,296.2,138.7"/>
	</g>
	<g opacity="2.500000e-02">
		<path fill="#D5D8E2" d="M296.2,141.2L296.2,141.2c22.4,0,44.7,5,63.4,12.4c7.5,1.2,34.8,16.2,42.3,19.9l75.8,43.5
			c44.7,26.1,77.1,77.1,82,129.2c1.2,5,2.5,57.2,2.5,63.4c0,19.9-5,103.1-16.2,120.5c-8.7,34.8-36,70.8-68.4,90.7l-80.8,47.2
			c-5,3.7-27.3,14.9-33.6,16.2c-19.9,8.7-43.5,12.4-67.1,12.4c-22.4,0-43.5-5-63.4-12.4c-7.5-2.5-29.8-13.7-37.3-18.6l-79.5-46
			c-38.5-22.4-68.4-67.1-77.1-111.8c-3.7-11.2-6.2-49.7-6.2-62.1v-83.3c0-57.2,34.8-118.1,83.3-146.6l79.5-44.7l0,0l0,0
			c5-3.7,27.3-14.9,33.6-17.4C250.2,146.2,272.5,141.2,296.2,141.2"/>
	</g>
	<g opacity="2.727273e-02">
		<path fill="#D5D8E2" d="M296.2,143.7L296.2,143.7c22.4,0,44.7,5,63.4,12.4c6.2,1.2,34.8,17.4,41,21.1l74.6,43.5
			c42.3,24.9,73.3,74.6,78.3,124.3c1.2,6.2,2.5,54.7,2.5,60.9c0,17.4-5,105.6-13.7,120.5c-8.7,34.8-34.8,73.3-67.1,92l-80.8,46
			c-5,2.5-27.3,14.9-33.6,16.2c-19.9,8.7-42.3,12.4-64.6,12.4c-22.4,0-43.5-5-62.1-12.4c-6.2-1.2-29.8-14.9-36-17.4l-79.5-46
			c-38.5-22.4-67.1-67.1-75.8-110.6c-3.7-9.9-6.2-49.7-6.2-60.9v-83.3c0-55.9,33.6-114.3,80.8-141.7l78.3-46l0,0l0,0
			c6.2-3.7,28.6-16.2,33.6-17.4C250.2,148.6,272.5,143.7,296.2,143.7"/>
	</g>
	<g opacity="2.954545e-02">
		<path fill="#D5D8E2" d="M296.2,146.2L296.2,146.2c22.4,0,44.7,5,62.1,12.4c6.2,1.2,34.8,17.4,41,21.1l74.6,43.5
			c41,23.6,70.8,70.8,75.8,119.3c1.2,6.2,3.7,51,3.7,57.2c0,16.2-5,108.1-12.4,121.8c-7.5,36-34.8,74.6-67.1,93.2l-80.8,46
			c-5,2.5-27.3,16.2-33.6,16.2c-18.6,8.7-42.3,12.4-64.6,12.4c-22.4,0-43.5-5-62.1-12.4c-6.2-1.2-29.8-14.9-34.8-17.4l-79.5-46
			c-38.5-22.4-67.1-67.1-73.3-109.4c-3.7-8.7-5-49.7-5-60.9v-82c0-53.4,32.3-111.8,78.3-137.9l79.5-46l0,0l0,0
			c5-2.5,27.3-16.2,33.6-17.4C250.2,152.4,272.5,146.2,296.2,146.2"/>
	</g>
	<g opacity="3.181818e-02">
		<path fill="#D5D8E2" d="M296.2,149.9L296.2,149.9c22.4,0,43.5,5,62.1,12.4c5,1.2,36,18.6,41,21.1l74.6,42.3
			c38.5,22.4,67.1,67.1,73.3,113.1c2.5,7.5,3.7,48.5,3.7,54.7c0,13.7-5,110.6-11.2,123c-6.2,36-33.6,74.6-65.9,93.2l-80.8,46
			c-5,2.5-27.3,16.2-32.3,17.4c-18.6,8.7-41,13.7-63.4,13.7c-22.4,0-43.5-5-62.1-12.4c-5-1.2-29.8-14.9-34.8-17.4l-79.5-46
			c-37.3-21.1-65.9-65.9-72.1-108.1c-2.5-8.7-5-51-5-59.7v-82C43.9,309,75,253,119.7,226.9l78.3-44.7l0,0l0,0
			c5-2.5,27.3-16.2,32.3-17.4C250.2,154.9,272.5,149.9,296.2,149.9"/>
	</g>
	<g opacity="3.409091e-02">
		<path fill="#D5D8E2" d="M296.2,153.6L296.2,153.6c22.4,0,43.5,5,60.9,12.4c5,1.2,36,19.9,41,21.1l74.6,42.3
			c37.3,21.1,64.6,63.4,70.8,108.1c2.5,7.5,3.7,44.7,3.7,52.2c0,12.4-3.7,111.8-9.9,123c-6.2,36-32.3,75.8-64.6,94.4l-80.8,46
			c-3.7,1.2-27.3,16.2-32.3,17.4c-18.6,8.7-41,13.7-63.4,13.7c-22.4,0-43.5-5-60.9-12.4c-5-1.2-29.8-16.2-34.8-17.4l-80.8-46
			c-37.3-21.1-64.6-65.9-70.8-108.1c-1.2-7.5-3.7-51-3.7-59.7v-80.8c0-49.7,31.1-105.6,74.6-130.5l79.5-46l0,0l0,0
			c3.7-1.2,28.6-16.2,32.3-17.4C250.2,157.3,272.5,153.6,296.2,153.6"/>
	</g>
	<g opacity="3.636364e-02">
		<path fill="#D5D8E2" d="M294.9,156.1L294.9,156.1c22.4,0,43.5,5,60.9,12.4c3.7,1.2,37.3,19.9,41,22.4l74.6,42.3
			c34.8,19.9,60.9,60.9,68.4,101.9c2.5,8.7,5,42.3,5,49.7c0,9.9-2.5,115.6-8.7,124.3c-5,37.3-31.1,77.1-63.4,96.9l-80.8,46
			c-2.5,1.2-28.6,16.2-32.3,17.4c-17.4,8.7-39.8,13.7-63.4,13.7c-22.4,0-43.5-5-60.9-12.4c-3.7-1.2-29.8-16.2-33.6-17.4l-80.8-46
			c-36-23.6-63.4-67.1-68.4-109.4c-2.5-6.2-3.7-51-3.7-57.2v-80.8c0-48.5,29.8-101.9,70.8-126.8l79.5-46l0,0l0,0
			c2.5-1.2,28.6-16.2,32.3-17.4C250.2,161.1,272.5,156.1,294.9,156.1"/>
	</g>
	<g opacity="3.863636e-02">
		<path fill="#D5D8E2" d="M294.9,158.6L294.9,158.6c22.4,0,43.5,5,60.9,13.7c3.7,1.2,37.3,19.9,41,22.4l73.3,42.3
			c33.6,19.9,58.4,57.2,65.9,96.9c2.5,8.7,5,38.5,5,47.2s-2.5,116.8-7.5,125.5c-5,37.3-31.1,78.3-63.4,96.9l-80.8,46
			c-2.5,1.2-28.6,16.2-31.1,17.4c-17.4,8.7-39.8,13.7-62.1,13.7s-43.5-5-60.9-13.7c-3.7-1.2-29.8-16.2-33.6-17.4l-80.8-46
			c-34.8-22.4-62.1-65.9-65.9-106.9c-1.2-5-2.5-52.2-2.5-57.2v-79.5c0-47.2,28.6-99.4,69.6-123l79.5-46l0,0l0,0
			c2.5-1.2,28.6-16.2,31.1-17.4C250.2,163.6,272.5,158.6,294.9,158.6"/>
	</g>
	<g opacity="4.090909e-02">
		<path fill="#D5D8E2" d="M294.9,161.1L294.9,161.1c22.4,0,43.5,5,60.9,13.7c2.5,1.2,37.3,21.1,41,22.4l73.3,42.3
			c31.1,18.6,55.9,53.4,63.4,90.7c2.5,8.7,5,34.8,5,44.7c0,7.5-1.2,119.3-5,125.5c-3.7,37.3-29.8,78.3-62.1,98.2l-80.8,46
			c-1.2,1.2-28.6,16.2-31.1,17.4c-17.4,8.7-38.5,13.7-60.9,13.7s-43.5-5-60.9-13.7c-2.5-1.2-29.8-16.2-32.3-17.4l-80.8-46
			C89.9,578.6,62.5,533.9,60,492.9c-1.2-5-2.5-53.4-2.5-57.2v-78.3c0-46,27.3-96.9,67.1-119.3l79.5-46l0,0l0,0
			c2.5-1.2,29.8-16.2,32.3-17.4C251.4,167.3,272.5,161.1,294.9,161.1"/>
	</g>
	<g opacity="4.318182e-02">
		<path fill="#D5D8E2" d="M294.9,164.8L294.9,164.8c22.4,0,43.5,5,60.9,13.7c1.2,1.2,38.5,21.1,39.8,22.4l72.1,42.3
			c29.8,16.2,53.4,51,60.9,85.8c3.7,9.9,5,32.3,5,42.3c0,5-1.2,121.8-5,125.5c-2.5,38.5-28.6,80.8-60.9,99.4l-80.8,47.2
			c-1.2,1.2-29.8,16.2-31.1,17.4c-16.2,8.7-38.5,13.7-60.9,13.7s-42.3-6.2-59.7-14.9c-1.2-1.2-29.8-16.2-31.1-17.4l-80.8-46
			C88.6,576.2,62.5,531.4,60,491.6c-1.2-2.5-1.2-52.2-1.2-55.9v-78.3c0-43.5,27.3-93.2,64.6-115.6l79.5-46l0,0l0,0
			c1.2-1.2,29.8-16.2,31.1-17.4C251.4,169.8,272.5,164.8,294.9,164.8"/>
	</g>
	<g opacity="4.545455e-02">
		<path fill="#D5D8E2" d="M294.9,168.5L294.9,168.5c22.4,0,43.5,5,60.9,13.7c1.2,0,38.5,22.4,39.8,22.4l72.1,41
			c27.3,16.2,49.7,47.2,58.4,79.5c3.7,9.9,5,28.6,5,38.5c0,3.7-1.2,124.3-2.5,126.8c-1.2,38.5-27.3,82-60.9,100.7l-80.8,47.2
			c-1.2,1.2-29.8,16.2-31.1,17.4c-16.2,8.7-38.5,13.7-60.9,13.7s-42.3-5-59.7-13.7c-1.2,0-29.8-16.2-31.1-17.4l-80.8-47.2
			c-34.8-18.6-60.9-63.4-62.1-103.1c0-1.2,0-52.2,0-53.4v-77.1c0-42.3,27.3-89.5,62.1-110.6l79.5-46l0,0l0,0
			c1.2-1.2,29.8-17.4,31.1-17.4C251.4,172.3,272.5,168.5,294.9,168.5"/>
	</g>
	<g opacity="4.772727e-02">
		<path fill="#D5D8E2" d="M294.9,171L294.9,171c22.4,0,43.5,5,59.7,13.7c1.2,0,38.5,22.4,39.8,23.6l72.1,42.3
			c26.1,14.9,46,43.5,55.9,74.6c3.7,11.2,5,26.1,5,36c0,1.2-1.2,125.5-1.2,128c-1.2,38.5-27.3,82-60.9,101.9l-80.8,47.2
			c-1.2,0-29.8,17.4-31.1,17.4c-16.2,8.7-38.5,14.9-59.7,14.9c-22.4,0-42.3-5-59.7-13.7c-1.2,0-29.8-16.2-31.1-17.4l-80.8-47.2
			c-33.6-19.9-59.7-64.6-59.7-104.4c0-1.2-1.2-53.4-1.2-53.4v-77.1c0-39.8,26.1-85.8,60.9-106.9l79.5-46l0,0l0,0
			c1.2,0,31.1-17.4,31.1-17.4C252.7,174.7,273.8,171,294.9,171"/>
	</g>
	<g opacity="5.000000e-02">
		<path fill="#D5D8E2" d="M294.9,173.5c22.4,0,42.3,5,59.7,14.9l111.8,63.4c33.6,19.9,59.7,63.4,59.7,103.1v129.2
			c0,38.5-26.1,83.3-59.7,103.1l-111.8,63.4c-16.2,8.7-37.3,14.9-59.7,14.9c-22.4,0-42.3-5-59.7-14.9l-111.8-63.4
			C89.9,567.5,65,524,65,484.2V354.9c0-38.5,24.9-83.3,58.4-103.1l111.8-63.4C252.7,178.5,273.8,173.5,294.9,173.5"/>
	</g>
</g>
<path fill="#FFFFFF" d="M456.5,212l-119.3-69.6c-17.4-9.9-39.8-16.2-63.4-16.2c-23.6,0-46,6.2-63.4,16.2L89.9,212
	c-34.8,21.1-62.1,69.6-62.1,110.6v139.2c0,42.3,27.3,89.5,63.4,111.8l120.5,69.6c17.4,9.9,39.8,16.2,63.4,16.2s46-5,63.4-16.2
	l118.1-69.6c36-19.9,62.1-69.6,62.1-111.8V322.6C518.6,281.6,492.5,233.2,456.5,212z"/>
<g>
	<path fill="#4391A3" d="M396,499.9l-91.4-119.5h-55.2l-91.4,119.5H396z M277.4,421.1l31.7,44.4h-64.3L277.4,421.1z"/>
	<polygon fill="#4391A3" points="203.1,393.1 203.1,355 350.7,355 350.7,393.1 396,451 396,309.8 157.8,309.8 157.8,451 	"/>
</g>
</svg>
